courier-prime_bold.sfdir
StartChar: exclam
Encoding: 33 33 1
Width: 1228
Flags: W
LayerCount: 2
Back
Fore
SplineSet
739 1209 m 2,0,1
 786 1209 786 1209 780 1159 c 2,2,-1
 707 582 l 2,3,4
 702 544 702 544 677.5 524 c 128,-1,5
 653 504 653 504 614 504 c 256,6,7
 575 504 575 504 550.5 524 c 128,-1,8
 526 544 526 544 521 582 c 2,9,-1
 448 1159 l 2,10,11
 442 1209 442 1209 489 1209 c 2,12,-1
 739 1209 l 2,0,1
425 167 m 256,13,14
 425 206 425 206 440 241 c 128,-1,15
 455 276 455 276 480.5 301.5 c 128,-1,16
 506 327 506 327 540.5 342 c 128,-1,17
 575 357 575 357 614 357 c 256,18,19
 653 357 653 357 687.5 342 c 128,-1,20
 722 327 722 327 747.5 301.5 c 128,-1,21
 773 276 773 276 788 241 c 128,-1,22
 803 206 803 206 803 167 c 256,23,24
 803 128 803 128 788 93.5 c 128,-1,25
 773 59 773 59 747.5 33.5 c 128,-1,26
 722 8 722 8 687.5 -7 c 128,-1,27
 653 -22 653 -22 614 -22 c 256,28,29
 575 -22 575 -22 540.5 -7 c 128,-1,30
 506 8 506 8 480.5 33.5 c 128,-1,31
 455 59 455 59 440 93.5 c 128,-1,32
 425 128 425 128 425 167 c 256,13,14
EndSplineSet
EndChar
StartChar: quotedbl
Encoding: 34 34 2
Width: 1228
Flags: W
LayerCount: 2
Back
Fore
SplineSet
509 1209 m 2,0,1
 532 1209 532 1209 543 1197 c 128,-1,2
 554 1185 554 1185 550 1159 c 2,3,-1
 477 679 l 2,4,5
 472 648 472 648 452.5 629.5 c 128,-1,6
 433 611 433 611 384 611 c 256,7,8
 335 611 335 611 315.5 629.5 c 128,-1,9
 296 648 296 648 291 679 c 2,10,-1
 218 1159 l 2,11,12
 214 1185 214 1185 225 1197 c 128,-1,13
 236 1209 236 1209 259 1209 c 2,14,-1
 509 1209 l 2,0,1
969 1209 m 2,15,16
 992 1209 992 1209 1003 1197 c 128,-1,17
 1014 1185 1014 1185 1010 1159 c 2,18,-1
 937 679 l 2,19,20
 932 648 932 648 912.5 629.5 c 128,-1,21
 893 611 893 611 844 611 c 256,22,23
 795 611 795 611 775.5 629.5 c 128,-1,24
 756 648 756 648 751 679 c 2,25,-1
 678 1159 l 2,26,27
 674 1185 674 1185 685 1197 c 128,-1,28
 696 1209 696 1209 719 1209 c 2,29,-1
 969 1209 l 2,15,16
EndSplineSet
EndChar
StartChar: numbersign
Encoding: 35 35 3
Width: 1228
Flags: W
LayerCount: 2
Back
Fore
SplineSet
438 940 m 1,0,-1
 512 1176 l 2,1,2
 517 1193 517 1193 538.5 1201 c 128,-1,3
 560 1209 560 1209 586 1209 c 0,4,5
 607 1209 607 1209 629 1204.5 c 128,-1,6
 651 1200 651 1200 667.5 1191 c 128,-1,7
 684 1182 684 1182 692.5 1169.5 c 128,-1,8
 701 1157 701 1157 696 1142 c 2,9,-1
 633 940 l 1,10,-1
 812 940 l 1,11,-1
 886 1176 l 2,12,13
 891 1193 891 1193 912.5 1201 c 128,-1,14
 934 1209 934 1209 960 1209 c 0,15,16
 981 1209 981 1209 1003 1204.5 c 128,-1,17
 1025 1200 1025 1200 1041.5 1191 c 128,-1,18
 1058 1182 1058 1182 1066.5 1169.5 c 128,-1,19
 1075 1157 1075 1157 1070 1142 c 2,20,-1
 1007 940 l 1,21,-1
 1125 940 l 2,22,23
 1142 940 1142 940 1154 935.5 c 128,-1,24
 1166 931 1166 931 1173.5 919 c 128,-1,25
 1181 907 1181 907 1184.5 885 c 128,-1,26
 1188 863 1188 863 1188 827 c 256,27,28
 1188 791 1188 791 1184.5 769 c 128,-1,29
 1181 747 1181 747 1173.5 735 c 128,-1,30
 1166 723 1166 723 1154 719 c 128,-1,31
 1142 715 1142 715 1125 715 c 2,32,-1
 936 715 l 1,33,-1
 863 482 l 1,34,-1
 1025 482 l 2,35,36
 1042 482 1042 482 1054 477.5 c 128,-1,37
 1066 473 1066 473 1073.5 461 c 128,-1,38
 1081 449 1081 449 1084.5 427 c 128,-1,39
 1088 405 1088 405 1088 369 c 256,40,41
 1088 333 1088 333 1084.5 311 c 128,-1,42
 1081 289 1081 289 1073.5 277 c 128,-1,43
 1066 265 1066 265 1054 261 c 128,-1,44
 1042 257 1042 257 1025 257 c 2,45,-1
 793 257 l 1,46,-1
 716 11 l 2,47,48
 711 -6 711 -6 689.5 -14 c 128,-1,49
 668 -22 668 -22 642 -22 c 0,50,51
 621 -22 621 -22 599 -17.5 c 128,-1,52
 577 -13 577 -13 560.5 -4 c 128,-1,53
 544 5 544 5 535.5 17.5 c 128,-1,54
 527 30 527 30 532 45 c 2,55,-1
 598 257 l 1,56,-1
 419 257 l 1,57,-1
 342 11 l 2,58,59
 337 -6 337 -6 315.5 -14 c 128,-1,60
 294 -22 294 -22 268 -22 c 0,61,62
 247 -22 247 -22 225 -17.5 c 128,-1,63
 203 -13 203 -13 186.5 -4 c 128,-1,64
 170 5 170 5 161.5 17.5 c 128,-1,65
 153 30 153 30 158 45 c 2,66,-1
 224 257 l 1,67,-1
 103 257 l 2,68,69
 86 257 86 257 74 261 c 128,-1,70
 62 265 62 265 54.5 277 c 128,-1,71
 47 289 47 289 43.5 311 c 128,-1,72
 40 333 40 333 40 369 c 256,73,74
 40 405 40 405 43.5 427 c 128,-1,75
 47 449 47 449 54.5 461 c 128,-1,76
 62 473 62 473 74 477.5 c 128,-1,77
 86 482 86 482 103 482 c 2,78,-1
 295 482 l 1,79,-1
 368 715 l 1,80,-1
 203 715 l 2,81,82
 186 715 186 715 174 719 c 128,-1,83
 162 723 162 723 154.5 735 c 128,-1,84
 147 747 147 747 143.5 769 c 128,-1,85
 140 791 140 791 140 827 c 256,86,87
 140 863 140 863 143.5 885 c 128,-1,88
 147 907 147 907 154.5 919 c 128,-1,89
 162 931 162 931 174 935.5 c 128,-1,90
 186 940 186 940 203 940 c 2,91,-1
 438 940 l 1,0,-1
489 482 m 1,92,-1
 669 482 l 1,93,-1
 742 715 l 1,94,-1
 562 715 l 1,95,-1
 489 482 l 1,92,-1
EndSplineSet
EndChar
StartChar: dollar
Encoding: 36 36 4
Width: 1228
Flags: W
LayerCount: 2
Back
Fore
SplineSet
414 181 m 2,0,1
 414 147 414 147 385 132.5 c 128,-1,2
 356 118 356 118 292 118 c 256,3,4
 228 118 228 118 201 132.5 c 128,-1,5
 174 147 174 147 174 181 c 2,6,-1
 174 404 l 2,7,8
 174 438 174 438 197.5 452.5 c 128,-1,9
 221 467 221 467 270 467 c 0,10,11
 303 467 303 467 322.5 460 c 128,-1,12
 342 453 342 453 353 439 c 0,13,14
 385 399 385 399 426 374 c 128,-1,15
 467 349 467 349 515 335 c 1,16,-1
 515 496 l 1,17,18
 458 505 458 505 403.5 519.5 c 128,-1,19
 349 534 349 534 302 560 c 0,20,21
 242 593 242 593 203 650 c 128,-1,22
 164 707 164 707 164 800 c 0,23,24
 164 866 164 866 190.5 918 c 128,-1,25
 217 970 217 970 264 1007 c 128,-1,26
 311 1044 311 1044 375.5 1064 c 128,-1,27
 440 1084 440 1084 515 1086 c 1,28,-1
 515 1249 l 2,29,30
 515 1283 515 1283 533.5 1297.5 c 128,-1,31
 552 1312 552 1312 608 1312 c 256,32,33
 664 1312 664 1312 682.5 1297.5 c 128,-1,34
 701 1283 701 1283 701 1249 c 2,35,-1
 701 1058 l 1,36,37
 750 1040 750 1040 794 1013 c 1,38,-1
 794 1023 l 2,39,40
 794 1057 794 1057 818 1071.5 c 128,-1,41
 842 1086 842 1086 906 1086 c 256,42,43
 970 1086 970 1086 997 1071.5 c 128,-1,44
 1024 1057 1024 1057 1024 1023 c 2,45,-1
 1024 812 l 2,46,47
 1024 778 1024 778 1002.5 763.5 c 128,-1,48
 981 749 981 749 932 749 c 0,49,50
 879 749 879 749 859 770 c 0,51,52
 824 807 824 807 785 830 c 128,-1,53
 746 853 746 853 701 867 c 1,54,-1
 701 721 l 1,55,56
 752 715 752 715 803 704.5 c 128,-1,57
 854 694 854 694 900 675 c 0,58,59
 936 660 936 660 967.5 638.5 c 128,-1,60
 999 617 999 617 1021.5 587 c 128,-1,61
 1044 557 1044 557 1057 517.5 c 128,-1,62
 1070 478 1070 478 1070 427 c 0,63,64
 1070 359 1070 359 1045.5 303.5 c 128,-1,65
 1021 248 1021 248 974 208 c 128,-1,66
 927 168 927 168 858.5 144.5 c 128,-1,67
 790 121 790 121 701 118 c 1,68,-1
 701 -62 l 2,69,70
 701 -96 701 -96 682.5 -110.5 c 128,-1,71
 664 -125 664 -125 608 -125 c 256,72,73
 552 -125 552 -125 533.5 -110.5 c 128,-1,74
 515 -96 515 -96 515 -62 c 2,75,-1
 515 142 l 1,76,77
 487 151 487 151 462 163 c 128,-1,78
 437 175 437 175 414 189 c 1,79,-1
 414 181 l 2,0,1
701 470 m 1,80,-1
 701 320 l 1,81,82
 758 326 758 326 785 346.5 c 128,-1,83
 812 367 812 367 812 401 c 0,84,85
 812 427 812 427 785 446 c 128,-1,86
 758 465 758 465 701 473 c 1,87,-1
 701 470 l 1,80,-1
422 809 m 0,88,89
 422 793 422 793 430 781.5 c 128,-1,90
 438 770 438 770 451 762.5 c 128,-1,91
 464 755 464 755 480.5 750 c 128,-1,92
 497 745 497 745 515 742 c 1,93,-1
 515 884 l 1,94,95
 470 878 470 878 446 858 c 128,-1,96
 422 838 422 838 422 809 c 0,88,89
EndSplineSet
EndChar
StartChar: percent
Encoding: 37 37 5
Width: 1228
Flags: W
LayerCount: 2
Back
Fore
SplineSet
50 935 m 256,0,1
 50 992 50 992 71.5 1041.5 c 128,-1,2
 93 1091 93 1091 130.5 1128.5 c 128,-1,3
 168 1166 168 1166 217.5 1187.5 c 128,-1,4
 267 1209 267 1209 324 1209 c 256,5,6
 381 1209 381 1209 430.5 1187.5 c 128,-1,7
 480 1166 480 1166 517.5 1128.5 c 128,-1,8
 555 1091 555 1091 576.5 1041.5 c 128,-1,9
 598 992 598 992 598 935 c 256,10,11
 598 878 598 878 576.5 828.5 c 128,-1,12
 555 779 555 779 517.5 741.5 c 128,-1,13
 480 704 480 704 430.5 682.5 c 128,-1,14
 381 661 381 661 324 661 c 256,15,16
 267 661 267 661 217.5 682.5 c 128,-1,17
 168 704 168 704 130.5 741.5 c 128,-1,18
 93 779 93 779 71.5 828.5 c 128,-1,19
 50 878 50 878 50 935 c 256,0,1
237 935 m 256,20,21
 237 899 237 899 262.5 873.5 c 128,-1,22
 288 848 288 848 324 848 c 256,23,24
 360 848 360 848 385.5 873.5 c 128,-1,25
 411 899 411 899 411 935 c 256,26,27
 411 971 411 971 385.5 996.5 c 128,-1,28
 360 1022 360 1022 324 1022 c 256,29,30
 288 1022 288 1022 262.5 996.5 c 128,-1,31
 237 971 237 971 237 935 c 256,20,21
630 252 m 256,32,33
 630 309 630 309 651.5 358.5 c 128,-1,34
 673 408 673 408 710.5 445.5 c 128,-1,35
 748 483 748 483 797.5 504.5 c 128,-1,36
 847 526 847 526 904 526 c 256,37,38
 961 526 961 526 1010.5 504.5 c 128,-1,39
 1060 483 1060 483 1097.5 445.5 c 128,-1,40
 1135 408 1135 408 1156.5 358.5 c 128,-1,41
 1178 309 1178 309 1178 252 c 256,42,43
 1178 195 1178 195 1156.5 145.5 c 128,-1,44
 1135 96 1135 96 1097.5 58.5 c 128,-1,45
 1060 21 1060 21 1010.5 -0.5 c 128,-1,46
 961 -22 961 -22 904 -22 c 256,47,48
 847 -22 847 -22 797.5 -0.5 c 128,-1,49
 748 21 748 21 710.5 58.5 c 128,-1,50
 673 96 673 96 651.5 145.5 c 128,-1,51
 630 195 630 195 630 252 c 256,32,33
817 252 m 256,52,53
 817 216 817 216 842.5 190.5 c 128,-1,54
 868 165 868 165 904 165 c 256,55,56
 940 165 940 165 965.5 190.5 c 128,-1,57
 991 216 991 216 991 252 c 256,58,59
 991 288 991 288 965.5 313.5 c 128,-1,60
 940 339 940 339 904 339 c 256,61,62
 868 339 868 339 842.5 313.5 c 128,-1,63
 817 288 817 288 817 252 c 256,52,53
985 1083 m 2,64,65
 997 1095 997 1095 1008.5 1100 c 128,-1,66
 1020 1105 1020 1105 1032.5 1102 c 128,-1,67
 1045 1099 1045 1099 1061 1087.5 c 128,-1,68
 1077 1076 1077 1076 1098 1054 c 256,69,70
 1119 1032 1119 1032 1129.5 1016 c 128,-1,71
 1140 1000 1140 1000 1142 987 c 128,-1,72
 1144 974 1144 974 1138 963 c 128,-1,73
 1132 952 1132 952 1120 940 c 2,74,-1
 243 106 l 2,75,76
 231 94 231 94 219.5 89 c 128,-1,77
 208 84 208 84 195 86.5 c 128,-1,78
 182 89 182 89 166.5 100.5 c 128,-1,79
 151 112 151 112 130 134 c 0,80,81
 89 178 89 178 86 202 c 128,-1,82
 83 226 83 226 108 249 c 2,83,-1
 985 1083 l 2,64,65
EndSplineSet
EndChar
StartChar: ampersand
Encoding: 38 38 6
Width: 1228
Flags: W
LayerCount: 2
Back
Fore
SplineSet
1084 205 m 2,0,1
 1101 205 1101 205 1113 201 c 128,-1,2
 1125 197 1125 197 1132.5 185.5 c 128,-1,3
 1140 174 1140 174 1143.5 154 c 128,-1,4
 1147 134 1147 134 1147 102 c 256,5,6
 1147 70 1147 70 1143.5 50 c 128,-1,7
 1140 30 1140 30 1132.5 19 c 128,-1,8
 1125 8 1125 8 1113 4 c 128,-1,9
 1101 0 1101 0 1084 0 c 2,10,-1
 913 0 l 2,11,12
 873 0 873 0 841 33 c 2,13,-1
 776 100 l 1,14,15
 710 37 710 37 630.5 7.5 c 128,-1,16
 551 -22 551 -22 456 -22 c 0,17,18
 376 -22 376 -22 311.5 3 c 128,-1,19
 247 28 247 28 201.5 73.5 c 128,-1,20
 156 119 156 119 131.5 182 c 128,-1,21
 107 245 107 245 107 320 c 0,22,23
 107 417 107 417 152.5 490 c 128,-1,24
 198 563 198 563 287 622 c 1,25,26
 249 676 249 676 225.5 736.5 c 128,-1,27
 202 797 202 797 202 866 c 0,28,29
 202 940 202 940 228 1003 c 128,-1,30
 254 1066 254 1066 303 1111.5 c 128,-1,31
 352 1157 352 1157 423 1183 c 128,-1,32
 494 1209 494 1209 583 1209 c 0,33,34
 660 1209 660 1209 741.5 1185.5 c 128,-1,35
 823 1162 823 1162 912 1113 c 0,36,37
 934 1101 934 1101 944.5 1086.5 c 128,-1,38
 955 1072 955 1072 955 1051 c 2,39,-1
 955 854 l 2,40,41
 955 820 955 820 926 805.5 c 128,-1,42
 897 791 897 791 833 791 c 0,43,44
 801 791 801 791 780 794.5 c 128,-1,45
 759 798 759 798 747 805.5 c 128,-1,46
 735 813 735 813 730 825 c 128,-1,47
 725 837 725 837 725 854 c 2,48,-1
 725 956 l 1,49,50
 692 973 692 973 656 982.5 c 128,-1,51
 620 992 620 992 582 992 c 0,52,53
 526 992 526 992 491 956.5 c 128,-1,54
 456 921 456 921 456 861 c 0,55,56
 456 810 456 810 486 762.5 c 128,-1,57
 516 715 516 715 564 666 c 2,58,-1
 745 477 l 1,59,60
 757 506 757 506 769 537.5 c 128,-1,61
 781 569 781 569 792 603 c 0,62,63
 798 622 798 622 809.5 633.5 c 128,-1,64
 821 645 821 645 844 645 c 2,65,-1
 1064 645 l 2,66,67
 1081 645 1081 645 1093 641 c 128,-1,68
 1105 637 1105 637 1112.5 626 c 128,-1,69
 1120 615 1120 615 1123.5 595 c 128,-1,70
 1127 575 1127 575 1127 543 c 256,71,72
 1127 511 1127 511 1123.5 491 c 128,-1,73
 1120 471 1120 471 1112.5 459.5 c 128,-1,74
 1105 448 1105 448 1093 444 c 128,-1,75
 1081 440 1081 440 1064 440 c 2,76,-1
 973 440 l 1,77,78
 946 363 946 363 916 299 c 1,79,-1
 1007 205 l 1,80,-1
 1084 205 l 2,0,1
422 469 m 1,81,82
 389 439 389 439 372 405.5 c 128,-1,83
 355 372 355 372 355 330 c 0,84,85
 355 273 355 273 387.5 239 c 128,-1,86
 420 205 420 205 476 205 c 0,87,88
 517 205 517 205 551.5 220.5 c 128,-1,89
 586 236 586 236 617 266 c 1,90,-1
 422 469 l 1,81,82
EndSplineSet
EndChar
StartChar: quotesingle
Encoding: 39 39 7
Width: 1228
Flags: W
LayerCount: 2
Back
Fore
SplineSet
739 1209 m 2,0,1
 762 1209 762 1209 773 1197 c 128,-1,2
 784 1185 784 1185 780 1159 c 2,3,-1
 707 679 l 2,4,5
 702 648 702 648 682.5 629.5 c 128,-1,6
 663 611 663 611 614 611 c 256,7,8
 565 611 565 611 545.5 629.5 c 128,-1,9
 526 648 526 648 521 679 c 2,10,-1
 448 1159 l 2,11,12
 444 1185 444 1185 455 1197 c 128,-1,13
 466 1209 466 1209 489 1209 c 2,14,-1
 739 1209 l 2,0,1
EndSplineSet
EndChar
StartChar: parenleft
Encoding: 40 40 8
Width: 1228
Flags: W
LayerCount: 2
Back
Fore
SplineSet
771 -397 m 0,0,1
 676 -343 676 -343 583.5 -263.5 c 128,-1,2
 491 -184 491 -184 418.5 -77.5 c 128,-1,3
 346 29 346 29 301.5 163 c 128,-1,4
 257 297 257 297 257 459 c 256,5,6
 257 621 257 621 301.5 755 c 128,-1,7
 346 889 346 889 418.5 995.5 c 128,-1,8
 491 1102 491 1102 583.5 1181.5 c 128,-1,9
 676 1261 676 1261 771 1315 c 0,10,11
 801 1332 801 1332 833 1312.5 c 128,-1,12
 865 1293 865 1293 891 1255 c 0,13,14
 904 1235 904 1235 913 1214 c 128,-1,15
 922 1193 922 1193 925 1175 c 128,-1,16
 928 1157 928 1157 924.5 1142.5 c 128,-1,17
 921 1128 921 1128 909 1121 c 0,18,19
 812 1060 812 1060 737 990.5 c 128,-1,20
 662 921 662 921 610.5 839.5 c 128,-1,21
 559 758 559 758 532 663.5 c 128,-1,22
 505 569 505 569 505 459 c 256,23,24
 505 349 505 349 532 254.5 c 128,-1,25
 559 160 559 160 610.5 78.5 c 128,-1,26
 662 -3 662 -3 737 -72.5 c 128,-1,27
 812 -142 812 -142 909 -203 c 0,28,29
 921 -211 921 -211 924.5 -225 c 128,-1,30
 928 -239 928 -239 925 -257 c 128,-1,31
 922 -275 922 -275 913 -296 c 128,-1,32
 904 -317 904 -317 891 -337 c 0,33,34
 865 -375 865 -375 833 -394.5 c 128,-1,35
 801 -414 801 -414 771 -397 c 0,0,1
EndSplineSet
EndChar
StartChar: parenright
Encoding: 41 41 9
Width: 1228
Flags: W
LayerCount: 2
Back
Fore
SplineSet
457 -397 m 0,0,1
 427 -414 427 -414 395 -394.5 c 128,-1,2
 363 -375 363 -375 337 -337 c 0,3,4
 323 -317 323 -317 314 -296 c 128,-1,5
 305 -275 305 -275 302 -257 c 128,-1,6
 299 -239 299 -239 303 -225 c 128,-1,7
 307 -211 307 -211 319 -203 c 0,8,9
 416 -142 416 -142 491 -72.5 c 128,-1,10
 566 -3 566 -3 617.5 78.5 c 128,-1,11
 669 160 669 160 696 254.5 c 128,-1,12
 723 349 723 349 723 459 c 256,13,14
 723 569 723 569 696 663.5 c 128,-1,15
 669 758 669 758 617.5 839.5 c 128,-1,16
 566 921 566 921 491 990.5 c 128,-1,17
 416 1060 416 1060 319 1121 c 0,18,19
 307 1128 307 1128 303 1142.5 c 128,-1,20
 299 1157 299 1157 302 1175 c 128,-1,21
 305 1193 305 1193 314 1214 c 128,-1,22
 323 1235 323 1235 337 1255 c 0,23,24
 363 1293 363 1293 395 1312.5 c 128,-1,25
 427 1332 427 1332 457 1315 c 0,26,27
 552 1261 552 1261 644.5 1181.5 c 128,-1,28
 737 1102 737 1102 809.5 995.5 c 128,-1,29
 882 889 882 889 926.5 755 c 128,-1,30
 971 621 971 621 971 459 c 256,31,32
 971 297 971 297 926.5 163 c 128,-1,33
 882 29 882 29 809.5 -77.5 c 128,-1,34
 737 -184 737 -184 644.5 -263.5 c 128,-1,35
 552 -343 552 -343 457 -397 c 0,0,1
EndSplineSet
EndChar
StartChar: asterisk
Encoding: 42 42 10
Width: 1228
Flags: W
LayerCount: 2
Back
Fore
SplineSet
614 1209 m 0,0,1
 648 1209 648 1209 673 1197.5 c 128,-1,2
 698 1186 698 1186 713 1166.5 c 128,-1,3
 728 1147 728 1147 732 1122 c 128,-1,4
 736 1097 736 1097 730 1069 c 2,5,-1
 683 865 l 1,6,-1
 862 973 l 2,7,8
 886 988 886 988 911.5 991.5 c 128,-1,9
 937 995 937 995 960 987 c 128,-1,10
 983 979 983 979 1001.5 959 c 128,-1,11
 1020 939 1020 939 1031 906 c 0,12,13
 1041 873 1041 873 1038 846 c 128,-1,14
 1035 819 1035 819 1021.5 799.5 c 128,-1,15
 1008 780 1008 780 985 768 c 128,-1,16
 962 756 962 756 934 753 c 2,17,-1
 726 734 l 1,18,-1
 884 597 l 2,19,20
 905 578 905 578 916.5 555 c 128,-1,21
 928 532 928 532 927.5 508 c 128,-1,22
 927 484 927 484 914 460 c 128,-1,23
 901 436 901 436 873 415 c 0,24,25
 845 395 845 395 818.5 389.5 c 128,-1,26
 792 384 792 384 768.5 391 c 128,-1,27
 745 398 745 398 726.5 416 c 128,-1,28
 708 434 708 434 697 460 c 2,29,-1
 614 653 l 1,30,-1
 531 460 l 2,31,32
 520 434 520 434 501.5 416 c 128,-1,33
 483 398 483 398 459.5 391 c 128,-1,34
 436 384 436 384 409.5 389.5 c 128,-1,35
 383 395 383 395 355 415 c 0,36,37
 327 436 327 436 314 460 c 128,-1,38
 301 484 301 484 300.5 508 c 128,-1,39
 300 532 300 532 311.5 555 c 128,-1,40
 323 578 323 578 344 597 c 2,41,-1
 502 734 l 1,42,-1
 294 753 l 2,43,44
 265 756 265 756 242.5 768 c 128,-1,45
 220 780 220 780 206.5 799.5 c 128,-1,46
 193 819 193 819 189.5 846 c 128,-1,47
 186 873 186 873 197 906 c 256,48,49
 208 939 208 939 226.5 959 c 128,-1,50
 245 979 245 979 268 987 c 128,-1,51
 291 995 291 995 316.5 991.5 c 128,-1,52
 342 988 342 988 366 973 c 2,53,-1
 545 865 l 1,54,-1
 498 1069 l 2,55,56
 492 1097 492 1097 496 1122 c 128,-1,57
 500 1147 500 1147 515 1166.5 c 128,-1,58
 530 1186 530 1186 554.5 1197.5 c 128,-1,59
 579 1209 579 1209 614 1209 c 0,0,1
EndSplineSet
EndChar
StartChar: comma
Encoding: 44 44 12
Width: 1228
Flags: W
LayerCount: 2
Back
Fore
SplineSet
520 -253 m 2,0,1
 509 -274 509 -274 489 -284 c 128,-1,2
 469 -294 469 -294 434 -294 c 0,3,4
 392 -294 392 -294 370.5 -277 c 128,-1,5
 349 -260 349 -260 354 -228 c 2,6,-1
 448 314 l 2,7,8
 456 354 456 354 500 354 c 2,9,-1
 759 354 l 2,10,11
 784 354 784 354 792 335.5 c 128,-1,12
 800 317 800 317 787 291 c 2,13,-1
 520 -253 l 2,0,1
EndSplineSet
EndChar
StartChar: hyphen
Encoding: 45 45 13
Width: 1228
Flags: W
LayerCount: 2
Back
Fore
SplineSet
995 695 m 2,0,1
 1012 695 1012 695 1024 690.5 c 128,-1,2
 1036 686 1036 686 1043.5 674 c 128,-1,3
 1051 662 1051 662 1054.5 640 c 128,-1,4
 1058 618 1058 618 1058 582 c 256,5,6
 1058 546 1058 546 1054.5 524 c 128,-1,7
 1051 502 1051 502 1043.5 490 c 128,-1,8
 1036 478 1036 478 1024 474 c 128,-1,9
 1012 470 1012 470 995 470 c 2,10,-1
 233 470 l 2,11,12
 216 470 216 470 204 474 c 128,-1,13
 192 478 192 478 184.5 490 c 128,-1,14
 177 502 177 502 173.5 524 c 128,-1,15
 170 546 170 546 170 582 c 256,16,17
 170 618 170 618 173.5 640 c 128,-1,18
 177 662 177 662 184.5 674 c 128,-1,19
 192 686 192 686 204 690.5 c 128,-1,20
 216 695 216 695 233 695 c 2,21,-1
 995 695 l 2,0,1
EndSplineSet
EndChar
StartChar: period
Encoding: 46 46 14
Width: 1228
Flags: W
LayerCount: 2
Back
Fore
SplineSet
406 186 m 256,0,1
 406 229 406 229 422.5 267 c 128,-1,2
 439 305 439 305 467 333 c 128,-1,3
 495 361 495 361 533 377.5 c 128,-1,4
 571 394 571 394 614 394 c 256,5,6
 657 394 657 394 695 377.5 c 128,-1,7
 733 361 733 361 761 333 c 128,-1,8
 789 305 789 305 805.5 267 c 128,-1,9
 822 229 822 229 822 186 c 256,10,11
 822 143 822 143 805.5 105 c 128,-1,12
 789 67 789 67 761 39 c 128,-1,13
 733 11 733 11 695 -5.5 c 128,-1,14
 657 -22 657 -22 614 -22 c 256,15,16
 571 -22 571 -22 533 -5.5 c 128,-1,17
 495 11 495 11 467 39 c 128,-1,18
 439 67 439 67 422.5 105 c 128,-1,19
 406 143 406 143 406 186 c 256,0,1
EndSplineSet
EndChar
StartChar: slash
Encoding: 47 47 15
Width: 1228
Flags: W
LayerCount: 2
Back
Fore
SplineSet
395 -267 m 2,0,1
 387 -284 387 -284 366 -292 c 128,-1,2
 345 -300 345 -300 319 -300 c 0,3,4
 290 -300 290 -300 259 -291.5 c 128,-1,5
 228 -283 228 -283 204.5 -267.5 c 128,-1,6
 181 -252 181 -252 170 -230.5 c 128,-1,7
 159 -209 159 -209 171 -183 c 2,8,-1
 833 1305 l 2,9,10
 841 1322 841 1322 862.5 1330.5 c 128,-1,11
 884 1339 884 1339 911 1339 c 0,12,13
 940 1339 940 1339 970.5 1330.5 c 128,-1,14
 1001 1322 1001 1322 1024.5 1306.5 c 128,-1,15
 1048 1291 1048 1291 1058.5 1269.5 c 128,-1,16
 1069 1248 1069 1248 1057 1221 c 2,17,-1
 395 -267 l 2,0,1
EndSplineSet
EndChar
StartChar: zero
Encoding: 48 48 16
Width: 1228
Flags: W
LayerCount: 2
Back
Fore
SplineSet
1095 593 m 256,0,1
 1095 458 1095 458 1062 345 c 128,-1,2
 1029 232 1029 232 967 150.5 c 128,-1,3
 905 69 905 69 815.5 23.5 c 128,-1,4
 726 -22 726 -22 614 -22 c 0,5,6
 501 -22 501 -22 412 23.5 c 128,-1,7
 323 69 323 69 261 150.5 c 128,-1,8
 199 232 199 232 166 345 c 128,-1,9
 133 458 133 458 133 593 c 256,10,11
 133 728 133 728 166 841 c 128,-1,12
 199 954 199 954 261 1036 c 128,-1,13
 323 1118 323 1118 412 1163.5 c 128,-1,14
 501 1209 501 1209 614 1209 c 0,15,16
 726 1209 726 1209 815.5 1163.5 c 128,-1,17
 905 1118 905 1118 967 1036 c 128,-1,18
 1029 954 1029 954 1062 841 c 128,-1,19
 1095 728 1095 728 1095 593 c 256,0,1
827 593 m 256,20,21
 827 788 827 788 772 885 c 128,-1,22
 717 982 717 982 614 982 c 256,23,24
 511 982 511 982 456 885 c 128,-1,25
 401 788 401 788 401 593 c 256,26,27
 401 398 401 398 456 301.5 c 128,-1,28
 511 205 511 205 614 205 c 256,29,30
 717 205 717 205 772 301.5 c 128,-1,31
 827 398 827 398 827 593 c 256,20,21
EndSplineSet
EndChar
StartChar: one
Encoding: 49 49 17
Width: 1228
Flags: W
LayerCount: 2
Back
Fore
SplineSet
519 205 m 1,0,-1
 519 933 l 1,1,-1
 333 866 l 2,2,3
 317 860 317 860 304.5 860 c 128,-1,4
 292 860 292 860 280.5 867.5 c 128,-1,5
 269 875 269 875 259 892.5 c 128,-1,6
 249 910 249 910 238 940 c 0,7,8
 216 999 216 999 223.5 1023.5 c 128,-1,9
 231 1048 231 1048 263 1059 c 2,10,-1
 663 1205 l 2,11,12
 709 1222 709 1222 739 1201.5 c 128,-1,13
 769 1181 769 1181 769 1128 c 2,14,-1
 769 205 l 1,15,-1
 1005 205 l 2,16,17
 1022 205 1022 205 1034 201 c 128,-1,18
 1046 197 1046 197 1053.5 185.5 c 128,-1,19
 1061 174 1061 174 1064.5 154 c 128,-1,20
 1068 134 1068 134 1068 102 c 256,21,22
 1068 70 1068 70 1064.5 50 c 128,-1,23
 1061 30 1061 30 1053.5 19 c 128,-1,24
 1046 8 1046 8 1034 4 c 128,-1,25
 1022 0 1022 0 1005 0 c 2,26,-1
 273 0 l 2,27,28
 256 0 256 0 244 4 c 128,-1,29
 232 8 232 8 224.5 19 c 128,-1,30
 217 30 217 30 213.5 50 c 128,-1,31
 210 70 210 70 210 102 c 256,32,33
 210 134 210 134 213.5 154 c 128,-1,34
 217 174 217 174 224.5 185.5 c 128,-1,35
 232 197 232 197 244 201 c 128,-1,36
 256 205 256 205 273 205 c 2,37,-1
 519 205 l 1,0,-1
EndSplineSet
EndChar
StartChar: two
Encoding: 50 50 18
Width: 1228
Flags: W
LayerCount: 2
Back
Fore
SplineSet
830 215 m 1,0,-1
 830 307 l 2,1,2
 830 324 830 324 835 336 c 128,-1,3
 840 348 840 348 852 355.5 c 128,-1,4
 864 363 864 363 885 366.5 c 128,-1,5
 906 370 906 370 938 370 c 0,6,7
 1002 370 1002 370 1031 355.5 c 128,-1,8
 1060 341 1060 341 1060 307 c 2,9,-1
 1060 65 l 2,10,11
 1060 30 1060 30 1045 15 c 128,-1,12
 1030 0 1030 0 995 0 c 2,13,-1
 221 0 l 2,14,15
 204 0 204 0 192 4 c 128,-1,16
 180 8 180 8 172.5 19.5 c 128,-1,17
 165 31 165 31 161.5 51 c 128,-1,18
 158 71 158 71 158 103 c 0,19,20
 158 144 158 144 163 163.5 c 128,-1,21
 168 183 168 183 182 196 c 2,22,-1
 611 609 l 2,23,24
 651 648 651 648 679 679 c 128,-1,25
 707 710 707 710 724.5 736.5 c 128,-1,26
 742 763 742 763 749.5 787.5 c 128,-1,27
 757 812 757 812 757 839 c 0,28,29
 757 906 757 906 718 949 c 128,-1,30
 679 992 679 992 601 992 c 0,31,32
 554 992 554 992 510 980.5 c 128,-1,33
 466 969 466 969 428 950 c 1,34,-1
 428 810 l 2,35,36
 428 793 428 793 423 781 c 128,-1,37
 418 769 418 769 406 761.5 c 128,-1,38
 394 754 394 754 373 750.5 c 128,-1,39
 352 747 352 747 320 747 c 0,40,41
 256 747 256 747 227 761.5 c 128,-1,42
 198 776 198 776 198 810 c 2,43,-1
 198 1047 l 2,44,45
 198 1088 198 1088 241 1111 c 0,46,47
 332 1161 332 1161 423.5 1185 c 128,-1,48
 515 1209 515 1209 600 1209 c 0,49,50
 700 1209 700 1209 777 1182.5 c 128,-1,51
 854 1156 854 1156 906 1108 c 128,-1,52
 958 1060 958 1060 984.5 993 c 128,-1,53
 1011 926 1011 926 1011 844 c 0,54,55
 1011 792 1011 792 999.5 745.5 c 128,-1,56
 988 699 988 699 964 655 c 128,-1,57
 940 611 940 611 904.5 567.5 c 128,-1,58
 869 524 869 524 821 478 c 2,59,-1
 548 215 l 1,60,-1
 830 215 l 1,0,-1
EndSplineSet
EndChar
StartChar: three
Encoding: 51 51 19
Width: 1228
Flags: W
LayerCount: 2
Back
Fore
SplineSet
221 55 m 0,0,1
 192 70 192 70 184.5 101.5 c 128,-1,2
 177 133 177 133 200 191 c 256,3,4
 223 249 223 249 248 265 c 128,-1,5
 273 281 273 281 296 270 c 0,6,7
 360 240 360 240 429 222.5 c 128,-1,8
 498 205 498 205 564 205 c 0,9,10
 672 205 672 205 725 245 c 128,-1,11
 778 285 778 285 778 358 c 0,12,13
 778 430 778 430 735 466.5 c 128,-1,14
 692 503 692 503 608 503 c 2,15,-1
 505 503 l 2,16,17
 488 503 488 503 476 508 c 128,-1,18
 464 513 464 513 456.5 525 c 128,-1,19
 449 537 449 537 445.5 557.5 c 128,-1,20
 442 578 442 578 442 610 c 256,21,22
 442 642 442 642 445.5 663 c 128,-1,23
 449 684 449 684 456.5 696 c 128,-1,24
 464 708 464 708 476 713 c 128,-1,25
 488 718 488 718 505 718 c 2,26,-1
 581 718 l 2,27,28
 670 718 670 718 713.5 750.5 c 128,-1,29
 757 783 757 783 757 854 c 0,30,31
 757 992 757 992 591 992 c 0,32,33
 546 992 546 992 508.5 985.5 c 128,-1,34
 471 979 471 979 438 969 c 1,35,-1
 438 890 l 2,36,37
 438 873 438 873 433 861 c 128,-1,38
 428 849 428 849 416 841.5 c 128,-1,39
 404 834 404 834 383 830.5 c 128,-1,40
 362 827 362 827 330 827 c 0,41,42
 266 827 266 827 237 841.5 c 128,-1,43
 208 856 208 856 208 890 c 2,44,-1
 208 1077 l 2,45,46
 208 1122 208 1122 257 1141 c 0,47,48
 335 1173 335 1173 420 1191 c 128,-1,49
 505 1209 505 1209 590 1209 c 0,50,51
 791 1209 791 1209 901 1122 c 128,-1,52
 1011 1035 1011 1035 1011 869 c 0,53,54
 1011 778 1011 778 973.5 718.5 c 128,-1,55
 936 659 936 659 870 624 c 1,56,57
 951 587 951 587 998.5 521 c 128,-1,58
 1046 455 1046 455 1046 356 c 0,59,60
 1046 261 1046 261 1012.5 190 c 128,-1,61
 979 119 979 119 916.5 72 c 128,-1,62
 854 25 854 25 765 1.5 c 128,-1,63
 676 -22 676 -22 564 -22 c 0,64,65
 471 -22 471 -22 383.5 -3.5 c 128,-1,66
 296 15 296 15 221 55 c 0,0,1
EndSplineSet
EndChar
StartChar: four
Encoding: 52 52 20
Width: 1228
Flags: W
LayerCount: 2
Back
Fore
SplineSet
613 370 m 1,0,-1
 183 370 l 2,1,2
 166 370 166 370 154 374 c 128,-1,3
 142 378 142 378 134.5 389 c 128,-1,4
 127 400 127 400 123.5 420 c 128,-1,5
 120 440 120 440 120 472 c 0,6,7
 120 508 120 508 125 529 c 128,-1,8
 130 550 130 550 139 561 c 2,9,-1
 609 1140 l 2,10,11
 635 1173 635 1173 670 1191 c 128,-1,12
 705 1209 705 1209 758 1209 c 0,13,14
 789 1209 789 1209 809 1202.5 c 128,-1,15
 829 1196 829 1196 841 1184 c 128,-1,16
 853 1172 853 1172 858 1155.5 c 128,-1,17
 863 1139 863 1139 863 1119 c 2,18,-1
 863 575 l 1,19,-1
 1035 575 l 2,20,21
 1052 575 1052 575 1064 571 c 128,-1,22
 1076 567 1076 567 1083.5 555.5 c 128,-1,23
 1091 544 1091 544 1094.5 524 c 128,-1,24
 1098 504 1098 504 1098 472 c 256,25,26
 1098 440 1098 440 1094.5 420 c 128,-1,27
 1091 400 1091 400 1083.5 389 c 128,-1,28
 1076 378 1076 378 1064 374 c 128,-1,29
 1052 370 1052 370 1035 370 c 2,30,-1
 863 370 l 1,31,-1
 863 205 l 1,32,-1
 1005 205 l 2,33,34
 1022 205 1022 205 1034 201 c 128,-1,35
 1046 197 1046 197 1053.5 185.5 c 128,-1,36
 1061 174 1061 174 1064.5 154 c 128,-1,37
 1068 134 1068 134 1068 102 c 256,38,39
 1068 70 1068 70 1064.5 50 c 128,-1,40
 1061 30 1061 30 1053.5 19 c 128,-1,41
 1046 8 1046 8 1034 4 c 128,-1,42
 1022 0 1022 0 1005 0 c 2,43,-1
 443 0 l 2,44,45
 426 0 426 0 414 4 c 128,-1,46
 402 8 402 8 394.5 19 c 128,-1,47
 387 30 387 30 383.5 50 c 128,-1,48
 380 70 380 70 380 102 c 256,49,50
 380 134 380 134 383.5 154 c 128,-1,51
 387 174 387 174 394.5 185.5 c 128,-1,52
 402 197 402 197 414 201 c 128,-1,53
 426 205 426 205 443 205 c 2,54,-1
 613 205 l 1,55,-1
 613 370 l 1,0,-1
622 575 m 1,56,-1
 638 867 l 1,57,-1
 403 575 l 1,58,-1
 622 575 l 1,56,-1
EndSplineSet
EndChar
StartChar: five
Encoding: 53 53 21
Width: 1228
Flags: W
LayerCount: 2
Back
Fore
SplineSet
289 282 m 0,0,1
 357 248 357 248 430 226.5 c 128,-1,2
 503 205 503 205 574 205 c 0,3,4
 619 205 619 205 656.5 217 c 128,-1,5
 694 229 694 229 721 252 c 128,-1,6
 748 275 748 275 763 308.5 c 128,-1,7
 778 342 778 342 778 386 c 0,8,9
 778 467 778 467 733 513 c 128,-1,10
 688 559 688 559 604 559 c 0,11,12
 553 559 553 559 504 549 c 128,-1,13
 455 539 455 539 412 523 c 0,14,15
 392 515 392 515 370 511 c 128,-1,16
 348 507 348 507 330 507 c 0,17,18
 265 507 265 507 239 522 c 128,-1,19
 213 537 213 537 215 572 c 2,20,-1
 248 1122 l 2,21,22
 250 1157 250 1157 264 1172 c 128,-1,23
 278 1187 278 1187 313 1187 c 2,24,-1
 921 1187 l 2,25,26
 938 1187 938 1187 950 1182 c 128,-1,27
 962 1177 962 1177 969.5 1165 c 128,-1,28
 977 1153 977 1153 980.5 1132 c 128,-1,29
 984 1111 984 1111 984 1079 c 256,30,31
 984 1047 984 1047 980.5 1026.5 c 128,-1,32
 977 1006 977 1006 969.5 994 c 128,-1,33
 962 982 962 982 950 977 c 128,-1,34
 938 972 938 972 921 972 c 2,35,-1
 479 972 l 1,36,-1
 465 749 l 1,37,38
 512 767 512 767 559.5 776.5 c 128,-1,39
 607 786 607 786 657 786 c 0,40,41
 752 786 752 786 825 756.5 c 128,-1,42
 898 727 898 727 947 673.5 c 128,-1,43
 996 620 996 620 1021 546.5 c 128,-1,44
 1046 473 1046 473 1046 386 c 0,45,46
 1046 283 1046 283 1012.5 206.5 c 128,-1,47
 979 130 979 130 917.5 79 c 128,-1,48
 856 28 856 28 769 3 c 128,-1,49
 682 -22 682 -22 574 -22 c 0,50,51
 478 -22 478 -22 385 1.5 c 128,-1,52
 292 25 292 25 214 67 c 0,53,54
 185 83 185 83 177.5 114 c 128,-1,55
 170 145 170 145 193 203 c 256,56,57
 216 261 216 261 241 277 c 128,-1,58
 266 293 266 293 289 282 c 0,0,1
EndSplineSet
EndChar
StartChar: six
Encoding: 54 54 22
Width: 1228
Flags: W
LayerCount: 2
Back
Fore
SplineSet
631 -22 m 0,0,1
 502 -22 502 -22 406 30 c 128,-1,2
 310 82 310 82 246 176 c 0,3,4
 204 237 204 237 182 323.5 c 128,-1,5
 160 410 160 410 160 512 c 0,6,7
 160 670 160 670 212.5 796 c 128,-1,8
 265 922 265 922 368.5 1011 c 128,-1,9
 472 1100 472 1100 624.5 1150.5 c 128,-1,10
 777 1201 777 1201 977 1209 c 0,11,12
 1003 1210 1003 1210 1017.5 1184.5 c 128,-1,13
 1032 1159 1032 1159 1037 1102 c 0,14,15
 1044 1033 1044 1033 1032.5 1001 c 128,-1,16
 1021 969 1021 969 998 967 c 0,17,18
 861 960 861 960 759.5 937.5 c 128,-1,19
 658 915 658 915 587.5 874 c 128,-1,20
 517 833 517 833 476 771 c 128,-1,21
 435 709 435 709 420 624 c 1,22,23
 475 685 475 685 541.5 713 c 128,-1,24
 608 741 608 741 695 741 c 0,25,26
 779 741 779 741 849.5 713.5 c 128,-1,27
 920 686 920 686 970.5 636.5 c 128,-1,28
 1021 587 1021 587 1049.5 518 c 128,-1,29
 1078 449 1078 449 1078 366 c 0,30,31
 1078 281 1078 281 1044.5 209.5 c 128,-1,32
 1011 138 1011 138 952 86.5 c 128,-1,33
 893 35 893 35 810.5 6.5 c 128,-1,34
 728 -22 728 -22 631 -22 c 0,0,1
440 371 m 0,35,36
 440 337 440 337 452.5 306 c 128,-1,37
 465 275 465 275 489.5 252 c 128,-1,38
 514 229 514 229 549.5 215 c 128,-1,39
 585 201 585 201 630 201 c 0,40,41
 673 201 673 201 708 212.5 c 128,-1,42
 743 224 743 224 768 245 c 128,-1,43
 793 266 793 266 806.5 296.5 c 128,-1,44
 820 327 820 327 820 365 c 0,45,46
 820 443 820 443 771.5 486 c 128,-1,47
 723 529 723 529 638 529 c 0,48,49
 594 529 594 529 557.5 517.5 c 128,-1,50
 521 506 521 506 495 485 c 128,-1,51
 469 464 469 464 454.5 435 c 128,-1,52
 440 406 440 406 440 371 c 0,35,36
EndSplineSet
EndChar
StartChar: seven
Encoding: 55 55 23
Width: 1228
Flags: W
LayerCount: 2
Back
Fore
SplineSet
654 24 m 2,0,1
 647 7 647 7 632 -3 c 128,-1,2
 617 -13 617 -13 597 -17.5 c 128,-1,3
 577 -22 577 -22 554.5 -21.5 c 128,-1,4
 532 -21 532 -21 510 -16 c 0,5,6
 486 -10 486 -10 464 0.5 c 128,-1,7
 442 11 442 11 428 25.5 c 128,-1,8
 414 40 414 40 408.5 58 c 128,-1,9
 403 76 403 76 412 97 c 2,10,-1
 784 972 l 1,11,-1
 418 972 l 1,12,-1
 418 760 l 2,13,14
 418 743 418 743 413 731 c 128,-1,15
 408 719 408 719 396 711.5 c 128,-1,16
 384 704 384 704 363 700.5 c 128,-1,17
 342 697 342 697 310 697 c 0,18,19
 246 697 246 697 217 711.5 c 128,-1,20
 188 726 188 726 188 760 c 2,21,-1
 188 1122 l 2,22,23
 188 1157 188 1157 203 1172 c 128,-1,24
 218 1187 218 1187 253 1187 c 2,25,-1
 1017 1187 l 2,26,27
 1034 1187 1034 1187 1046 1183 c 128,-1,28
 1058 1179 1058 1179 1065.5 1167.5 c 128,-1,29
 1073 1156 1073 1156 1076.5 1136 c 128,-1,30
 1080 1116 1080 1116 1080 1084 c 0,31,32
 1080 1034 1080 1034 1071 1012 c 2,33,-1
 654 24 l 2,0,1
EndSplineSet
EndChar
StartChar: eight
Encoding: 56 56 24
Width: 1228
Flags: W
LayerCount: 2
Back
Fore
SplineSet
210 871 m 0,0,1
 210 940 210 940 237.5 1001.5 c 128,-1,2
 265 1063 265 1063 317.5 1109 c 128,-1,3
 370 1155 370 1155 444.5 1182 c 128,-1,4
 519 1209 519 1209 614 1209 c 0,5,6
 708 1209 708 1209 783 1182 c 128,-1,7
 858 1155 858 1155 910.5 1109 c 128,-1,8
 963 1063 963 1063 990.5 1001.5 c 128,-1,9
 1018 940 1018 940 1018 871 c 0,10,11
 1018 775 1018 775 973.5 713.5 c 128,-1,12
 929 652 929 652 855 619 c 1,13,14
 900 602 900 602 937.5 576.5 c 128,-1,15
 975 551 975 551 1001.5 516 c 128,-1,16
 1028 481 1028 481 1042.5 436 c 128,-1,17
 1057 391 1057 391 1057 335 c 0,18,19
 1057 251 1057 251 1025 184.5 c 128,-1,20
 993 118 993 118 934.5 72.5 c 128,-1,21
 876 27 876 27 794.5 2.5 c 128,-1,22
 713 -22 713 -22 614 -22 c 256,23,24
 515 -22 515 -22 433.5 2.5 c 128,-1,25
 352 27 352 27 293.5 72.5 c 128,-1,26
 235 118 235 118 203 184.5 c 128,-1,27
 171 251 171 251 171 335 c 0,28,29
 171 391 171 391 185.5 436 c 128,-1,30
 200 481 200 481 226.5 516 c 128,-1,31
 253 551 253 551 290 576.5 c 128,-1,32
 327 602 327 602 373 619 c 1,33,34
 298 652 298 652 254 713.5 c 128,-1,35
 210 775 210 775 210 871 c 0,0,1
436 356 m 256,36,37
 436 284 436 284 481 240 c 128,-1,38
 526 196 526 196 614 196 c 256,39,40
 702 196 702 196 747 240 c 128,-1,41
 792 284 792 284 792 356 c 256,42,43
 792 428 792 428 747 473 c 128,-1,44
 702 518 702 518 614 518 c 256,45,46
 526 518 526 518 481 473 c 128,-1,47
 436 428 436 428 436 356 c 256,36,37
614 712 m 256,48,49
 688 712 688 712 728.5 750 c 128,-1,50
 769 788 769 788 769 851 c 256,51,52
 769 914 769 914 727.5 952.5 c 128,-1,53
 686 991 686 991 614 991 c 256,54,55
 542 991 542 991 500.5 952.5 c 128,-1,56
 459 914 459 914 459 851 c 256,57,58
 459 788 459 788 499.5 750 c 128,-1,59
 540 712 540 712 614 712 c 256,48,49
EndSplineSet
EndChar
StartChar: nine
Encoding: 57 57 25
Width: 1228
Flags: W
LayerCount: 2
Back
Fore
SplineSet
808 563 m 1,0,1
 753 502 753 502 686.5 474 c 128,-1,2
 620 446 620 446 533 446 c 0,3,4
 449 446 449 446 378.5 473.5 c 128,-1,5
 308 501 308 501 257.5 550.5 c 128,-1,6
 207 600 207 600 178.5 669 c 128,-1,7
 150 738 150 738 150 821 c 0,8,9
 150 906 150 906 183.5 977.5 c 128,-1,10
 217 1049 217 1049 276 1100.5 c 128,-1,11
 335 1152 335 1152 417 1180.5 c 128,-1,12
 499 1209 499 1209 597 1209 c 0,13,14
 726 1209 726 1209 822 1157 c 128,-1,15
 918 1105 918 1105 982 1011 c 0,16,17
 1024 950 1024 950 1046 863.5 c 128,-1,18
 1068 777 1068 777 1068 675 c 0,19,20
 1068 517 1068 517 1024.5 391 c 128,-1,21
 981 265 981 265 889 176 c 128,-1,22
 797 87 797 87 654 36.5 c 128,-1,23
 511 -14 511 -14 311 -22 c 0,24,25
 285 -23 285 -23 270.5 2.5 c 128,-1,26
 256 28 256 28 251 85 c 0,27,28
 244 154 244 154 255.5 186 c 128,-1,29
 267 218 267 218 290 220 c 0,30,31
 426 227 426 227 520 249.5 c 128,-1,32
 614 272 614 272 674.5 313 c 128,-1,33
 735 354 735 354 766 416 c 128,-1,34
 797 478 797 478 808 563 c 1,0,1
788 816 m 0,35,36
 788 850 788 850 775.5 881 c 128,-1,37
 763 912 763 912 738.5 935 c 128,-1,38
 714 958 714 958 678.5 972 c 128,-1,39
 643 986 643 986 598 986 c 0,40,41
 555 986 555 986 520 974.5 c 128,-1,42
 485 963 485 963 460 942 c 128,-1,43
 435 921 435 921 421.5 890.5 c 128,-1,44
 408 860 408 860 408 822 c 0,45,46
 408 744 408 744 456.5 701 c 128,-1,47
 505 658 505 658 590 658 c 0,48,49
 634 658 634 658 670.5 669.5 c 128,-1,50
 707 681 707 681 733 702 c 128,-1,51
 759 723 759 723 773.5 752 c 128,-1,52
 788 781 788 781 788 816 c 0,35,36
EndSplineSet
EndChar
StartChar: colon
Encoding: 58 58 26
Width: 1228
Flags: W
LayerCount: 2
Back
Fore
SplineSet
419 751 m 0,0,1
 419 791 419 791 434.5 827 c 128,-1,2
 450 863 450 863 476 889 c 128,-1,3
 502 915 502 915 537.5 930.5 c 128,-1,4
 573 946 573 946 614 946 c 0,5,6
 654 946 654 946 690 930.5 c 128,-1,7
 726 915 726 915 752 889 c 128,-1,8
 778 863 778 863 793.5 827 c 128,-1,9
 809 791 809 791 809 751 c 0,10,11
 809 710 809 710 793.5 674.5 c 128,-1,12
 778 639 778 639 752 613 c 128,-1,13
 726 587 726 587 690 571.5 c 128,-1,14
 654 556 654 556 614 556 c 0,15,16
 573 556 573 556 537.5 571.5 c 128,-1,17
 502 587 502 587 476 613 c 128,-1,18
 450 639 450 639 434.5 674.5 c 128,-1,19
 419 710 419 710 419 751 c 0,0,1
419 173 m 0,20,21
 419 213 419 213 434.5 249 c 128,-1,22
 450 285 450 285 476 311 c 128,-1,23
 502 337 502 337 537.5 352.5 c 128,-1,24
 573 368 573 368 614 368 c 0,25,26
 654 368 654 368 690 352.5 c 128,-1,27
 726 337 726 337 752 311 c 128,-1,28
 778 285 778 285 793.5 249 c 128,-1,29
 809 213 809 213 809 173 c 0,30,31
 809 132 809 132 793.5 96.5 c 128,-1,32
 778 61 778 61 752 35 c 128,-1,33
 726 9 726 9 690 -6.5 c 128,-1,34
 654 -22 654 -22 614 -22 c 0,35,36
 573 -22 573 -22 537.5 -6.5 c 128,-1,37
 502 9 502 9 476 35 c 128,-1,38
 450 61 450 61 434.5 96.5 c 128,-1,39
 419 132 419 132 419 173 c 0,20,21
EndSplineSet
EndChar
StartChar: semicolon
Encoding: 59 59 27
Width: 1228
Flags: W
LayerCount: 2
Back
Fore
SplineSet
419 751 m 0,0,1
 419 791 419 791 434.5 827 c 128,-1,2
 450 863 450 863 476 889 c 128,-1,3
 502 915 502 915 537.5 930.5 c 128,-1,4
 573 946 573 946 614 946 c 0,5,6
 654 946 654 946 690 930.5 c 128,-1,7
 726 915 726 915 752 889 c 128,-1,8
 778 863 778 863 793.5 827 c 128,-1,9
 809 791 809 791 809 751 c 0,10,11
 809 710 809 710 793.5 674.5 c 128,-1,12
 778 639 778 639 752 613 c 128,-1,13
 726 587 726 587 690 571.5 c 128,-1,14
 654 556 654 556 614 556 c 0,15,16
 573 556 573 556 537.5 571.5 c 128,-1,17
 502 587 502 587 476 613 c 128,-1,18
 450 639 450 639 434.5 674.5 c 128,-1,19
 419 710 419 710 419 751 c 0,0,1
520 -253 m 2,20,21
 509 -274 509 -274 489 -284 c 128,-1,22
 469 -294 469 -294 434 -294 c 0,23,24
 392 -294 392 -294 370.5 -277 c 128,-1,25
 349 -260 349 -260 354 -228 c 2,26,-1
 448 314 l 2,27,28
 456 354 456 354 500 354 c 2,29,-1
 759 354 l 2,30,31
 784 354 784 354 792 335.5 c 128,-1,32
 800 317 800 317 787 291 c 2,33,-1
 520 -253 l 2,20,21
EndSplineSet
EndChar
StartChar: less
Encoding: 60 60 28
Width: 1228
Flags: W
LayerCount: 2
Back
Fore
SplineSet
1046 291 m 2,0,1
 1078 275 1078 275 1082 245 c 128,-1,2
 1086 215 1086 215 1056 155 c 0,3,4
 1041 125 1041 125 1027.5 107.5 c 128,-1,5
 1014 90 1014 90 1001 83 c 128,-1,6
 988 76 988 76 974.5 77.5 c 128,-1,7
 961 79 961 79 946 87 c 2,8,-1
 166 489 l 2,9,10
 142 501 142 501 131 520.5 c 128,-1,11
 120 540 120 540 120 583 c 256,12,13
 120 626 120 626 131 645.5 c 128,-1,14
 142 665 142 665 166 677 c 2,15,-1
 946 1079 l 2,16,17
 961 1087 961 1087 974.5 1088.5 c 128,-1,18
 988 1090 988 1090 1001 1083 c 128,-1,19
 1014 1076 1014 1076 1027.5 1058.5 c 128,-1,20
 1041 1041 1041 1041 1056 1011 c 0,21,22
 1086 951 1086 951 1082 921 c 128,-1,23
 1078 891 1078 891 1046 875 c 2,24,-1
 461 583 l 1,25,-1
 1046 291 l 2,0,1
EndSplineSet
EndChar
StartChar: equal
Encoding: 61 61 29
Width: 1228
Flags: W
LayerCount: 2
Back
Fore
SplineSet
995 924 m 2,0,1
 1012 924 1012 924 1024 919.5 c 128,-1,2
 1036 915 1036 915 1043.5 903 c 128,-1,3
 1051 891 1051 891 1054.5 869 c 128,-1,4
 1058 847 1058 847 1058 811 c 256,5,6
 1058 775 1058 775 1054.5 753 c 128,-1,7
 1051 731 1051 731 1043.5 719 c 128,-1,8
 1036 707 1036 707 1024 703 c 128,-1,9
 1012 699 1012 699 995 699 c 2,10,-1
 233 699 l 2,11,12
 216 699 216 699 204 703 c 128,-1,13
 192 707 192 707 184.5 719 c 128,-1,14
 177 731 177 731 173.5 753 c 128,-1,15
 170 775 170 775 170 811 c 256,16,17
 170 847 170 847 173.5 869 c 128,-1,18
 177 891 177 891 184.5 903 c 128,-1,19
 192 915 192 915 204 919.5 c 128,-1,20
 216 924 216 924 233 924 c 2,21,-1
 995 924 l 2,0,1
995 466 m 2,22,23
 1012 466 1012 466 1024 461.5 c 128,-1,24
 1036 457 1036 457 1043.5 445 c 128,-1,25
 1051 433 1051 433 1054.5 411 c 128,-1,26
 1058 389 1058 389 1058 353 c 256,27,28
 1058 317 1058 317 1054.5 295 c 128,-1,29
 1051 273 1051 273 1043.5 261 c 128,-1,30
 1036 249 1036 249 1024 245 c 128,-1,31
 1012 241 1012 241 995 241 c 2,32,-1
 233 241 l 2,33,34
 216 241 216 241 204 245 c 128,-1,35
 192 249 192 249 184.5 261 c 128,-1,36
 177 273 177 273 173.5 295 c 128,-1,37
 170 317 170 317 170 353 c 256,38,39
 170 389 170 389 173.5 411 c 128,-1,40
 177 433 177 433 184.5 445 c 128,-1,41
 192 457 192 457 204 461.5 c 128,-1,42
 216 466 216 466 233 466 c 2,43,-1
 995 466 l 2,22,23
EndSplineSet
EndChar
StartChar: greater
Encoding: 62 62 30
Width: 1228
Flags: W
LayerCount: 2
Back
Fore
SplineSet
182 875 m 2,0,1
 150 891 150 891 146 921 c 128,-1,2
 142 951 142 951 172 1011 c 0,3,4
 187 1041 187 1041 200.5 1058.5 c 128,-1,5
 214 1076 214 1076 227 1083 c 128,-1,6
 240 1090 240 1090 253.5 1088.5 c 128,-1,7
 267 1087 267 1087 282 1079 c 2,8,-1
 1062 677 l 2,9,10
 1086 665 1086 665 1097 645.5 c 128,-1,11
 1108 626 1108 626 1108 583 c 256,12,13
 1108 540 1108 540 1097 520.5 c 128,-1,14
 1086 501 1086 501 1062 489 c 2,15,-1
 282 87 l 2,16,17
 267 79 267 79 253.5 77.5 c 128,-1,18
 240 76 240 76 227 83 c 128,-1,19
 214 90 214 90 200.5 107.5 c 128,-1,20
 187 125 187 125 172 155 c 0,21,22
 142 215 142 215 146 245 c 128,-1,23
 150 275 150 275 182 291 c 2,24,-1
 767 583 l 1,25,-1
 182 875 l 2,0,1
EndSplineSet
EndChar
StartChar: question
Encoding: 63 63 31
Width: 1228
Flags: W
LayerCount: 2
Back
Fore
SplineSet
685 467 m 2,0,1
 684 455 684 455 679 446 c 128,-1,2
 674 437 674 437 662.5 431 c 128,-1,3
 651 425 651 425 632 422 c 128,-1,4
 613 419 613 419 584 419 c 256,5,6
 555 419 555 419 536 422 c 128,-1,7
 517 425 517 425 505.5 431 c 128,-1,8
 494 437 494 437 489 446 c 128,-1,9
 484 455 484 455 483 467 c 2,10,-1
 465 675 l 2,11,12
 463 695 463 695 469.5 709 c 128,-1,13
 476 723 476 723 495 726 c 2,14,-1
 605 744 l 2,15,16
 679 756 679 756 713 785.5 c 128,-1,17
 747 815 747 815 747 869 c 0,18,19
 747 929 747 929 708 960.5 c 128,-1,20
 669 992 669 992 591 992 c 0,21,22
 550 992 550 992 511.5 984 c 128,-1,23
 473 976 473 976 438 962 c 1,24,-1
 438 860 l 2,25,26
 438 843 438 843 433 831 c 128,-1,27
 428 819 428 819 416 811.5 c 128,-1,28
 404 804 404 804 383 800.5 c 128,-1,29
 362 797 362 797 330 797 c 0,30,31
 266 797 266 797 237 811.5 c 128,-1,32
 208 826 208 826 208 860 c 2,33,-1
 208 1060 l 2,34,35
 208 1101 208 1101 249 1121 c 0,36,37
 332 1160 332 1160 418.5 1184.5 c 128,-1,38
 505 1209 505 1209 590 1209 c 0,39,40
 690 1209 690 1209 767 1186 c 128,-1,41
 844 1163 844 1163 896 1119.5 c 128,-1,42
 948 1076 948 1076 974.5 1014 c 128,-1,43
 1001 952 1001 952 1001 874 c 0,44,45
 1001 805 1001 805 981.5 754 c 128,-1,46
 962 703 962 703 924 665 c 128,-1,47
 886 627 886 627 828 600 c 128,-1,48
 770 573 770 573 694 553 c 1,49,-1
 685 467 l 2,0,1
413 149 m 0,50,51
 413 185 413 185 426.5 216 c 128,-1,52
 440 247 440 247 463 270.5 c 128,-1,53
 486 294 486 294 517.5 307.5 c 128,-1,54
 549 321 549 321 584 321 c 0,55,56
 620 321 620 321 651 307.5 c 128,-1,57
 682 294 682 294 705 270.5 c 128,-1,58
 728 247 728 247 741.5 216 c 128,-1,59
 755 185 755 185 755 149 c 0,60,61
 755 114 755 114 741.5 82.5 c 128,-1,62
 728 51 728 51 705 28 c 128,-1,63
 682 5 682 5 651 -8.5 c 128,-1,64
 620 -22 620 -22 584 -22 c 256,65,66
 548 -22 548 -22 517 -8.5 c 128,-1,67
 486 5 486 5 463 28 c 128,-1,68
 440 51 440 51 426.5 82.5 c 128,-1,69
 413 114 413 114 413 149 c 0,50,51
EndSplineSet
EndChar
StartChar: at
Encoding: 64 64 32
Width: 1228
Flags: W
LayerCount: 2
Back
Fore
SplineSet
704 261 m 1,0,1
 669 196 669 196 621 156.5 c 128,-1,2
 573 117 573 117 507 117 c 0,3,4
 466 117 466 117 432 132.5 c 128,-1,5
 398 148 398 148 373 178.5 c 128,-1,6
 348 209 348 209 334.5 254 c 128,-1,7
 321 299 321 299 321 357 c 0,8,9
 321 435 321 435 346.5 513.5 c 128,-1,10
 372 592 372 592 415 656 c 128,-1,11
 458 720 458 720 515.5 760 c 128,-1,12
 573 800 573 800 638 800 c 0,13,14
 691 800 691 800 720.5 767.5 c 128,-1,15
 750 735 750 735 766 685 c 1,16,-1
 799 754 l 2,17,18
 804 762 804 762 824.5 762.5 c 128,-1,19
 845 763 845 763 868 757 c 0,20,21
 892 750 892 750 908 740 c 128,-1,22
 924 730 924 730 920 716 c 2,23,-1
 848 404 l 2,24,25
 840 372 840 372 840.5 348 c 128,-1,26
 841 324 841 324 848.5 308.5 c 128,-1,27
 856 293 856 293 868.5 285.5 c 128,-1,28
 881 278 881 278 897 278 c 0,29,30
 925 278 925 278 949.5 295.5 c 128,-1,31
 974 313 974 313 992 346 c 128,-1,32
 1010 379 1010 379 1020 426 c 128,-1,33
 1030 473 1030 473 1030 531 c 0,34,35
 1030 619 1030 619 1004.5 692 c 128,-1,36
 979 765 979 765 930.5 816.5 c 128,-1,37
 882 868 882 868 812.5 896.5 c 128,-1,38
 743 925 743 925 655 925 c 0,39,40
 553 925 553 925 468.5 883 c 128,-1,41
 384 841 384 841 323.5 768 c 128,-1,42
 263 695 263 695 229.5 597.5 c 128,-1,43
 196 500 196 500 196 389 c 0,44,45
 196 302 196 302 220 230.5 c 128,-1,46
 244 159 244 159 290.5 108 c 128,-1,47
 337 57 337 57 404.5 28.5 c 128,-1,48
 472 0 472 0 560 0 c 0,49,50
 640 0 640 0 703.5 11.5 c 128,-1,51
 767 23 767 23 818 40 c 0,52,53
 835 46 835 46 849.5 36 c 128,-1,54
 864 26 864 26 875 -17 c 0,55,56
 886 -61 886 -61 880 -77.5 c 128,-1,57
 874 -94 874 -94 858 -101 c 0,58,59
 832 -113 832 -113 798 -122.5 c 128,-1,60
 764 -132 764 -132 725 -138.5 c 128,-1,61
 686 -145 686 -145 644.5 -149 c 128,-1,62
 603 -153 603 -153 562 -153 c 0,63,64
 438 -153 438 -153 340 -115 c 128,-1,65
 242 -77 242 -77 173.5 -6.5 c 128,-1,66
 105 64 105 64 69 164.5 c 128,-1,67
 33 265 33 265 33 389 c 0,68,69
 33 486 33 486 54.5 575 c 128,-1,70
 76 664 76 664 115.5 740.5 c 128,-1,71
 155 817 155 817 211 879 c 128,-1,72
 267 941 267 941 337 985.5 c 128,-1,73
 407 1030 407 1030 488.5 1054 c 128,-1,74
 570 1078 570 1078 660 1078 c 0,75,76
 780 1078 780 1078 877.5 1037 c 128,-1,77
 975 996 975 996 1043.5 923.5 c 128,-1,78
 1112 851 1112 851 1149.5 750.5 c 128,-1,79
 1187 650 1187 650 1187 531 c 0,80,81
 1187 433 1187 433 1163.5 357 c 128,-1,82
 1140 281 1140 281 1099 228.5 c 128,-1,83
 1058 176 1058 176 1002 149 c 128,-1,84
 946 122 946 122 881 122 c 0,85,86
 809 122 809 122 765 161 c 128,-1,87
 721 200 721 200 704 261 c 1,0,1
496 379 m 0,88,89
 496 330 496 330 514.5 305.5 c 128,-1,90
 533 281 533 281 562 281 c 0,91,92
 589 281 589 281 615.5 309 c 128,-1,93
 642 337 642 337 663 377 c 128,-1,94
 684 417 684 417 697 462 c 128,-1,95
 710 507 710 507 710 541 c 0,96,97
 710 588 710 588 694.5 615.5 c 128,-1,98
 679 643 679 643 644 643 c 0,99,100
 620 643 620 643 594 620 c 128,-1,101
 568 597 568 597 546.5 559.5 c 128,-1,102
 525 522 525 522 510.5 474.5 c 128,-1,103
 496 427 496 427 496 379 c 0,88,89
EndSplineSet
EndChar
StartChar: A
Encoding: 65 65 33
Width: 1228
Flags: W
LayerCount: 2
Back
Fore
SplineSet
390 982 m 1,0,-1
 223 982 l 2,1,2
 206 982 206 982 194 986 c 128,-1,3
 182 990 182 990 174.5 1001.5 c 128,-1,4
 167 1013 167 1013 163.5 1033 c 128,-1,5
 160 1053 160 1053 160 1085 c 256,6,7
 160 1117 160 1117 163.5 1137 c 128,-1,8
 167 1157 167 1157 174.5 1168 c 128,-1,9
 182 1179 182 1179 194 1183 c 128,-1,10
 206 1187 206 1187 223 1187 c 2,11,-1
 697 1187 l 2,12,13
 737 1187 737 1187 762 1172 c 128,-1,14
 787 1157 787 1157 798 1122 c 2,15,-1
 1088 205 l 1,16,-1
 1175 205 l 2,17,18
 1192 205 1192 205 1204 201 c 128,-1,19
 1216 197 1216 197 1223.5 186 c 128,-1,20
 1231 175 1231 175 1234.5 155 c 128,-1,21
 1238 135 1238 135 1238 103 c 256,22,23
 1238 71 1238 71 1234.5 51 c 128,-1,24
 1231 31 1231 31 1223.5 19.5 c 128,-1,25
 1216 8 1216 8 1204 4 c 128,-1,26
 1192 0 1192 0 1175 0 c 2,27,-1
 751 0 l 2,28,29
 734 0 734 0 722 4 c 128,-1,30
 710 8 710 8 702.5 19.5 c 128,-1,31
 695 31 695 31 691.5 51 c 128,-1,32
 688 71 688 71 688 103 c 256,33,34
 688 135 688 135 691.5 155 c 128,-1,35
 695 175 695 175 702.5 186 c 128,-1,36
 710 197 710 197 722 201 c 128,-1,37
 734 205 734 205 751 205 c 2,38,-1
 837 205 l 1,39,-1
 792 350 l 1,40,-1
 428 350 l 1,41,-1
 383 205 l 1,42,-1
 457 205 l 2,43,44
 474 205 474 205 486 201 c 128,-1,45
 498 197 498 197 505.5 186 c 128,-1,46
 513 175 513 175 516.5 155 c 128,-1,47
 520 135 520 135 520 103 c 256,48,49
 520 71 520 71 516.5 51 c 128,-1,50
 513 31 513 31 505.5 19.5 c 128,-1,51
 498 8 498 8 486 4 c 128,-1,52
 474 0 474 0 457 0 c 2,53,-1
 53 0 l 2,54,55
 36 0 36 0 24 4 c 128,-1,56
 12 8 12 8 4.5 19.5 c 128,-1,57
 -3 31 -3 31 -6.5 51 c 128,-1,58
 -10 71 -10 71 -10 103 c 256,59,60
 -10 135 -10 135 -6.5 155 c 128,-1,61
 -3 175 -3 175 4.5 186 c 128,-1,62
 12 197 12 197 24 201 c 128,-1,63
 36 205 36 205 53 205 c 2,64,-1
 137 205 l 1,65,-1
 390 982 l 1,0,-1
735 555 m 1,66,-1
 615 982 l 1,67,-1
 609 982 l 1,68,-1
 486 555 l 1,69,-1
 735 555 l 1,66,-1
EndSplineSet
EndChar
StartChar: B
Encoding: 66 66 34
Width: 1228
Flags: W
LayerCount: 2
Back
Fore
SplineSet
240 982 m 1,0,-1
 133 982 l 2,1,2
 116 982 116 982 104 986 c 128,-1,3
 92 990 92 990 84.5 1001 c 128,-1,4
 77 1012 77 1012 73.5 1032 c 128,-1,5
 70 1052 70 1052 70 1084 c 256,6,7
 70 1116 70 1116 73.5 1136 c 128,-1,8
 77 1156 77 1156 84.5 1167.5 c 128,-1,9
 92 1179 92 1179 104 1183 c 128,-1,10
 116 1187 116 1187 133 1187 c 2,11,-1
 654 1187 l 2,12,13
 762 1187 762 1187 839.5 1164 c 128,-1,14
 917 1141 917 1141 967 1098.5 c 128,-1,15
 1017 1056 1017 1056 1040.5 996.5 c 128,-1,16
 1064 937 1064 937 1064 864 c 0,17,18
 1064 779 1064 779 1022 721.5 c 128,-1,19
 980 664 980 664 910 630 c 1,20,21
 1016 601 1016 601 1077.5 532 c 128,-1,22
 1139 463 1139 463 1139 344 c 0,23,24
 1139 258 1139 258 1110.5 194 c 128,-1,25
 1082 130 1082 130 1027 86.5 c 128,-1,26
 972 43 972 43 892.5 21.5 c 128,-1,27
 813 0 813 0 710 0 c 2,28,-1
 133 0 l 2,29,30
 116 0 116 0 104 4 c 128,-1,31
 92 8 92 8 84.5 19 c 128,-1,32
 77 30 77 30 73.5 50 c 128,-1,33
 70 70 70 70 70 102 c 256,34,35
 70 134 70 134 73.5 154 c 128,-1,36
 77 174 77 174 84.5 185.5 c 128,-1,37
 92 197 92 197 104 201 c 128,-1,38
 116 205 116 205 133 205 c 2,39,-1
 240 205 l 1,40,-1
 240 982 l 1,0,-1
682 215 m 2,41,42
 782 215 782 215 829 250 c 128,-1,43
 876 285 876 285 876 354 c 0,44,45
 876 429 876 429 828.5 464 c 128,-1,46
 781 499 781 499 682 499 c 2,47,-1
 490 499 l 1,48,-1
 490 215 l 1,49,-1
 682 215 l 2,41,42
632 714 m 2,50,51
 723 714 723 714 766.5 745.5 c 128,-1,52
 810 777 810 777 810 844 c 0,53,54
 810 912 810 912 767.5 942 c 128,-1,55
 725 972 725 972 632 972 c 2,56,-1
 490 972 l 1,57,-1
 490 714 l 1,58,-1
 632 714 l 2,50,51
EndSplineSet
EndChar
StartChar: C
Encoding: 67 67 35
Width: 1228
Flags: W
LayerCount: 2
Back
Fore
SplineSet
1081 84 m 0,0,1
 976 32 976 32 868.5 5 c 128,-1,2
 761 -22 761 -22 654 -22 c 0,3,4
 530 -22 530 -22 428.5 21 c 128,-1,5
 327 64 327 64 254.5 143.5 c 128,-1,6
 182 223 182 223 142.5 337 c 128,-1,7
 103 451 103 451 103 594 c 0,8,9
 103 736 103 736 142 850 c 128,-1,10
 181 964 181 964 251 1044 c 128,-1,11
 321 1124 321 1124 416 1166.5 c 128,-1,12
 511 1209 511 1209 624 1209 c 0,13,14
 718 1209 718 1209 781.5 1175 c 128,-1,15
 845 1141 845 1141 884 1083 c 1,16,-1
 884 1146 l 2,17,18
 884 1180 884 1180 913 1194.5 c 128,-1,19
 942 1209 942 1209 1006 1209 c 0,20,21
 1038 1209 1038 1209 1059 1205.5 c 128,-1,22
 1080 1202 1080 1202 1092 1194.5 c 128,-1,23
 1104 1187 1104 1187 1109 1175 c 128,-1,24
 1114 1163 1114 1163 1114 1146 c 2,25,-1
 1114 762 l 2,26,27
 1114 728 1114 728 1084 713.5 c 128,-1,28
 1054 699 1054 699 982 699 c 0,29,30
 946 699 946 699 923.5 702.5 c 128,-1,31
 901 706 901 706 887.5 713.5 c 128,-1,32
 874 721 874 721 869 733 c 128,-1,33
 864 745 864 745 864 762 c 0,34,35
 864 810 864 810 850.5 850.5 c 128,-1,36
 837 891 837 891 810.5 920.5 c 128,-1,37
 784 950 784 950 745 966 c 128,-1,38
 706 982 706 982 654 982 c 0,39,40
 513 982 513 982 442 881.5 c 128,-1,41
 371 781 371 781 371 594 c 256,42,43
 371 407 371 407 447 306 c 128,-1,44
 523 205 523 205 664 205 c 0,45,46
 756 205 756 205 837 230.5 c 128,-1,47
 918 256 918 256 1005 300 c 0,48,49
 1035 315 1035 315 1063 300 c 128,-1,50
 1091 285 1091 285 1113 225 c 0,51,52
 1135 164 1135 164 1124 132 c 128,-1,53
 1113 100 1113 100 1081 84 c 0,0,1
EndSplineSet
EndChar
StartChar: D
Encoding: 68 68 36
Width: 1228
Flags: W
LayerCount: 2
Back
Fore
SplineSet
220 982 m 1,0,-1
 123 982 l 2,1,2
 106 982 106 982 94 986 c 128,-1,3
 82 990 82 990 74.5 1001 c 128,-1,4
 67 1012 67 1012 63.5 1032 c 128,-1,5
 60 1052 60 1052 60 1084 c 256,6,7
 60 1116 60 1116 63.5 1136 c 128,-1,8
 67 1156 67 1156 74.5 1167.5 c 128,-1,9
 82 1179 82 1179 94 1183 c 128,-1,10
 106 1187 106 1187 123 1187 c 2,11,-1
 594 1187 l 2,12,13
 725 1187 725 1187 829 1148 c 128,-1,14
 933 1109 933 1109 1005.5 1033 c 128,-1,15
 1078 957 1078 957 1116.5 846.5 c 128,-1,16
 1155 736 1155 736 1155 594 c 0,17,18
 1155 451 1155 451 1116.5 340.5 c 128,-1,19
 1078 230 1078 230 1005.5 154.5 c 128,-1,20
 933 79 933 79 829 39.5 c 128,-1,21
 725 0 725 0 594 0 c 2,22,-1
 123 0 l 2,23,24
 106 0 106 0 94 4 c 128,-1,25
 82 8 82 8 74.5 19 c 128,-1,26
 67 30 67 30 63.5 50 c 128,-1,27
 60 70 60 70 60 102 c 256,28,29
 60 134 60 134 63.5 154 c 128,-1,30
 67 174 67 174 74.5 185.5 c 128,-1,31
 82 197 82 197 94 201 c 128,-1,32
 106 205 106 205 123 205 c 2,33,-1
 220 205 l 1,34,-1
 220 982 l 1,0,-1
574 215 m 2,35,36
 730 215 730 215 808.5 311 c 128,-1,37
 887 407 887 407 887 594 c 256,38,39
 887 781 887 781 808.5 876.5 c 128,-1,40
 730 972 730 972 574 972 c 2,41,-1
 470 972 l 1,42,-1
 470 215 l 1,43,-1
 574 215 l 2,35,36
EndSplineSet
EndChar
StartChar: E
Encoding: 69 69 37
Width: 1228
Flags: W
LayerCount: 2
Back
Fore
SplineSet
220 982 m 1,0,-1
 123 982 l 2,1,2
 106 982 106 982 94 986 c 128,-1,3
 82 990 82 990 74.5 1001 c 128,-1,4
 67 1012 67 1012 63.5 1032 c 128,-1,5
 60 1052 60 1052 60 1084 c 256,6,7
 60 1116 60 1116 63.5 1136 c 128,-1,8
 67 1156 67 1156 74.5 1167.5 c 128,-1,9
 82 1179 82 1179 94 1183 c 128,-1,10
 106 1187 106 1187 123 1187 c 2,11,-1
 1035 1187 l 2,12,13
 1070 1187 1070 1187 1085 1172 c 128,-1,14
 1100 1157 1100 1157 1100 1122 c 2,15,-1
 1100 820 l 2,16,17
 1100 786 1100 786 1071 771.5 c 128,-1,18
 1042 757 1042 757 978 757 c 0,19,20
 946 757 946 757 925 760.5 c 128,-1,21
 904 764 904 764 892 771.5 c 128,-1,22
 880 779 880 779 875 791 c 128,-1,23
 870 803 870 803 870 820 c 2,24,-1
 870 972 l 1,25,-1
 470 972 l 1,26,-1
 470 719 l 1,27,-1
 714 719 l 2,28,29
 731 719 731 719 743 714 c 128,-1,30
 755 709 755 709 762.5 697 c 128,-1,31
 770 685 770 685 773.5 664 c 128,-1,32
 777 643 777 643 777 611 c 256,33,34
 777 579 777 579 773.5 558.5 c 128,-1,35
 770 538 770 538 762.5 526 c 128,-1,36
 755 514 755 514 743 509 c 128,-1,37
 731 504 731 504 714 504 c 2,38,-1
 470 504 l 1,39,-1
 470 215 l 1,40,-1
 880 215 l 1,41,-1
 880 417 l 2,42,43
 880 451 880 451 909 465.5 c 128,-1,44
 938 480 938 480 1006 480 c 0,45,46
 1040 480 1040 480 1062 476.5 c 128,-1,47
 1084 473 1084 473 1097 465.5 c 128,-1,48
 1110 458 1110 458 1115 446 c 128,-1,49
 1120 434 1120 434 1120 417 c 2,50,-1
 1120 65 l 2,51,52
 1120 30 1120 30 1105 15 c 128,-1,53
 1090 0 1090 0 1055 0 c 2,54,-1
 123 0 l 2,55,56
 106 0 106 0 94 4 c 128,-1,57
 82 8 82 8 74.5 19 c 128,-1,58
 67 30 67 30 63.5 50 c 128,-1,59
 60 70 60 70 60 102 c 256,60,61
 60 134 60 134 63.5 154 c 128,-1,62
 67 174 67 174 74.5 185.5 c 128,-1,63
 82 197 82 197 94 201 c 128,-1,64
 106 205 106 205 123 205 c 2,65,-1
 220 205 l 1,66,-1
 220 982 l 1,0,-1
EndSplineSet
EndChar
StartChar: F
Encoding: 70 70 38
Width: 1228
Flags: W
LayerCount: 2
Back
Fore
SplineSet
250 982 m 1,0,-1
 123 982 l 2,1,2
 106 982 106 982 94 986 c 128,-1,3
 82 990 82 990 74.5 1001 c 128,-1,4
 67 1012 67 1012 63.5 1032 c 128,-1,5
 60 1052 60 1052 60 1084 c 256,6,7
 60 1116 60 1116 63.5 1136 c 128,-1,8
 67 1156 67 1156 74.5 1167.5 c 128,-1,9
 82 1179 82 1179 94 1183 c 128,-1,10
 106 1187 106 1187 123 1187 c 2,11,-1
 1055 1187 l 2,12,13
 1090 1187 1090 1187 1105 1172 c 128,-1,14
 1120 1157 1120 1157 1120 1122 c 2,15,-1
 1120 820 l 2,16,17
 1120 786 1120 786 1091 771.5 c 128,-1,18
 1062 757 1062 757 998 757 c 0,19,20
 966 757 966 757 945 760.5 c 128,-1,21
 924 764 924 764 912 771.5 c 128,-1,22
 900 779 900 779 895 791 c 128,-1,23
 890 803 890 803 890 820 c 2,24,-1
 890 972 l 1,25,-1
 500 972 l 1,26,-1
 500 667 l 1,27,-1
 804 667 l 2,28,29
 821 667 821 667 833 662 c 128,-1,30
 845 657 845 657 852.5 645 c 128,-1,31
 860 633 860 633 863.5 612 c 128,-1,32
 867 591 867 591 867 559 c 256,33,34
 867 527 867 527 863.5 506.5 c 128,-1,35
 860 486 860 486 852.5 474 c 128,-1,36
 845 462 845 462 833 457 c 128,-1,37
 821 452 821 452 804 452 c 2,38,-1
 500 452 l 1,39,-1
 500 205 l 1,40,-1
 717 205 l 2,41,42
 734 205 734 205 746 201 c 128,-1,43
 758 197 758 197 765.5 185.5 c 128,-1,44
 773 174 773 174 776.5 154 c 128,-1,45
 780 134 780 134 780 102 c 256,46,47
 780 70 780 70 776.5 50 c 128,-1,48
 773 30 773 30 765.5 19 c 128,-1,49
 758 8 758 8 746 4 c 128,-1,50
 734 0 734 0 717 0 c 2,51,-1
 123 0 l 2,52,53
 106 0 106 0 94 4 c 128,-1,54
 82 8 82 8 74.5 19 c 128,-1,55
 67 30 67 30 63.5 50 c 128,-1,56
 60 70 60 70 60 102 c 256,57,58
 60 134 60 134 63.5 154 c 128,-1,59
 67 174 67 174 74.5 185.5 c 128,-1,60
 82 197 82 197 94 201 c 128,-1,61
 106 205 106 205 123 205 c 2,62,-1
 250 205 l 1,63,-1
 250 982 l 1,0,-1
EndSplineSet
EndChar
StartChar: G
Encoding: 71 71 39
Width: 1228
Flags: W
LayerCount: 2
Back
Fore
SplineSet
651 402 m 2,0,1
 634 402 634 402 622 406 c 128,-1,2
 610 410 610 410 602.5 421 c 128,-1,3
 595 432 595 432 591.5 452 c 128,-1,4
 588 472 588 472 588 504 c 256,5,6
 588 536 588 536 591.5 556 c 128,-1,7
 595 576 595 576 602.5 587.5 c 128,-1,8
 610 599 610 599 622 603 c 128,-1,9
 634 607 634 607 651 607 c 2,10,-1
 1125 607 l 2,11,12
 1142 607 1142 607 1154 603 c 128,-1,13
 1166 599 1166 599 1173.5 587.5 c 128,-1,14
 1181 576 1181 576 1184.5 556 c 128,-1,15
 1188 536 1188 536 1188 504 c 256,16,17
 1188 472 1188 472 1184.5 452 c 128,-1,18
 1181 432 1181 432 1173.5 421 c 128,-1,19
 1166 410 1166 410 1154 406 c 128,-1,20
 1142 402 1142 402 1125 402 c 2,21,-1
 1094 402 l 1,22,-1
 1094 143 l 2,23,24
 1094 93 1094 93 1058 74 c 0,25,26
 963 25 963 25 852 1.5 c 128,-1,27
 741 -22 741 -22 624 -22 c 0,28,29
 500 -22 500 -22 398.5 21 c 128,-1,30
 297 64 297 64 224.5 143.5 c 128,-1,31
 152 223 152 223 112.5 337 c 128,-1,32
 73 451 73 451 73 594 c 0,33,34
 73 736 73 736 112 850 c 128,-1,35
 151 964 151 964 221 1044 c 128,-1,36
 291 1124 291 1124 386 1166.5 c 128,-1,37
 481 1209 481 1209 594 1209 c 0,38,39
 688 1209 688 1209 751.5 1177.5 c 128,-1,40
 815 1146 815 1146 854 1091 c 1,41,-1
 854 1146 l 2,42,43
 854 1180 854 1180 883 1194.5 c 128,-1,44
 912 1209 912 1209 976 1209 c 0,45,46
 1008 1209 1008 1209 1029 1205.5 c 128,-1,47
 1050 1202 1050 1202 1062 1194.5 c 128,-1,48
 1074 1187 1074 1187 1079 1175 c 128,-1,49
 1084 1163 1084 1163 1084 1146 c 2,50,-1
 1084 802 l 2,51,52
 1084 768 1084 768 1054 753.5 c 128,-1,53
 1024 739 1024 739 952 739 c 0,54,55
 916 739 916 739 893.5 742.5 c 128,-1,56
 871 746 871 746 857.5 753.5 c 128,-1,57
 844 761 844 761 839 773 c 128,-1,58
 834 785 834 785 834 802 c 0,59,60
 834 886 834 886 783 934 c 128,-1,61
 732 982 732 982 624 982 c 0,62,63
 483 982 483 982 412 881.5 c 128,-1,64
 341 781 341 781 341 594 c 256,65,66
 341 407 341 407 417 306 c 128,-1,67
 493 205 493 205 634 205 c 0,68,69
 745 205 745 205 844 235 c 1,70,-1
 844 402 l 1,71,-1
 651 402 l 2,0,1
EndSplineSet
EndChar
StartChar: H
Encoding: 72 72 40
Width: 1228
Flags: W
LayerCount: 2
Back
Fore
SplineSet
170 982 m 1,0,-1
 113 982 l 2,1,2
 96 982 96 982 84 986 c 128,-1,3
 72 990 72 990 64.5 1001 c 128,-1,4
 57 1012 57 1012 53.5 1032 c 128,-1,5
 50 1052 50 1052 50 1084 c 256,6,7
 50 1116 50 1116 53.5 1136 c 128,-1,8
 57 1156 57 1156 64.5 1167.5 c 128,-1,9
 72 1179 72 1179 84 1183 c 128,-1,10
 96 1187 96 1187 113 1187 c 2,11,-1
 487 1187 l 2,12,13
 504 1187 504 1187 516 1183 c 128,-1,14
 528 1179 528 1179 535.5 1167.5 c 128,-1,15
 543 1156 543 1156 546.5 1136 c 128,-1,16
 550 1116 550 1116 550 1084 c 256,17,18
 550 1052 550 1052 546.5 1032 c 128,-1,19
 543 1012 543 1012 535.5 1001 c 128,-1,20
 528 990 528 990 516 986 c 128,-1,21
 504 982 504 982 487 982 c 2,22,-1
 420 982 l 1,23,-1
 420 719 l 1,24,-1
 808 719 l 1,25,-1
 808 982 l 1,26,-1
 741 982 l 2,27,28
 724 982 724 982 712 986 c 128,-1,29
 700 990 700 990 692.5 1001 c 128,-1,30
 685 1012 685 1012 681.5 1032 c 128,-1,31
 678 1052 678 1052 678 1084 c 256,32,33
 678 1116 678 1116 681.5 1136 c 128,-1,34
 685 1156 685 1156 692.5 1167.5 c 128,-1,35
 700 1179 700 1179 712 1183 c 128,-1,36
 724 1187 724 1187 741 1187 c 2,37,-1
 1115 1187 l 2,38,39
 1132 1187 1132 1187 1144 1183 c 128,-1,40
 1156 1179 1156 1179 1163.5 1167.5 c 128,-1,41
 1171 1156 1171 1156 1174.5 1136 c 128,-1,42
 1178 1116 1178 1116 1178 1084 c 256,43,44
 1178 1052 1178 1052 1174.5 1032 c 128,-1,45
 1171 1012 1171 1012 1163.5 1001 c 128,-1,46
 1156 990 1156 990 1144 986 c 128,-1,47
 1132 982 1132 982 1115 982 c 2,48,-1
 1058 982 l 1,49,-1
 1058 205 l 1,50,-1
 1115 205 l 2,51,52
 1132 205 1132 205 1144 201 c 128,-1,53
 1156 197 1156 197 1163.5 185.5 c 128,-1,54
 1171 174 1171 174 1174.5 154 c 128,-1,55
 1178 134 1178 134 1178 102 c 256,56,57
 1178 70 1178 70 1174.5 50 c 128,-1,58
 1171 30 1171 30 1163.5 19 c 128,-1,59
 1156 8 1156 8 1144 4 c 128,-1,60
 1132 0 1132 0 1115 0 c 2,61,-1
 741 0 l 2,62,63
 724 0 724 0 712 4 c 128,-1,64
 700 8 700 8 692.5 19 c 128,-1,65
 685 30 685 30 681.5 50 c 128,-1,66
 678 70 678 70 678 102 c 256,67,68
 678 134 678 134 681.5 154 c 128,-1,69
 685 174 685 174 692.5 185.5 c 128,-1,70
 700 197 700 197 712 201 c 128,-1,71
 724 205 724 205 741 205 c 2,72,-1
 808 205 l 1,73,-1
 808 504 l 1,74,-1
 420 504 l 1,75,-1
 420 205 l 1,76,-1
 487 205 l 2,77,78
 504 205 504 205 516 201 c 128,-1,79
 528 197 528 197 535.5 185.5 c 128,-1,80
 543 174 543 174 546.5 154 c 128,-1,81
 550 134 550 134 550 102 c 256,82,83
 550 70 550 70 546.5 50 c 128,-1,84
 543 30 543 30 535.5 19 c 128,-1,85
 528 8 528 8 516 4 c 128,-1,86
 504 0 504 0 487 0 c 2,87,-1
 113 0 l 2,88,89
 96 0 96 0 84 4 c 128,-1,90
 72 8 72 8 64.5 19 c 128,-1,91
 57 30 57 30 53.5 50 c 128,-1,92
 50 70 50 70 50 102 c 256,93,94
 50 134 50 134 53.5 154 c 128,-1,95
 57 174 57 174 64.5 185.5 c 128,-1,96
 72 197 72 197 84 201 c 128,-1,97
 96 205 96 205 113 205 c 2,98,-1
 170 205 l 1,99,-1
 170 982 l 1,0,-1
EndSplineSet
EndChar
StartChar: I
Encoding: 73 73 41
Width: 1228
Flags: W
LayerCount: 2
Back
Fore
SplineSet
489 982 m 1,0,-1
 253 982 l 2,1,2
 236 982 236 982 224 986 c 128,-1,3
 212 990 212 990 204.5 1001 c 128,-1,4
 197 1012 197 1012 193.5 1032 c 128,-1,5
 190 1052 190 1052 190 1084 c 256,6,7
 190 1116 190 1116 193.5 1136 c 128,-1,8
 197 1156 197 1156 204.5 1167.5 c 128,-1,9
 212 1179 212 1179 224 1183 c 128,-1,10
 236 1187 236 1187 253 1187 c 2,11,-1
 975 1187 l 2,12,13
 992 1187 992 1187 1004 1183 c 128,-1,14
 1016 1179 1016 1179 1023.5 1167.5 c 128,-1,15
 1031 1156 1031 1156 1034.5 1136 c 128,-1,16
 1038 1116 1038 1116 1038 1084 c 256,17,18
 1038 1052 1038 1052 1034.5 1032 c 128,-1,19
 1031 1012 1031 1012 1023.5 1001 c 128,-1,20
 1016 990 1016 990 1004 986 c 128,-1,21
 992 982 992 982 975 982 c 2,22,-1
 739 982 l 1,23,-1
 739 205 l 1,24,-1
 995 205 l 2,25,26
 1012 205 1012 205 1024 201 c 128,-1,27
 1036 197 1036 197 1043.5 185.5 c 128,-1,28
 1051 174 1051 174 1054.5 154 c 128,-1,29
 1058 134 1058 134 1058 102 c 256,30,31
 1058 70 1058 70 1054.5 50 c 128,-1,32
 1051 30 1051 30 1043.5 19 c 128,-1,33
 1036 8 1036 8 1024 4 c 128,-1,34
 1012 0 1012 0 995 0 c 2,35,-1
 233 0 l 2,36,37
 216 0 216 0 204 4 c 128,-1,38
 192 8 192 8 184.5 19 c 128,-1,39
 177 30 177 30 173.5 50 c 128,-1,40
 170 70 170 70 170 102 c 256,41,42
 170 134 170 134 173.5 154 c 128,-1,43
 177 174 177 174 184.5 185.5 c 128,-1,44
 192 197 192 197 204 201 c 128,-1,45
 216 205 216 205 233 205 c 2,46,-1
 489 205 l 1,47,-1
 489 982 l 1,0,-1
EndSplineSet
EndChar
StartChar: J
Encoding: 74 74 42
Width: 1228
Flags: W
LayerCount: 2
Back
Fore
SplineSet
373 982 m 2,0,1
 356 982 356 982 344 986 c 128,-1,2
 332 990 332 990 324.5 1001 c 128,-1,3
 317 1012 317 1012 313.5 1032 c 128,-1,4
 310 1052 310 1052 310 1084 c 256,5,6
 310 1116 310 1116 313.5 1136 c 128,-1,7
 317 1156 317 1156 324.5 1167.5 c 128,-1,8
 332 1179 332 1179 344 1183 c 128,-1,9
 356 1187 356 1187 373 1187 c 2,10,-1
 1115 1187 l 2,11,12
 1132 1187 1132 1187 1144 1183 c 128,-1,13
 1156 1179 1156 1179 1163.5 1167.5 c 128,-1,14
 1171 1156 1171 1156 1174.5 1136 c 128,-1,15
 1178 1116 1178 1116 1178 1084 c 256,16,17
 1178 1052 1178 1052 1174.5 1032 c 128,-1,18
 1171 1012 1171 1012 1163.5 1001 c 128,-1,19
 1156 990 1156 990 1144 986 c 128,-1,20
 1132 982 1132 982 1115 982 c 2,21,-1
 929 982 l 1,22,-1
 929 363 l 2,23,24
 929 169 929 169 820.5 73.5 c 128,-1,25
 712 -22 712 -22 504 -22 c 0,26,27
 269 -22 269 -22 115 125 c 0,28,29
 99 141 99 141 99 175 c 2,30,-1
 99 499 l 2,31,32
 99 533 99 533 129 547.5 c 128,-1,33
 159 562 159 562 231 562 c 0,34,35
 267 562 267 562 289.5 558.5 c 128,-1,36
 312 555 312 555 325.5 547.5 c 128,-1,37
 339 540 339 540 344 528 c 128,-1,38
 349 516 349 516 349 499 c 2,39,-1
 349 239 l 1,40,41
 418 205 418 205 515 205 c 0,42,43
 596 205 596 205 637.5 247.5 c 128,-1,44
 679 290 679 290 679 383 c 2,45,-1
 679 982 l 1,46,-1
 373 982 l 2,0,1
EndSplineSet
EndChar
StartChar: K
Encoding: 75 75 43
Width: 1228
Flags: W
LayerCount: 2
Back
Fore
SplineSet
220 982 m 1,0,-1
 113 982 l 2,1,2
 96 982 96 982 84 986 c 128,-1,3
 72 990 72 990 64.5 1001 c 128,-1,4
 57 1012 57 1012 53.5 1032 c 128,-1,5
 50 1052 50 1052 50 1084 c 256,6,7
 50 1116 50 1116 53.5 1136 c 128,-1,8
 57 1156 57 1156 64.5 1167.5 c 128,-1,9
 72 1179 72 1179 84 1183 c 128,-1,10
 96 1187 96 1187 113 1187 c 2,11,-1
 517 1187 l 2,12,13
 534 1187 534 1187 546 1183 c 128,-1,14
 558 1179 558 1179 565.5 1167.5 c 128,-1,15
 573 1156 573 1156 576.5 1136 c 128,-1,16
 580 1116 580 1116 580 1084 c 256,17,18
 580 1052 580 1052 576.5 1032 c 128,-1,19
 573 1012 573 1012 565.5 1001 c 128,-1,20
 558 990 558 990 546 986 c 128,-1,21
 534 982 534 982 517 982 c 2,22,-1
 470 982 l 1,23,-1
 470 662 l 1,24,-1
 794 982 l 1,25,-1
 741 982 l 2,26,27
 724 982 724 982 712 986 c 128,-1,28
 700 990 700 990 692.5 1001 c 128,-1,29
 685 1012 685 1012 681.5 1032 c 128,-1,30
 678 1052 678 1052 678 1084 c 256,31,32
 678 1116 678 1116 681.5 1136 c 128,-1,33
 685 1156 685 1156 692.5 1167.5 c 128,-1,34
 700 1179 700 1179 712 1183 c 128,-1,35
 724 1187 724 1187 741 1187 c 2,36,-1
 1130 1187 l 2,37,38
 1147 1187 1147 1187 1159 1183 c 128,-1,39
 1171 1179 1171 1179 1178.5 1167.5 c 128,-1,40
 1186 1156 1186 1156 1189.5 1136 c 128,-1,41
 1193 1116 1193 1116 1193 1084 c 256,42,43
 1193 1052 1193 1052 1189.5 1032 c 128,-1,44
 1186 1012 1186 1012 1178.5 1001 c 128,-1,45
 1171 990 1171 990 1159 986 c 128,-1,46
 1147 982 1147 982 1130 982 c 2,47,-1
 1087 982 l 1,48,-1
 737 641 l 1,49,50
 794 638 794 638 840 610.5 c 128,-1,51
 886 583 886 583 919 535 c 0,52,53
 941 504 941 504 958.5 471 c 128,-1,54
 976 438 976 438 992 405 c 128,-1,55
 1008 372 1008 372 1023 340.5 c 128,-1,56
 1038 309 1038 309 1054 282 c 0,57,58
 1074 247 1074 247 1098.5 226 c 128,-1,59
 1123 205 1123 205 1155 205 c 2,60,-1
 1165 205 l 2,61,62
 1182 205 1182 205 1194 201 c 128,-1,63
 1206 197 1206 197 1213.5 185.5 c 128,-1,64
 1221 174 1221 174 1224.5 154 c 128,-1,65
 1228 134 1228 134 1228 102 c 256,66,67
 1228 70 1228 70 1224.5 50 c 128,-1,68
 1221 30 1221 30 1213.5 19 c 128,-1,69
 1206 8 1206 8 1194 4 c 128,-1,70
 1182 0 1182 0 1165 0 c 2,71,-1
 1026 0 l 2,72,73
 993 0 993 0 966 11.5 c 128,-1,74
 939 23 939 23 917 42.5 c 128,-1,75
 895 62 895 62 877 87.5 c 128,-1,76
 859 113 859 113 844 142 c 0,77,78
 828 172 828 172 813.5 204 c 128,-1,79
 799 236 799 236 784 267.5 c 128,-1,80
 769 299 769 299 754.5 328 c 128,-1,81
 740 357 740 357 724 381 c 0,82,83
 698 419 698 419 666.5 442 c 128,-1,84
 635 465 635 465 600 465 c 0,85,86
 556 465 556 465 521 431 c 2,87,-1
 470 381 l 1,88,-1
 470 205 l 1,89,-1
 585 205 l 2,90,91
 602 205 602 205 614 201 c 128,-1,92
 626 197 626 197 633.5 185.5 c 128,-1,93
 641 174 641 174 644.5 154 c 128,-1,94
 648 134 648 134 648 102 c 256,95,96
 648 70 648 70 644.5 50 c 128,-1,97
 641 30 641 30 633.5 19 c 128,-1,98
 626 8 626 8 614 4 c 128,-1,99
 602 0 602 0 585 0 c 2,100,-1
 113 0 l 2,101,102
 96 0 96 0 84 4 c 128,-1,103
 72 8 72 8 64.5 19 c 128,-1,104
 57 30 57 30 53.5 50 c 128,-1,105
 50 70 50 70 50 102 c 256,106,107
 50 134 50 134 53.5 154 c 128,-1,108
 57 174 57 174 64.5 185.5 c 128,-1,109
 72 197 72 197 84 201 c 128,-1,110
 96 205 96 205 113 205 c 2,111,-1
 220 205 l 1,112,-1
 220 982 l 1,0,-1
EndSplineSet
EndChar
StartChar: L
Encoding: 76 76 44
Width: 1228
Flags: W
LayerCount: 2
Back
Fore
SplineSet
269 982 m 1,0,-1
 123 982 l 2,1,2
 106 982 106 982 94 986 c 128,-1,3
 82 990 82 990 74.5 1001 c 128,-1,4
 67 1012 67 1012 63.5 1032 c 128,-1,5
 60 1052 60 1052 60 1084 c 256,6,7
 60 1116 60 1116 63.5 1136 c 128,-1,8
 67 1156 67 1156 74.5 1167.5 c 128,-1,9
 82 1179 82 1179 94 1183 c 128,-1,10
 106 1187 106 1187 123 1187 c 2,11,-1
 737 1187 l 2,12,13
 754 1187 754 1187 766 1183 c 128,-1,14
 778 1179 778 1179 785.5 1167.5 c 128,-1,15
 793 1156 793 1156 796.5 1136 c 128,-1,16
 800 1116 800 1116 800 1084 c 256,17,18
 800 1052 800 1052 796.5 1032 c 128,-1,19
 793 1012 793 1012 785.5 1001 c 128,-1,20
 778 990 778 990 766 986 c 128,-1,21
 754 982 754 982 737 982 c 2,22,-1
 519 982 l 1,23,-1
 519 215 l 1,24,-1
 870 215 l 1,25,-1
 870 527 l 2,26,27
 870 561 870 561 900 575.5 c 128,-1,28
 930 590 930 590 1002 590 c 0,29,30
 1038 590 1038 590 1060.5 586.5 c 128,-1,31
 1083 583 1083 583 1096.5 575.5 c 128,-1,32
 1110 568 1110 568 1115 556 c 128,-1,33
 1120 544 1120 544 1120 527 c 2,34,-1
 1120 65 l 2,35,36
 1120 30 1120 30 1105 15 c 128,-1,37
 1090 0 1090 0 1055 0 c 2,38,-1
 123 0 l 2,39,40
 106 0 106 0 94 4 c 128,-1,41
 82 8 82 8 74.5 19 c 128,-1,42
 67 30 67 30 63.5 50 c 128,-1,43
 60 70 60 70 60 102 c 256,44,45
 60 134 60 134 63.5 154 c 128,-1,46
 67 174 67 174 74.5 185.5 c 128,-1,47
 82 197 82 197 94 201 c 128,-1,48
 106 205 106 205 123 205 c 2,49,-1
 269 205 l 1,50,-1
 269 982 l 1,0,-1
EndSplineSet
EndChar
StartChar: M
Encoding: 77 77 45
Width: 1228
Flags: W
LayerCount: 2
Back
Fore
SplineSet
147 982 m 1,0,-1
 93 982 l 2,1,2
 76 982 76 982 64 986 c 128,-1,3
 52 990 52 990 44.5 1001 c 128,-1,4
 37 1012 37 1012 33.5 1032 c 128,-1,5
 30 1052 30 1052 30 1084 c 256,6,7
 30 1116 30 1116 33.5 1136 c 128,-1,8
 37 1156 37 1156 44.5 1167.5 c 128,-1,9
 52 1179 52 1179 64 1183 c 128,-1,10
 76 1187 76 1187 93 1187 c 2,11,-1
 377 1187 l 2,12,13
 397 1187 397 1187 410.5 1180.5 c 128,-1,14
 424 1174 424 1174 431 1156 c 2,15,-1
 614 665 l 1,16,-1
 796 1156 l 2,17,18
 803 1174 803 1174 816.5 1180.5 c 128,-1,19
 830 1187 830 1187 850 1187 c 2,20,-1
 1135 1187 l 2,21,22
 1152 1187 1152 1187 1164 1183 c 128,-1,23
 1176 1179 1176 1179 1183.5 1167.5 c 128,-1,24
 1191 1156 1191 1156 1194.5 1136 c 128,-1,25
 1198 1116 1198 1116 1198 1084 c 256,26,27
 1198 1052 1198 1052 1194.5 1032 c 128,-1,28
 1191 1012 1191 1012 1183.5 1001 c 128,-1,29
 1176 990 1176 990 1164 986 c 128,-1,30
 1152 982 1152 982 1135 982 c 2,31,-1
 1081 982 l 1,32,-1
 1095 205 l 1,33,-1
 1155 205 l 2,34,35
 1172 205 1172 205 1184 201 c 128,-1,36
 1196 197 1196 197 1203.5 185.5 c 128,-1,37
 1211 174 1211 174 1214.5 154 c 128,-1,38
 1218 134 1218 134 1218 102 c 256,39,40
 1218 70 1218 70 1214.5 50 c 128,-1,41
 1211 30 1211 30 1203.5 19 c 128,-1,42
 1196 8 1196 8 1184 4 c 128,-1,43
 1172 0 1172 0 1155 0 c 2,44,-1
 781 0 l 2,45,46
 764 0 764 0 752 4 c 128,-1,47
 740 8 740 8 732.5 19 c 128,-1,48
 725 30 725 30 721.5 50 c 128,-1,49
 718 70 718 70 718 102 c 256,50,51
 718 134 718 134 721.5 154 c 128,-1,52
 725 174 725 174 732.5 185.5 c 128,-1,53
 740 197 740 197 752 201 c 128,-1,54
 764 205 764 205 781 205 c 2,55,-1
 873 205 l 1,56,-1
 867 797 l 1,57,-1
 716 389 l 2,58,59
 703 354 703 354 680.5 339.5 c 128,-1,60
 658 325 658 325 615 325 c 256,61,62
 572 325 572 325 549 339.5 c 128,-1,63
 526 354 526 354 512 389 c 2,64,-1
 360 794 l 1,65,-1
 354 205 l 1,66,-1
 447 205 l 2,67,68
 464 205 464 205 476 201 c 128,-1,69
 488 197 488 197 495.5 185.5 c 128,-1,70
 503 174 503 174 506.5 154 c 128,-1,71
 510 134 510 134 510 102 c 256,72,73
 510 70 510 70 506.5 50 c 128,-1,74
 503 30 503 30 495.5 19 c 128,-1,75
 488 8 488 8 476 4 c 128,-1,76
 464 0 464 0 447 0 c 2,77,-1
 73 0 l 2,78,79
 56 0 56 0 44 4 c 128,-1,80
 32 8 32 8 24.5 19 c 128,-1,81
 17 30 17 30 13.5 50 c 128,-1,82
 10 70 10 70 10 102 c 256,83,84
 10 134 10 134 13.5 154 c 128,-1,85
 17 174 17 174 24.5 185.5 c 128,-1,86
 32 197 32 197 44 201 c 128,-1,87
 56 205 56 205 73 205 c 2,88,-1
 132 205 l 1,89,-1
 147 982 l 1,0,-1
EndSplineSet
EndChar
StartChar: N
Encoding: 78 78 46
Width: 1228
Flags: W
LayerCount: 2
Back
Fore
SplineSet
180 982 m 1,0,-1
 113 982 l 2,1,2
 96 982 96 982 84 986 c 128,-1,3
 72 990 72 990 64.5 1001 c 128,-1,4
 57 1012 57 1012 53.5 1032 c 128,-1,5
 50 1052 50 1052 50 1084 c 256,6,7
 50 1116 50 1116 53.5 1136 c 128,-1,8
 57 1156 57 1156 64.5 1167.5 c 128,-1,9
 72 1179 72 1179 84 1183 c 128,-1,10
 96 1187 96 1187 113 1187 c 2,11,-1
 377 1187 l 2,12,13
 396 1187 396 1187 410 1181 c 128,-1,14
 424 1175 424 1175 433 1160 c 2,15,-1
 848 473 l 1,16,-1
 848 982 l 1,17,-1
 760 982 l 2,18,19
 743 982 743 982 731 986 c 128,-1,20
 719 990 719 990 711.5 1001 c 128,-1,21
 704 1012 704 1012 700.5 1032 c 128,-1,22
 697 1052 697 1052 697 1084 c 256,23,24
 697 1116 697 1116 700.5 1136 c 128,-1,25
 704 1156 704 1156 711.5 1167.5 c 128,-1,26
 719 1179 719 1179 731 1183 c 128,-1,27
 743 1187 743 1187 760 1187 c 2,28,-1
 1135 1187 l 2,29,30
 1152 1187 1152 1187 1164 1183 c 128,-1,31
 1176 1179 1176 1179 1183.5 1167.5 c 128,-1,32
 1191 1156 1191 1156 1194.5 1136 c 128,-1,33
 1198 1116 1198 1116 1198 1084 c 256,34,35
 1198 1052 1198 1052 1194.5 1032 c 128,-1,36
 1191 1012 1191 1012 1183.5 1001 c 128,-1,37
 1176 990 1176 990 1164 986 c 128,-1,38
 1152 982 1152 982 1135 982 c 2,39,-1
 1078 982 l 1,40,-1
 1078 44 l 2,41,42
 1078 12 1078 12 1054.5 -5 c 128,-1,43
 1031 -22 1031 -22 968 -22 c 0,44,45
 944 -22 944 -22 927 -18.5 c 128,-1,46
 910 -15 910 -15 897.5 -8.5 c 128,-1,47
 885 -2 885 -2 876.5 8 c 128,-1,48
 868 18 868 18 860 31 c 2,49,-1
 410 776 l 1,50,-1
 410 205 l 1,51,-1
 517 205 l 2,52,53
 534 205 534 205 546 201 c 128,-1,54
 558 197 558 197 565.5 185.5 c 128,-1,55
 573 174 573 174 576.5 154 c 128,-1,56
 580 134 580 134 580 102 c 256,57,58
 580 70 580 70 576.5 50 c 128,-1,59
 573 30 573 30 565.5 19 c 128,-1,60
 558 8 558 8 546 4 c 128,-1,61
 534 0 534 0 517 0 c 2,62,-1
 113 0 l 2,63,64
 96 0 96 0 84 4 c 128,-1,65
 72 8 72 8 64.5 19 c 128,-1,66
 57 30 57 30 53.5 50 c 128,-1,67
 50 70 50 70 50 102 c 256,68,69
 50 134 50 134 53.5 154 c 128,-1,70
 57 174 57 174 64.5 185.5 c 128,-1,71
 72 197 72 197 84 201 c 128,-1,72
 96 205 96 205 113 205 c 2,73,-1
 180 205 l 1,74,-1
 180 982 l 1,0,-1
EndSplineSet
EndChar
StartChar: O
Encoding: 79 79 47
Width: 1228
Flags: W
LayerCount: 2
Back
Fore
SplineSet
614 982 m 256,0,1
 473 982 473 982 402 881.5 c 128,-1,2
 331 781 331 781 331 594 c 256,3,4
 331 407 331 407 402 306 c 128,-1,5
 473 205 473 205 614 205 c 256,6,7
 755 205 755 205 826 306 c 128,-1,8
 897 407 897 407 897 594 c 256,9,10
 897 781 897 781 826 881.5 c 128,-1,11
 755 982 755 982 614 982 c 256,0,1
614 1209 m 256,12,13
 738 1209 738 1209 839.5 1166.5 c 128,-1,14
 941 1124 941 1124 1013.5 1044 c 128,-1,15
 1086 964 1086 964 1125.5 850 c 128,-1,16
 1165 736 1165 736 1165 594 c 0,17,18
 1165 451 1165 451 1125.5 337 c 128,-1,19
 1086 223 1086 223 1013.5 143.5 c 128,-1,20
 941 64 941 64 839.5 21 c 128,-1,21
 738 -22 738 -22 614 -22 c 256,22,23
 490 -22 490 -22 388.5 21 c 128,-1,24
 287 64 287 64 214.5 143.5 c 128,-1,25
 142 223 142 223 102.5 337 c 128,-1,26
 63 451 63 451 63 594 c 0,27,28
 63 736 63 736 102.5 850 c 128,-1,29
 142 964 142 964 214.5 1044 c 128,-1,30
 287 1124 287 1124 388.5 1166.5 c 128,-1,31
 490 1209 490 1209 614 1209 c 256,12,13
EndSplineSet
EndChar
StartChar: P
Encoding: 80 80 48
Width: 1228
Flags: W
LayerCount: 2
Back
Fore
SplineSet
270 982 m 1,0,-1
 123 982 l 2,1,2
 106 982 106 982 94 986 c 128,-1,3
 82 990 82 990 74.5 1001 c 128,-1,4
 67 1012 67 1012 63.5 1032 c 128,-1,5
 60 1052 60 1052 60 1084 c 256,6,7
 60 1116 60 1116 63.5 1136 c 128,-1,8
 67 1156 67 1156 74.5 1167.5 c 128,-1,9
 82 1179 82 1179 94 1183 c 128,-1,10
 106 1187 106 1187 123 1187 c 2,11,-1
 670 1187 l 2,12,13
 902 1187 902 1187 1019.5 1082.5 c 128,-1,14
 1137 978 1137 978 1137 785 c 256,15,16
 1137 592 1137 592 1019.5 487 c 128,-1,17
 902 382 902 382 670 382 c 2,18,-1
 520 382 l 1,19,-1
 520 205 l 1,20,-1
 737 205 l 2,21,22
 754 205 754 205 766 201 c 128,-1,23
 778 197 778 197 785.5 185.5 c 128,-1,24
 793 174 793 174 796.5 154 c 128,-1,25
 800 134 800 134 800 102 c 256,26,27
 800 70 800 70 796.5 50 c 128,-1,28
 793 30 793 30 785.5 19 c 128,-1,29
 778 8 778 8 766 4 c 128,-1,30
 754 0 754 0 737 0 c 2,31,-1
 123 0 l 2,32,33
 106 0 106 0 94 4 c 128,-1,34
 82 8 82 8 74.5 19 c 128,-1,35
 67 30 67 30 63.5 50 c 128,-1,36
 60 70 60 70 60 102 c 256,37,38
 60 134 60 134 63.5 154 c 128,-1,39
 67 174 67 174 74.5 185.5 c 128,-1,40
 82 197 82 197 94 201 c 128,-1,41
 106 205 106 205 123 205 c 2,42,-1
 270 205 l 1,43,-1
 270 982 l 1,0,-1
639 597 m 2,44,45
 757 597 757 597 818 642.5 c 128,-1,46
 879 688 879 688 879 785 c 256,47,48
 879 882 879 882 818 927 c 128,-1,49
 757 972 757 972 639 972 c 2,50,-1
 520 972 l 1,51,-1
 520 597 l 1,52,-1
 639 597 l 2,44,45
EndSplineSet
EndChar
StartChar: Q
Encoding: 81 81 49
Width: 1228
Flags: W
LayerCount: 2
Back
Fore
SplineSet
614 982 m 256,0,1
 544 982 544 982 491 958.5 c 128,-1,2
 438 935 438 935 402.5 890 c 128,-1,3
 367 845 367 845 349 780.5 c 128,-1,4
 331 716 331 716 331 634 c 256,5,6
 331 552 331 552 349 487.5 c 128,-1,7
 367 423 367 423 402.5 378 c 128,-1,8
 438 333 438 333 491 309 c 128,-1,9
 544 285 544 285 614 285 c 256,10,11
 684 285 684 285 737 309 c 128,-1,12
 790 333 790 333 825.5 378 c 128,-1,13
 861 423 861 423 879 487.5 c 128,-1,14
 897 552 897 552 897 634 c 256,15,16
 897 716 897 716 879 780.5 c 128,-1,17
 861 845 861 845 825.5 890 c 128,-1,18
 790 935 790 935 737 958.5 c 128,-1,19
 684 982 684 982 614 982 c 256,0,1
390 98 m 1,20,21
 314 128 314 128 253.5 178.5 c 128,-1,22
 193 229 193 229 150.5 297.5 c 128,-1,23
 108 366 108 366 85.5 450.5 c 128,-1,24
 63 535 63 535 63 634 c 0,25,26
 63 765 63 765 102.5 871.5 c 128,-1,27
 142 978 142 978 214.5 1053 c 128,-1,28
 287 1128 287 1128 388.5 1168.5 c 128,-1,29
 490 1209 490 1209 614 1209 c 256,30,31
 738 1209 738 1209 839.5 1168.5 c 128,-1,32
 941 1128 941 1128 1013.5 1053 c 128,-1,33
 1086 978 1086 978 1125.5 871.5 c 128,-1,34
 1165 765 1165 765 1165 634 c 256,35,36
 1165 503 1165 503 1125.5 396.5 c 128,-1,37
 1086 290 1086 290 1013.5 215 c 128,-1,38
 941 140 941 140 839.5 99 c 128,-1,39
 738 58 738 58 614 58 c 0,40,41
 601 58 601 58 589 58.5 c 128,-1,42
 577 59 577 59 569 60 c 1,43,-1
 463 -46 l 1,44,45
 508 -29 508 -29 546 -23 c 128,-1,46
 584 -17 584 -17 619 -17 c 0,47,48
 653 -17 653 -17 684.5 -21.5 c 128,-1,49
 716 -26 716 -26 745.5 -31.5 c 128,-1,50
 775 -37 775 -37 804 -41.5 c 128,-1,51
 833 -46 833 -46 863 -46 c 0,52,53
 898 -46 898 -46 935 -37.5 c 128,-1,54
 972 -29 972 -29 1016 -6 c 0,55,56
 1045 9 1045 9 1073.5 -9.5 c 128,-1,57
 1102 -28 1102 -28 1121 -67 c 0,58,59
 1141 -109 1141 -109 1139 -144.5 c 128,-1,60
 1137 -180 1137 -180 1105 -204 c 0,61,62
 1045 -249 1045 -249 990.5 -265 c 128,-1,63
 936 -281 936 -281 882 -281 c 0,64,65
 840 -281 840 -281 798 -274 c 128,-1,66
 756 -267 756 -267 712.5 -259 c 128,-1,67
 669 -251 669 -251 622.5 -244 c 128,-1,68
 576 -237 576 -237 526 -237 c 0,69,70
 477 -237 477 -237 419 -247 c 128,-1,71
 361 -257 361 -257 297 -284 c 0,72,73
 282 -290 282 -290 266 -283 c 128,-1,74
 250 -276 250 -276 235 -260.5 c 128,-1,75
 220 -245 220 -245 207.5 -223.5 c 128,-1,76
 195 -202 195 -202 189.5 -180 c 128,-1,77
 184 -158 184 -158 186 -137 c 128,-1,78
 188 -116 188 -116 202 -102 c 2,79,-1
 390 98 l 1,20,21
EndSplineSet
EndChar
StartChar: R
Encoding: 82 82 50
Width: 1228
Flags: W
LayerCount: 2
Back
Fore
SplineSet
230 982 m 1,0,-1
 123 982 l 2,1,2
 106 982 106 982 94 986 c 128,-1,3
 82 990 82 990 74.5 1001 c 128,-1,4
 67 1012 67 1012 63.5 1032 c 128,-1,5
 60 1052 60 1052 60 1084 c 256,6,7
 60 1116 60 1116 63.5 1136 c 128,-1,8
 67 1156 67 1156 74.5 1167.5 c 128,-1,9
 82 1179 82 1179 94 1183 c 128,-1,10
 106 1187 106 1187 123 1187 c 2,11,-1
 650 1187 l 2,12,13
 861 1187 861 1187 974 1095 c 128,-1,14
 1087 1003 1087 1003 1087 824 c 0,15,16
 1087 704 1087 704 1026 633 c 128,-1,17
 965 562 965 562 849 533 c 1,18,19
 872 522 872 522 891.5 507.5 c 128,-1,20
 911 493 911 493 928 476 c 0,21,22
 950 453 950 453 968 426 c 128,-1,23
 986 399 986 399 1001 372 c 128,-1,24
 1016 345 1016 345 1029.5 319 c 128,-1,25
 1043 293 1043 293 1057 271 c 0,26,27
 1076 242 1076 242 1097 223.5 c 128,-1,28
 1118 205 1118 205 1146 205 c 2,29,-1
 1165 205 l 2,30,31
 1182 205 1182 205 1194 201 c 128,-1,32
 1206 197 1206 197 1213.5 185.5 c 128,-1,33
 1221 174 1221 174 1224.5 154 c 128,-1,34
 1228 134 1228 134 1228 102 c 256,35,36
 1228 70 1228 70 1224.5 50 c 128,-1,37
 1221 30 1221 30 1213.5 19 c 128,-1,38
 1206 8 1206 8 1194 4 c 128,-1,39
 1182 0 1182 0 1165 0 c 2,40,-1
 1058 0 l 2,41,42
 992 0 992 0 943.5 33.5 c 128,-1,43
 895 67 895 67 851 139 c 0,44,45
 819 192 819 192 792.5 251 c 128,-1,46
 766 310 766 310 728 364 c 0,47,48
 710 390 710 390 689.5 408.5 c 128,-1,49
 669 427 669 427 644.5 438.5 c 128,-1,50
 620 450 620 450 589 455.5 c 128,-1,51
 558 461 558 461 518 461 c 2,52,-1
 480 461 l 1,53,-1
 480 205 l 1,54,-1
 597 205 l 2,55,56
 614 205 614 205 626 201 c 128,-1,57
 638 197 638 197 645.5 185.5 c 128,-1,58
 653 174 653 174 656.5 154 c 128,-1,59
 660 134 660 134 660 102 c 256,60,61
 660 70 660 70 656.5 50 c 128,-1,62
 653 30 653 30 645.5 19 c 128,-1,63
 638 8 638 8 626 4 c 128,-1,64
 614 0 614 0 597 0 c 2,65,-1
 123 0 l 2,66,67
 106 0 106 0 94 4 c 128,-1,68
 82 8 82 8 74.5 19 c 128,-1,69
 67 30 67 30 63.5 50 c 128,-1,70
 60 70 60 70 60 102 c 256,71,72
 60 134 60 134 63.5 154 c 128,-1,73
 67 174 67 174 74.5 185.5 c 128,-1,74
 82 197 82 197 94 201 c 128,-1,75
 106 205 106 205 123 205 c 2,76,-1
 230 205 l 1,77,-1
 230 982 l 1,0,-1
629 676 m 2,78,79
 732 676 732 676 780.5 712.5 c 128,-1,80
 829 749 829 749 829 824 c 256,81,82
 829 899 829 899 780.5 935.5 c 128,-1,83
 732 972 732 972 629 972 c 2,84,-1
 480 972 l 1,85,-1
 480 676 l 1,86,-1
 629 676 l 2,78,79
EndSplineSet
EndChar
StartChar: S
Encoding: 83 83 51
Width: 1228
Flags: W
LayerCount: 2
Back
Fore
SplineSet
389 41 m 2,0,1
 389 7 389 7 365 -7.5 c 128,-1,2
 341 -22 341 -22 277 -22 c 256,3,4
 213 -22 213 -22 186 -7.5 c 128,-1,5
 159 7 159 7 159 41 c 2,6,-1
 159 375 l 2,7,8
 159 409 159 409 180.5 423.5 c 128,-1,9
 202 438 202 438 251 438 c 0,10,11
 286 438 286 438 306.5 429 c 128,-1,12
 327 420 327 420 338 398 c 0,13,14
 392 296 392 296 466 243.5 c 128,-1,15
 540 191 540 191 642 191 c 0,16,17
 732 191 732 191 777 227.5 c 128,-1,18
 822 264 822 264 822 327 c 0,19,20
 822 369 822 369 800.5 396 c 128,-1,21
 779 423 779 423 742 441 c 0,22,23
 702 460 702 460 649 472.5 c 128,-1,24
 596 485 596 485 538 497 c 128,-1,25
 480 509 480 509 421 524.5 c 128,-1,26
 362 540 362 540 311 567 c 0,27,28
 276 585 276 585 246.5 610 c 128,-1,29
 217 635 217 635 195 668.5 c 128,-1,30
 173 702 173 702 161 746 c 128,-1,31
 149 790 149 790 149 846 c 0,32,33
 149 926 149 926 177 992.5 c 128,-1,34
 205 1059 205 1059 256.5 1107 c 128,-1,35
 308 1155 308 1155 379.5 1182 c 128,-1,36
 451 1209 451 1209 538 1209 c 0,37,38
 619 1209 619 1209 686.5 1183 c 128,-1,39
 754 1157 754 1157 804 1109 c 1,40,-1
 804 1146 l 2,41,42
 804 1180 804 1180 828 1194.5 c 128,-1,43
 852 1209 852 1209 916 1209 c 256,44,45
 980 1209 980 1209 1007 1194.5 c 128,-1,46
 1034 1180 1034 1180 1034 1146 c 2,47,-1
 1034 872 l 2,48,49
 1034 838 1034 838 1012.5 823.5 c 128,-1,50
 991 809 991 809 942 809 c 0,51,52
 908 809 908 809 889.5 817 c 128,-1,53
 871 825 871 825 860 841 c 0,54,55
 814 913 814 913 741 954.5 c 128,-1,56
 668 996 668 996 568 996 c 0,57,58
 493 996 493 996 452.5 958 c 128,-1,59
 412 920 412 920 412 863 c 0,60,61
 412 833 412 833 431 814.5 c 128,-1,62
 450 796 450 796 482 783 c 0,63,64
 521 768 521 768 575.5 758.5 c 128,-1,65
 630 749 630 749 690.5 737 c 128,-1,66
 751 725 751 725 812.5 707 c 128,-1,67
 874 689 874 689 927 657 c 0,68,69
 961 636 961 636 990.5 607.5 c 128,-1,70
 1020 579 1020 579 1041.5 541 c 128,-1,71
 1063 503 1063 503 1075 454 c 128,-1,72
 1087 405 1087 405 1087 344 c 0,73,74
 1087 263 1087 263 1061.5 195.5 c 128,-1,75
 1036 128 1036 128 984 80 c 128,-1,76
 932 32 932 32 854.5 5 c 128,-1,77
 777 -22 777 -22 672 -22 c 0,78,79
 505 -22 505 -22 389 79 c 1,80,-1
 389 41 l 2,0,1
EndSplineSet
EndChar
StartChar: T
Encoding: 84 84 52
Width: 1228
Flags: W
LayerCount: 2
Back
Fore
SplineSet
489 972 m 1,0,-1
 308 972 l 1,1,-1
 308 700 l 2,2,3
 308 666 308 666 280.5 651.5 c 128,-1,4
 253 637 253 637 196 637 c 0,5,6
 140 637 140 637 119 651.5 c 128,-1,7
 98 666 98 666 98 700 c 2,8,-1
 98 1122 l 2,9,10
 98 1157 98 1157 113 1172 c 128,-1,11
 128 1187 128 1187 163 1187 c 2,12,-1
 1065 1187 l 2,13,14
 1100 1187 1100 1187 1115 1172 c 128,-1,15
 1130 1157 1130 1157 1130 1122 c 2,16,-1
 1130 700 l 2,17,18
 1130 666 1130 666 1102.5 651.5 c 128,-1,19
 1075 637 1075 637 1018 637 c 0,20,21
 962 637 962 637 941 651.5 c 128,-1,22
 920 666 920 666 920 700 c 2,23,-1
 920 972 l 1,24,-1
 739 972 l 1,25,-1
 739 205 l 1,26,-1
 955 205 l 2,27,28
 972 205 972 205 984 201 c 128,-1,29
 996 197 996 197 1003.5 185.5 c 128,-1,30
 1011 174 1011 174 1014.5 154 c 128,-1,31
 1018 134 1018 134 1018 102 c 256,32,33
 1018 70 1018 70 1014.5 50 c 128,-1,34
 1011 30 1011 30 1003.5 19 c 128,-1,35
 996 8 996 8 984 4 c 128,-1,36
 972 0 972 0 955 0 c 2,37,-1
 273 0 l 2,38,39
 256 0 256 0 244 4 c 128,-1,40
 232 8 232 8 224.5 19 c 128,-1,41
 217 30 217 30 213.5 50 c 128,-1,42
 210 70 210 70 210 102 c 256,43,44
 210 134 210 134 213.5 154 c 128,-1,45
 217 174 217 174 224.5 185.5 c 128,-1,46
 232 197 232 197 244 201 c 128,-1,47
 256 205 256 205 273 205 c 2,48,-1
 489 205 l 1,49,-1
 489 972 l 1,0,-1
EndSplineSet
EndChar
StartChar: U
Encoding: 85 85 53
Width: 1228
Flags: W
LayerCount: 2
Back
Fore
SplineSet
113 982 m 2,0,1
 96 982 96 982 84 986 c 128,-1,2
 72 990 72 990 64.5 1001 c 128,-1,3
 57 1012 57 1012 53.5 1032 c 128,-1,4
 50 1052 50 1052 50 1084 c 256,5,6
 50 1116 50 1116 53.5 1136 c 128,-1,7
 57 1156 57 1156 64.5 1167.5 c 128,-1,8
 72 1179 72 1179 84 1183 c 128,-1,9
 96 1187 96 1187 113 1187 c 2,10,-1
 487 1187 l 2,11,12
 504 1187 504 1187 516 1183 c 128,-1,13
 528 1179 528 1179 535.5 1167.5 c 128,-1,14
 543 1156 543 1156 546.5 1136 c 128,-1,15
 550 1116 550 1116 550 1084 c 256,16,17
 550 1052 550 1052 546.5 1032 c 128,-1,18
 543 1012 543 1012 535.5 1001 c 128,-1,19
 528 990 528 990 516 986 c 128,-1,20
 504 982 504 982 487 982 c 2,21,-1
 410 982 l 1,22,-1
 410 433 l 2,23,24
 410 373 410 373 425 330 c 128,-1,25
 440 287 440 287 467 259 c 128,-1,26
 494 231 494 231 531.5 218 c 128,-1,27
 569 205 569 205 614 205 c 256,28,29
 659 205 659 205 696.5 218 c 128,-1,30
 734 231 734 231 761 259 c 128,-1,31
 788 287 788 287 803 330 c 128,-1,32
 818 373 818 373 818 433 c 2,33,-1
 818 982 l 1,34,-1
 741 982 l 2,35,36
 724 982 724 982 712 986 c 128,-1,37
 700 990 700 990 692.5 1001 c 128,-1,38
 685 1012 685 1012 681.5 1032 c 128,-1,39
 678 1052 678 1052 678 1084 c 256,40,41
 678 1116 678 1116 681.5 1136 c 128,-1,42
 685 1156 685 1156 692.5 1167.5 c 128,-1,43
 700 1179 700 1179 712 1183 c 128,-1,44
 724 1187 724 1187 741 1187 c 2,45,-1
 1115 1187 l 2,46,47
 1132 1187 1132 1187 1144 1183 c 128,-1,48
 1156 1179 1156 1179 1163.5 1167.5 c 128,-1,49
 1171 1156 1171 1156 1174.5 1136 c 128,-1,50
 1178 1116 1178 1116 1178 1084 c 256,51,52
 1178 1052 1178 1052 1174.5 1032 c 128,-1,53
 1171 1012 1171 1012 1163.5 1001 c 128,-1,54
 1156 990 1156 990 1144 986 c 128,-1,55
 1132 982 1132 982 1115 982 c 2,56,-1
 1068 982 l 1,57,-1
 1068 413 l 2,58,59
 1068 308 1068 308 1036.5 227 c 128,-1,60
 1005 146 1005 146 946 90.5 c 128,-1,61
 887 35 887 35 803 6.5 c 128,-1,62
 719 -22 719 -22 614 -22 c 256,63,64
 509 -22 509 -22 425 6.5 c 128,-1,65
 341 35 341 35 282 90.5 c 128,-1,66
 223 146 223 146 191.5 227 c 128,-1,67
 160 308 160 308 160 413 c 2,68,-1
 160 982 l 1,69,-1
 113 982 l 2,0,1
EndSplineSet
EndChar
StartChar: V
Encoding: 86 86 54
Width: 1228
Flags: W
LayerCount: 2
Back
Fore
SplineSet
53 982 m 2,0,1
 36 982 36 982 24 986 c 128,-1,2
 12 990 12 990 4.5 1001 c 128,-1,3
 -3 1012 -3 1012 -6.5 1032 c 128,-1,4
 -10 1052 -10 1052 -10 1084 c 256,5,6
 -10 1116 -10 1116 -6.5 1136 c 128,-1,7
 -3 1156 -3 1156 4.5 1167.5 c 128,-1,8
 12 1179 12 1179 24 1183 c 128,-1,9
 36 1187 36 1187 53 1187 c 2,10,-1
 487 1187 l 2,11,12
 504 1187 504 1187 516 1183 c 128,-1,13
 528 1179 528 1179 535.5 1167.5 c 128,-1,14
 543 1156 543 1156 546.5 1136 c 128,-1,15
 550 1116 550 1116 550 1084 c 256,16,17
 550 1052 550 1052 546.5 1032 c 128,-1,18
 543 1012 543 1012 535.5 1001 c 128,-1,19
 528 990 528 990 516 986 c 128,-1,20
 504 982 504 982 487 982 c 2,21,-1
 398 982 l 1,22,-1
 613 369 l 1,23,-1
 842 982 l 1,24,-1
 771 982 l 2,25,26
 754 982 754 982 742 986 c 128,-1,27
 730 990 730 990 722.5 1001 c 128,-1,28
 715 1012 715 1012 711.5 1032 c 128,-1,29
 708 1052 708 1052 708 1084 c 256,30,31
 708 1116 708 1116 711.5 1136 c 128,-1,32
 715 1156 715 1156 722.5 1167.5 c 128,-1,33
 730 1179 730 1179 742 1183 c 128,-1,34
 754 1187 754 1187 771 1187 c 2,35,-1
 1175 1187 l 2,36,37
 1192 1187 1192 1187 1204 1183 c 128,-1,38
 1216 1179 1216 1179 1223.5 1167.5 c 128,-1,39
 1231 1156 1231 1156 1234.5 1136 c 128,-1,40
 1238 1116 1238 1116 1238 1084 c 256,41,42
 1238 1052 1238 1052 1234.5 1032 c 128,-1,43
 1231 1012 1231 1012 1223.5 1001 c 128,-1,44
 1216 990 1216 990 1204 986 c 128,-1,45
 1192 982 1192 982 1175 982 c 2,46,-1
 1107 982 l 1,47,-1
 744 43 l 2,48,49
 737 25 737 25 727 13 c 128,-1,50
 717 1 717 1 701.5 -7 c 128,-1,51
 686 -15 686 -15 664 -18.5 c 128,-1,52
 642 -22 642 -22 611 -22 c 256,53,54
 580 -22 580 -22 558 -18.5 c 128,-1,55
 536 -15 536 -15 521 -7 c 128,-1,56
 506 1 506 1 496 13.5 c 128,-1,57
 486 26 486 26 480 43 c 2,58,-1
 130 982 l 1,59,-1
 53 982 l 2,0,1
EndSplineSet
EndChar
StartChar: W
Encoding: 87 87 55
Width: 1228
Flags: W
LayerCount: 2
Back
Fore
SplineSet
437 1187 m 2,0,1
 454 1187 454 1187 466 1183 c 128,-1,2
 478 1179 478 1179 485.5 1167.5 c 128,-1,3
 493 1156 493 1156 496.5 1136 c 128,-1,4
 500 1116 500 1116 500 1084 c 256,5,6
 500 1052 500 1052 496.5 1032 c 128,-1,7
 493 1012 493 1012 485.5 1001 c 128,-1,8
 478 990 478 990 466 986 c 128,-1,9
 454 982 454 982 437 982 c 2,10,-1
 320 982 l 1,11,-1
 373 398 l 1,12,-1
 519 826 l 2,13,14
 525 846 525 846 543.5 859.5 c 128,-1,15
 562 873 562 873 613 873 c 0,16,17
 665 873 665 873 686 863 c 128,-1,18
 707 853 707 853 713 833 c 2,19,-1
 860 398 l 1,20,-1
 914 982 l 1,21,-1
 811 982 l 2,22,23
 794 982 794 982 782 986 c 128,-1,24
 770 990 770 990 762.5 1001 c 128,-1,25
 755 1012 755 1012 751.5 1032 c 128,-1,26
 748 1052 748 1052 748 1084 c 256,27,28
 748 1116 748 1116 751.5 1136 c 128,-1,29
 755 1156 755 1156 762.5 1167.5 c 128,-1,30
 770 1179 770 1179 782 1183 c 128,-1,31
 794 1187 794 1187 811 1187 c 2,32,-1
 1185 1187 l 2,33,34
 1202 1187 1202 1187 1214 1183 c 128,-1,35
 1226 1179 1226 1179 1233.5 1167.5 c 128,-1,36
 1241 1156 1241 1156 1244.5 1136 c 128,-1,37
 1248 1116 1248 1116 1248 1084 c 256,38,39
 1248 1052 1248 1052 1244.5 1032 c 128,-1,40
 1241 1012 1241 1012 1233.5 1001 c 128,-1,41
 1226 990 1226 990 1214 986 c 128,-1,42
 1202 982 1202 982 1185 982 c 2,43,-1
 1129 982 l 1,44,-1
 1028 43 l 2,45,46
 1026 25 1026 25 1019.5 12.5 c 128,-1,47
 1013 0 1013 0 999.5 -7.5 c 128,-1,48
 986 -15 986 -15 963.5 -18.5 c 128,-1,49
 941 -22 941 -22 907 -22 c 0,50,51
 839 -22 839 -22 810 -6.5 c 128,-1,52
 781 9 781 9 770 43 c 2,53,-1
 610 514 l 1,54,-1
 448 43 l 2,55,56
 442 26 442 26 432.5 13.5 c 128,-1,57
 423 1 423 1 407 -7 c 128,-1,58
 391 -15 391 -15 367 -18.5 c 128,-1,59
 343 -22 343 -22 309 -22 c 256,60,61
 275 -22 275 -22 253 -18.5 c 128,-1,62
 231 -15 231 -15 217.5 -7.5 c 128,-1,63
 204 0 204 0 198 12.5 c 128,-1,64
 192 25 192 25 190 43 c 2,65,-1
 93 982 l 1,66,-1
 43 982 l 2,67,68
 26 982 26 982 14 986 c 128,-1,69
 2 990 2 990 -5.5 1001 c 128,-1,70
 -13 1012 -13 1012 -16.5 1032 c 128,-1,71
 -20 1052 -20 1052 -20 1084 c 256,72,73
 -20 1116 -20 1116 -16.5 1136 c 128,-1,74
 -13 1156 -13 1156 -5.5 1167.5 c 128,-1,75
 2 1179 2 1179 14 1183 c 128,-1,76
 26 1187 26 1187 43 1187 c 2,77,-1
 437 1187 l 2,0,1
EndSplineSet
EndChar
StartChar: X
Encoding: 88 88 56
Width: 1228
Flags: W
LayerCount: 2
Back
Fore
SplineSet
446 615 m 1,0,-1
 183 982 l 1,1,-1
 123 982 l 2,2,3
 106 982 106 982 94 986 c 128,-1,4
 82 990 82 990 74.5 1001 c 128,-1,5
 67 1012 67 1012 63.5 1032 c 128,-1,6
 60 1052 60 1052 60 1084 c 256,7,8
 60 1116 60 1116 63.5 1136 c 128,-1,9
 67 1156 67 1156 74.5 1167.5 c 128,-1,10
 82 1179 82 1179 94 1183 c 128,-1,11
 106 1187 106 1187 123 1187 c 2,12,-1
 517 1187 l 2,13,14
 534 1187 534 1187 546 1183 c 128,-1,15
 558 1179 558 1179 565.5 1167.5 c 128,-1,16
 573 1156 573 1156 576.5 1136 c 128,-1,17
 580 1116 580 1116 580 1084 c 256,18,19
 580 1052 580 1052 576.5 1032 c 128,-1,20
 573 1012 573 1012 565.5 1001 c 128,-1,21
 558 990 558 990 546 986 c 128,-1,22
 534 982 534 982 517 982 c 2,23,-1
 474 982 l 1,24,-1
 620 773 l 1,25,-1
 765 982 l 1,26,-1
 741 982 l 2,27,28
 724 982 724 982 712 986 c 128,-1,29
 700 990 700 990 692.5 1001 c 128,-1,30
 685 1012 685 1012 681.5 1032 c 128,-1,31
 678 1052 678 1052 678 1084 c 256,32,33
 678 1116 678 1116 681.5 1136 c 128,-1,34
 685 1156 685 1156 692.5 1167.5 c 128,-1,35
 700 1179 700 1179 712 1183 c 128,-1,36
 724 1187 724 1187 741 1187 c 2,37,-1
 1105 1187 l 2,38,39
 1122 1187 1122 1187 1134 1183 c 128,-1,40
 1146 1179 1146 1179 1153.5 1167.5 c 128,-1,41
 1161 1156 1161 1156 1164.5 1136 c 128,-1,42
 1168 1116 1168 1116 1168 1084 c 256,43,44
 1168 1052 1168 1052 1164.5 1032 c 128,-1,45
 1161 1012 1161 1012 1153.5 1001 c 128,-1,46
 1146 990 1146 990 1134 986 c 128,-1,47
 1122 982 1122 982 1105 982 c 2,48,-1
 1049 982 l 1,49,-1
 783 604 l 1,50,-1
 1074 205 l 1,51,-1
 1135 205 l 2,52,53
 1152 205 1152 205 1164 201 c 128,-1,54
 1176 197 1176 197 1183.5 185.5 c 128,-1,55
 1191 174 1191 174 1194.5 154 c 128,-1,56
 1198 134 1198 134 1198 102 c 256,57,58
 1198 70 1198 70 1194.5 50 c 128,-1,59
 1191 30 1191 30 1183.5 19 c 128,-1,60
 1176 8 1176 8 1164 4 c 128,-1,61
 1152 0 1152 0 1135 0 c 2,62,-1
 731 0 l 2,63,64
 714 0 714 0 702 4 c 128,-1,65
 690 8 690 8 682.5 19 c 128,-1,66
 675 30 675 30 671.5 50 c 128,-1,67
 668 70 668 70 668 102 c 256,68,69
 668 134 668 134 671.5 154 c 128,-1,70
 675 174 675 174 682.5 185.5 c 128,-1,71
 690 197 690 197 702 201 c 128,-1,72
 714 205 714 205 731 205 c 2,73,-1
 783 205 l 1,74,-1
 610 449 l 1,75,-1
 439 205 l 1,76,-1
 477 205 l 2,77,78
 494 205 494 205 506 201 c 128,-1,79
 518 197 518 197 525.5 185.5 c 128,-1,80
 533 174 533 174 536.5 154 c 128,-1,81
 540 134 540 134 540 102 c 256,82,83
 540 70 540 70 536.5 50 c 128,-1,84
 533 30 533 30 525.5 19 c 128,-1,85
 518 8 518 8 506 4 c 128,-1,86
 494 0 494 0 477 0 c 2,87,-1
 93 0 l 2,88,89
 76 0 76 0 64 4 c 128,-1,90
 52 8 52 8 44.5 19 c 128,-1,91
 37 30 37 30 33.5 50 c 128,-1,92
 30 70 30 70 30 102 c 256,93,94
 30 134 30 134 33.5 154 c 128,-1,95
 37 174 37 174 44.5 185.5 c 128,-1,96
 52 197 52 197 64 201 c 128,-1,97
 76 205 76 205 93 205 c 2,98,-1
 155 205 l 1,99,-1
 446 615 l 1,0,-1
EndSplineSet
EndChar
StartChar: Y
Encoding: 89 89 57
Width: 1228
Flags: W
LayerCount: 2
Back
Fore
SplineSet
489 460 m 1,0,-1
 149 982 l 1,1,-1
 103 982 l 2,2,3
 86 982 86 982 74 986 c 128,-1,4
 62 990 62 990 54.5 1001 c 128,-1,5
 47 1012 47 1012 43.5 1032 c 128,-1,6
 40 1052 40 1052 40 1084 c 256,7,8
 40 1116 40 1116 43.5 1136 c 128,-1,9
 47 1156 47 1156 54.5 1167.5 c 128,-1,10
 62 1179 62 1179 74 1183 c 128,-1,11
 86 1187 86 1187 103 1187 c 2,12,-1
 497 1187 l 2,13,14
 514 1187 514 1187 526 1183 c 128,-1,15
 538 1179 538 1179 545.5 1167.5 c 128,-1,16
 553 1156 553 1156 556.5 1136 c 128,-1,17
 560 1116 560 1116 560 1084 c 256,18,19
 560 1052 560 1052 556.5 1032 c 128,-1,20
 553 1012 553 1012 545.5 1001 c 128,-1,21
 538 990 538 990 526 986 c 128,-1,22
 514 982 514 982 497 982 c 2,23,-1
 430 982 l 1,24,-1
 616 690 l 1,25,-1
 804 982 l 1,26,-1
 751 982 l 2,27,28
 734 982 734 982 722 986 c 128,-1,29
 710 990 710 990 702.5 1001 c 128,-1,30
 695 1012 695 1012 691.5 1032 c 128,-1,31
 688 1052 688 1052 688 1084 c 256,32,33
 688 1116 688 1116 691.5 1136 c 128,-1,34
 695 1156 695 1156 702.5 1167.5 c 128,-1,35
 710 1179 710 1179 722 1183 c 128,-1,36
 734 1187 734 1187 751 1187 c 2,37,-1
 1125 1187 l 2,38,39
 1142 1187 1142 1187 1154 1183 c 128,-1,40
 1166 1179 1166 1179 1173.5 1167.5 c 128,-1,41
 1181 1156 1181 1156 1184.5 1136 c 128,-1,42
 1188 1116 1188 1116 1188 1084 c 256,43,44
 1188 1052 1188 1052 1184.5 1032 c 128,-1,45
 1181 1012 1181 1012 1173.5 1001 c 128,-1,46
 1166 990 1166 990 1154 986 c 128,-1,47
 1142 982 1142 982 1125 982 c 2,48,-1
 1081 982 l 1,49,-1
 739 459 l 1,50,-1
 739 205 l 1,51,-1
 935 205 l 2,52,53
 952 205 952 205 964 201 c 128,-1,54
 976 197 976 197 983.5 185.5 c 128,-1,55
 991 174 991 174 994.5 154 c 128,-1,56
 998 134 998 134 998 102 c 256,57,58
 998 70 998 70 994.5 50 c 128,-1,59
 991 30 991 30 983.5 19 c 128,-1,60
 976 8 976 8 964 4 c 128,-1,61
 952 0 952 0 935 0 c 2,62,-1
 293 0 l 2,63,64
 276 0 276 0 264 4 c 128,-1,65
 252 8 252 8 244.5 19 c 128,-1,66
 237 30 237 30 233.5 50 c 128,-1,67
 230 70 230 70 230 102 c 256,68,69
 230 134 230 134 233.5 154 c 128,-1,70
 237 174 237 174 244.5 185.5 c 128,-1,71
 252 197 252 197 264 201 c 128,-1,72
 276 205 276 205 293 205 c 2,73,-1
 489 205 l 1,74,-1
 489 460 l 1,0,-1
EndSplineSet
EndChar
StartChar: Z
Encoding: 90 90 58
Width: 1228
Flags: W
LayerCount: 2
Back
Fore
SplineSet
850 215 m 1,0,-1
 850 437 l 2,1,2
 850 471 850 471 879 485.5 c 128,-1,3
 908 500 908 500 972 500 c 0,4,5
 1004 500 1004 500 1025 496.5 c 128,-1,6
 1046 493 1046 493 1058 485.5 c 128,-1,7
 1070 478 1070 478 1075 466 c 128,-1,8
 1080 454 1080 454 1080 437 c 2,9,-1
 1080 65 l 2,10,11
 1080 30 1080 30 1065 15 c 128,-1,12
 1050 0 1050 0 1015 0 c 2,13,-1
 201 0 l 2,14,15
 184 0 184 0 172 4 c 128,-1,16
 160 8 160 8 152.5 19 c 128,-1,17
 145 30 145 30 141.5 50 c 128,-1,18
 138 70 138 70 138 102 c 0,19,20
 138 168 138 168 158 195 c 2,21,-1
 732 972 l 1,22,-1
 398 972 l 1,23,-1
 398 770 l 2,24,25
 398 736 398 736 369 721.5 c 128,-1,26
 340 707 340 707 276 707 c 0,27,28
 244 707 244 707 223 710.5 c 128,-1,29
 202 714 202 714 190 721.5 c 128,-1,30
 178 729 178 729 173 741 c 128,-1,31
 168 753 168 753 168 770 c 2,32,-1
 168 1122 l 2,33,34
 168 1157 168 1157 183 1172 c 128,-1,35
 198 1187 198 1187 233 1187 c 2,36,-1
 1017 1187 l 2,37,38
 1034 1187 1034 1187 1046 1183 c 128,-1,39
 1058 1179 1058 1179 1065.5 1167.5 c 128,-1,40
 1073 1156 1073 1156 1076.5 1136 c 128,-1,41
 1080 1116 1080 1116 1080 1084 c 256,42,43
 1080 1052 1080 1052 1074 1029.5 c 128,-1,44
 1068 1007 1068 1007 1057 992 c 2,45,-1
 483 215 l 1,46,-1
 850 215 l 1,0,-1
EndSplineSet
EndChar
StartChar: bracketleft
Encoding: 91 91 59
Width: 1228
Flags: W
LayerCount: 2
Back
Fore
SplineSet
863 -188 m 2,0,1
 880 -188 880 -188 892 -192 c 128,-1,2
 904 -196 904 -196 911.5 -207 c 128,-1,3
 919 -218 919 -218 922.5 -238 c 128,-1,4
 926 -258 926 -258 926 -290 c 256,5,6
 926 -322 926 -322 922.5 -342 c 128,-1,7
 919 -362 919 -362 911.5 -373.5 c 128,-1,8
 904 -385 904 -385 892 -389 c 128,-1,9
 880 -393 880 -393 863 -393 c 2,10,-1
 353 -393 l 2,11,12
 319 -393 319 -393 304.5 -378.5 c 128,-1,13
 290 -364 290 -364 290 -330 c 2,14,-1
 290 1249 l 2,15,16
 290 1283 290 1283 304.5 1297.5 c 128,-1,17
 319 1312 319 1312 353 1312 c 2,18,-1
 863 1312 l 2,19,20
 880 1312 880 1312 892 1308 c 128,-1,21
 904 1304 904 1304 911.5 1292.5 c 128,-1,22
 919 1281 919 1281 922.5 1261 c 128,-1,23
 926 1241 926 1241 926 1209 c 256,24,25
 926 1177 926 1177 922.5 1157 c 128,-1,26
 919 1137 919 1137 911.5 1126 c 128,-1,27
 904 1115 904 1115 892 1111 c 128,-1,28
 880 1107 880 1107 863 1107 c 2,29,-1
 540 1107 l 1,30,-1
 540 -188 l 1,31,-1
 863 -188 l 2,0,1
EndSplineSet
EndChar
StartChar: backslash
Encoding: 92 92 60
Width: 1228
Flags: W
LayerCount: 2
Back
Fore
SplineSet
171 1221 m 2,0,1
 159 1248 159 1248 169.5 1269.5 c 128,-1,2
 180 1291 180 1291 203.5 1306.5 c 128,-1,3
 227 1322 227 1322 257.5 1330.5 c 128,-1,4
 288 1339 288 1339 317 1339 c 0,5,6
 344 1339 344 1339 365.5 1330.5 c 128,-1,7
 387 1322 387 1322 395 1305 c 2,8,-1
 1057 -183 l 2,9,10
 1069 -209 1069 -209 1058 -230.5 c 128,-1,11
 1047 -252 1047 -252 1023.5 -267.5 c 128,-1,12
 1000 -283 1000 -283 969 -291.5 c 128,-1,13
 938 -300 938 -300 909 -300 c 0,14,15
 883 -300 883 -300 862 -292 c 128,-1,16
 841 -284 841 -284 833 -267 c 2,17,-1
 171 1221 l 2,0,1
EndSplineSet
EndChar
StartChar: bracketright
Encoding: 93 93 61
Width: 1228
Flags: W
LayerCount: 2
Back
Fore
SplineSet
688 1107 m 1,0,-1
 365 1107 l 2,1,2
 348 1107 348 1107 336 1111 c 128,-1,3
 324 1115 324 1115 316.5 1126 c 128,-1,4
 309 1137 309 1137 305.5 1157 c 128,-1,5
 302 1177 302 1177 302 1209 c 256,6,7
 302 1241 302 1241 305.5 1261 c 128,-1,8
 309 1281 309 1281 316.5 1292.5 c 128,-1,9
 324 1304 324 1304 336 1308 c 128,-1,10
 348 1312 348 1312 365 1312 c 2,11,-1
 875 1312 l 2,12,13
 909 1312 909 1312 923.5 1297.5 c 128,-1,14
 938 1283 938 1283 938 1249 c 2,15,-1
 938 -330 l 2,16,17
 938 -364 938 -364 923.5 -378.5 c 128,-1,18
 909 -393 909 -393 875 -393 c 2,19,-1
 365 -393 l 2,20,21
 348 -393 348 -393 336 -389 c 128,-1,22
 324 -385 324 -385 316.5 -373.5 c 128,-1,23
 309 -362 309 -362 305.5 -342 c 128,-1,24
 302 -322 302 -322 302 -290 c 256,25,26
 302 -258 302 -258 305.5 -238 c 128,-1,27
 309 -218 309 -218 316.5 -207 c 128,-1,28
 324 -196 324 -196 336 -192 c 128,-1,29
 348 -188 348 -188 365 -188 c 2,30,-1
 688 -188 l 1,31,-1
 688 1107 l 1,0,-1
EndSplineSet
EndChar
StartChar: asciicircum
Encoding: 94 94 62
Width: 1228
Flags: W
LayerCount: 2
Back
Fore
SplineSet
427 497 m 2,0,1
 421 485 421 485 407 478.5 c 128,-1,2
 393 472 393 472 373.5 469.5 c 128,-1,3
 354 467 354 467 332 469 c 128,-1,4
 310 471 310 471 288 476 c 0,5,6
 265 481 265 481 245.5 489.5 c 128,-1,7
 226 498 226 498 212.5 509 c 128,-1,8
 199 520 199 520 194.5 533.5 c 128,-1,9
 190 547 190 547 198 562 c 2,10,-1
 516 1172 l 2,11,12
 525 1190 525 1190 547 1199.5 c 128,-1,13
 569 1209 569 1209 614 1209 c 0,14,15
 658 1209 658 1209 680.5 1199.5 c 128,-1,16
 703 1190 703 1190 712 1172 c 2,17,-1
 1030 562 l 2,18,19
 1038 547 1038 547 1033.5 533.5 c 128,-1,20
 1029 520 1029 520 1015.5 509 c 128,-1,21
 1002 498 1002 498 982 489.5 c 128,-1,22
 962 481 962 481 940 476 c 256,23,24
 918 471 918 471 896 469 c 128,-1,25
 874 467 874 467 854.5 469.5 c 128,-1,26
 835 472 835 472 821 478.5 c 128,-1,27
 807 485 807 485 801 497 c 2,28,-1
 614 887 l 1,29,-1
 427 497 l 2,0,1
EndSplineSet
EndChar
StartChar: underscore
Encoding: 95 95 63
Width: 1228
Flags: W
LayerCount: 2
Back
Fore
SplineSet
-5 -513 m 2,0,1
 -14 -513 -14 -513 -20.5 -509 c 128,-1,2
 -27 -505 -27 -505 -31 -493 c 128,-1,3
 -35 -481 -35 -481 -36.5 -459 c 128,-1,4
 -38 -437 -38 -437 -38 -401 c 256,5,6
 -38 -365 -38 -365 -36.5 -343 c 128,-1,7
 -35 -321 -35 -321 -31 -309 c 128,-1,8
 -27 -297 -27 -297 -20.5 -292.5 c 128,-1,9
 -14 -288 -14 -288 -5 -288 c 2,10,-1
 1233 -288 l 2,11,12
 1242 -288 1242 -288 1248.5 -292.5 c 128,-1,13
 1255 -297 1255 -297 1259 -309 c 128,-1,14
 1263 -321 1263 -321 1264.5 -343 c 128,-1,15
 1266 -365 1266 -365 1266 -401 c 256,16,17
 1266 -437 1266 -437 1264.5 -459 c 128,-1,18
 1263 -481 1263 -481 1259 -493 c 128,-1,19
 1255 -505 1255 -505 1248.5 -509 c 128,-1,20
 1242 -513 1242 -513 1233 -513 c 2,21,-1
 -5 -513 l 2,0,1
EndSplineSet
EndChar
StartChar: grave
Encoding: 96 96 64
Width: 1228
Flags: W
LayerCount: 2
Back
Fore
SplineSet
812 1145 m 2,0,1
 832 1133 832 1133 837.5 1113.5 c 128,-1,2
 843 1094 843 1094 835 1072 c 0,3,4
 827 1049 827 1049 809 1037.5 c 128,-1,5
 791 1026 791 1026 767 1033 c 2,6,-1
 287 1158 l 2,7,8
 261 1165 261 1165 257.5 1198.5 c 128,-1,9
 254 1232 254 1232 284 1301 c 0,10,11
 314 1369 314 1369 345 1388.5 c 128,-1,12
 376 1408 376 1408 404 1392 c 2,13,-1
 812 1145 l 2,0,1
EndSplineSet
EndChar
StartChar: a
Encoding: 97 97 65
Width: 1228
Flags: W
LayerCount: 2
Back
Fore
SplineSet
822 106 m 1,0,1
 745 46 745 46 657.5 12 c 128,-1,2
 570 -22 570 -22 474 -22 c 0,3,4
 388 -22 388 -22 320.5 0 c 128,-1,5
 253 22 253 22 206 63.5 c 128,-1,6
 159 105 159 105 134.5 163.5 c 128,-1,7
 110 222 110 222 110 295 c 0,8,9
 110 365 110 365 135.5 420 c 128,-1,10
 161 475 161 475 209.5 512.5 c 128,-1,11
 258 550 258 550 327.5 569.5 c 128,-1,12
 397 589 397 589 486 589 c 0,13,14
 619 589 619 589 769 559 c 1,15,-1
 769 588 l 2,16,17
 769 619 769 619 759 643.5 c 128,-1,18
 749 668 749 668 726.5 685 c 128,-1,19
 704 702 704 702 666.5 710.5 c 128,-1,20
 629 719 629 719 575 719 c 0,21,22
 515 719 515 719 444 704 c 128,-1,23
 373 689 373 689 304 666 c 0,24,25
 288 661 288 661 274 660.5 c 128,-1,26
 260 660 260 660 247 667.5 c 128,-1,27
 234 675 234 675 222 692.5 c 128,-1,28
 210 710 210 710 199 740 c 0,29,30
 177 800 177 800 184 832 c 128,-1,31
 191 864 191 864 226 877 c 0,32,33
 273 894 273 894 322.5 907 c 128,-1,34
 372 920 372 920 420.5 928.5 c 128,-1,35
 469 937 469 937 515.5 941.5 c 128,-1,36
 562 946 562 946 603 946 c 0,37,38
 717 946 717 946 796.5 920.5 c 128,-1,39
 876 895 876 895 925.5 847 c 128,-1,40
 975 799 975 799 997 731 c 128,-1,41
 1019 663 1019 663 1019 579 c 2,42,-1
 1019 290 l 2,43,44
 1019 250 1019 250 1036 227.5 c 128,-1,45
 1053 205 1053 205 1085 205 c 2,46,-1
 1116 205 l 2,47,48
 1133 205 1133 205 1145 201 c 128,-1,49
 1157 197 1157 197 1164.5 185.5 c 128,-1,50
 1172 174 1172 174 1175.5 154 c 128,-1,51
 1179 134 1179 134 1179 102 c 256,52,53
 1179 70 1179 70 1175.5 50 c 128,-1,54
 1172 30 1172 30 1164.5 19 c 128,-1,55
 1157 8 1157 8 1145 4 c 128,-1,56
 1133 0 1133 0 1116 0 c 2,57,-1
 1004 0 l 2,58,59
 944 0 944 0 896 24.5 c 128,-1,60
 848 49 848 49 822 106 c 1,0,1
769 356 m 1,61,62
 699 370 699 370 635.5 376.5 c 128,-1,63
 572 383 572 383 511 383 c 0,64,65
 440 383 440 383 404 358 c 128,-1,66
 368 333 368 333 368 285 c 256,67,68
 368 237 368 237 403.5 213 c 128,-1,69
 439 189 439 189 506 189 c 0,70,71
 578 189 578 189 645 217.5 c 128,-1,72
 712 246 712 246 769 292 c 1,73,-1
 769 356 l 1,61,62
EndSplineSet
EndChar
StartChar: b
Encoding: 98 98 66
Width: 1228
Flags: W
LayerCount: 2
Back
Fore
SplineSet
187 1107 m 1,0,-1
 90 1107 l 2,1,2
 73 1107 73 1107 61 1111 c 128,-1,3
 49 1115 49 1115 41.5 1126 c 128,-1,4
 34 1137 34 1137 30.5 1157 c 128,-1,5
 27 1177 27 1177 27 1209 c 256,6,7
 27 1241 27 1241 30.5 1261 c 128,-1,8
 34 1281 34 1281 41.5 1292.5 c 128,-1,9
 49 1304 49 1304 61 1308 c 128,-1,10
 73 1312 73 1312 90 1312 c 2,11,-1
 374 1312 l 2,12,13
 408 1312 408 1312 422.5 1297.5 c 128,-1,14
 437 1283 437 1283 437 1249 c 2,15,-1
 437 828 l 1,16,17
 488 884 488 884 554 915 c 128,-1,18
 620 946 620 946 700 946 c 0,19,20
 801 946 801 946 881 908.5 c 128,-1,21
 961 871 961 871 1016.5 805.5 c 128,-1,22
 1072 740 1072 740 1101.5 651.5 c 128,-1,23
 1131 563 1131 563 1131 462 c 256,24,25
 1131 361 1131 361 1101.5 272.5 c 128,-1,26
 1072 184 1072 184 1016.5 118.5 c 128,-1,27
 961 53 961 53 881 15.5 c 128,-1,28
 801 -22 801 -22 700 -22 c 0,29,30
 603 -22 603 -22 525.5 23 c 128,-1,31
 448 68 448 68 397 147 c 1,32,-1
 397 63 l 2,33,34
 397 29 397 29 382.5 14.5 c 128,-1,35
 368 0 368 0 334 0 c 2,36,-1
 110 0 l 2,37,38
 93 0 93 0 81 4 c 128,-1,39
 69 8 69 8 61.5 19.5 c 128,-1,40
 54 31 54 31 50.5 51 c 128,-1,41
 47 71 47 71 47 103 c 256,42,43
 47 135 47 135 50.5 155 c 128,-1,44
 54 175 54 175 61.5 186 c 128,-1,45
 69 197 69 197 81 201 c 128,-1,46
 93 205 93 205 110 205 c 2,47,-1
 187 205 l 1,48,-1
 187 1107 l 1,0,-1
430 462 m 256,49,50
 430 400 430 400 448.5 352 c 128,-1,51
 467 304 467 304 498.5 271.5 c 128,-1,52
 530 239 530 239 571.5 222 c 128,-1,53
 613 205 613 205 660 205 c 256,54,55
 707 205 707 205 744.5 223 c 128,-1,56
 782 241 782 241 808.5 275 c 128,-1,57
 835 309 835 309 849 356 c 128,-1,58
 863 403 863 403 863 462 c 0,59,60
 863 520 863 520 849 567.5 c 128,-1,61
 835 615 835 615 808.5 649 c 128,-1,62
 782 683 782 683 744.5 701 c 128,-1,63
 707 719 707 719 660 719 c 256,64,65
 613 719 613 719 571.5 702 c 128,-1,66
 530 685 530 685 498.5 652.5 c 128,-1,67
 467 620 467 620 448.5 572 c 128,-1,68
 430 524 430 524 430 462 c 256,49,50
EndSplineSet
EndChar
StartChar: c
Encoding: 99 99 67
Width: 1228
Flags: W
LayerCount: 2
Back
Fore
SplineSet
948 299 m 0,0,1
 977 316 977 316 1006 302.5 c 128,-1,2
 1035 289 1035 289 1060 230 c 256,3,4
 1085 171 1085 171 1075.5 138 c 128,-1,5
 1066 105 1066 105 1035 88 c 0,6,7
 945 38 945 38 843 8 c 128,-1,8
 741 -22 741 -22 634 -22 c 0,9,10
 518 -22 518 -22 424.5 14 c 128,-1,11
 331 50 331 50 265 114.5 c 128,-1,12
 199 179 199 179 163 268 c 128,-1,13
 127 357 127 357 127 462 c 0,14,15
 127 569 127 569 163.5 658 c 128,-1,16
 200 747 200 747 264.5 811 c 128,-1,17
 329 875 329 875 416 910.5 c 128,-1,18
 503 946 503 946 604 946 c 0,19,20
 685 946 685 946 741.5 917.5 c 128,-1,21
 798 889 798 889 833 829 c 1,22,-1
 833 883 l 2,23,24
 833 917 833 917 862 931.5 c 128,-1,25
 891 946 891 946 955 946 c 0,26,27
 987 946 987 946 1008 942.5 c 128,-1,28
 1029 939 1029 939 1041 931.5 c 128,-1,29
 1053 924 1053 924 1058 912 c 128,-1,30
 1063 900 1063 900 1063 883 c 2,31,-1
 1063 562 l 2,32,33
 1063 528 1063 528 1033 513.5 c 128,-1,34
 1003 499 1003 499 931 499 c 0,35,36
 895 499 895 499 872.5 502.5 c 128,-1,37
 850 506 850 506 836.5 513.5 c 128,-1,38
 823 521 823 521 818 533 c 128,-1,39
 813 545 813 545 813 562 c 0,40,41
 813 593 813 593 802 621 c 128,-1,42
 791 649 791 649 768.5 671 c 128,-1,43
 746 693 746 693 712.5 706 c 128,-1,44
 679 719 679 719 634 719 c 0,45,46
 580 719 580 719 535.5 701 c 128,-1,47
 491 683 491 683 460 649 c 128,-1,48
 429 615 429 615 412 567.5 c 128,-1,49
 395 520 395 520 395 462 c 0,50,51
 395 403 395 403 412 356 c 128,-1,52
 429 309 429 309 460 275 c 128,-1,53
 491 241 491 241 535.5 223 c 128,-1,54
 580 205 580 205 634 205 c 0,55,56
 714 205 714 205 794 230.5 c 128,-1,57
 874 256 874 256 948 299 c 0,0,1
EndSplineSet
EndChar
StartChar: d
Encoding: 100 100 68
Width: 1228
Flags: W
LayerCount: 2
Back
Fore
SplineSet
1128 205 m 2,0,1
 1145 205 1145 205 1157 201 c 128,-1,2
 1169 197 1169 197 1176.5 186 c 128,-1,3
 1184 175 1184 175 1187.5 155 c 128,-1,4
 1191 135 1191 135 1191 103 c 256,5,6
 1191 71 1191 71 1187.5 51 c 128,-1,7
 1184 31 1184 31 1176.5 19.5 c 128,-1,8
 1169 8 1169 8 1157 4 c 128,-1,9
 1145 0 1145 0 1128 0 c 2,10,-1
 894 0 l 2,11,12
 860 0 860 0 845.5 14.5 c 128,-1,13
 831 29 831 29 831 63 c 2,14,-1
 831 132 l 1,15,16
 779 58 779 58 702 18 c 128,-1,17
 625 -22 625 -22 528 -22 c 0,18,19
 429 -22 429 -22 349.5 13.5 c 128,-1,20
 270 49 270 49 213.5 111.5 c 128,-1,21
 157 174 157 174 127 260 c 128,-1,22
 97 346 97 346 97 447 c 256,23,24
 97 548 97 548 127 634 c 128,-1,25
 157 720 157 720 213.5 782.5 c 128,-1,26
 270 845 270 845 349.5 880.5 c 128,-1,27
 429 916 429 916 528 916 c 0,28,29
 607 916 607 916 673.5 886 c 128,-1,30
 740 856 740 856 791 801 c 1,31,-1
 791 1107 l 1,32,-1
 594 1107 l 2,33,34
 577 1107 577 1107 565 1111 c 128,-1,35
 553 1115 553 1115 545.5 1126 c 128,-1,36
 538 1137 538 1137 534.5 1157 c 128,-1,37
 531 1177 531 1177 531 1209 c 256,38,39
 531 1241 531 1241 534.5 1261 c 128,-1,40
 538 1281 538 1281 545.5 1292.5 c 128,-1,41
 553 1304 553 1304 565 1308 c 128,-1,42
 577 1312 577 1312 594 1312 c 2,43,-1
 978 1312 l 2,44,45
 1012 1312 1012 1312 1026.5 1297.5 c 128,-1,46
 1041 1283 1041 1283 1041 1249 c 2,47,-1
 1041 205 l 1,48,-1
 1128 205 l 2,0,1
798 447 m 256,49,50
 798 508 798 508 779.5 553.5 c 128,-1,51
 761 599 761 599 729.5 629 c 128,-1,52
 698 659 698 659 656.5 674 c 128,-1,53
 615 689 615 689 568 689 c 0,54,55
 476 689 476 689 420.5 627 c 128,-1,56
 365 565 365 565 365 447 c 256,57,58
 365 329 365 329 420.5 267 c 128,-1,59
 476 205 476 205 568 205 c 0,60,61
 615 205 615 205 656.5 220 c 128,-1,62
 698 235 698 235 729.5 265 c 128,-1,63
 761 295 761 295 779.5 340.5 c 128,-1,64
 798 386 798 386 798 447 c 256,49,50
EndSplineSet
EndChar
StartChar: e
Encoding: 101 101 69
Width: 1228
Flags: W
LayerCount: 2
Back
Fore
SplineSet
960 260 m 0,0,1
 992 270 992 270 1013 253.5 c 128,-1,2
 1034 237 1034 237 1051 176 c 0,3,4
 1059 145 1059 145 1061 123.5 c 128,-1,5
 1063 102 1063 102 1058 87.5 c 128,-1,6
 1053 73 1053 73 1041.5 64 c 128,-1,7
 1030 55 1030 55 1012 49 c 0,8,9
 912 16 912 16 802 -3 c 128,-1,10
 692 -22 692 -22 584 -22 c 0,11,12
 472 -22 472 -22 385 14 c 128,-1,13
 298 50 298 50 238.5 114.5 c 128,-1,14
 179 179 179 179 148 268 c 128,-1,15
 117 357 117 357 117 462 c 256,16,17
 117 567 117 567 151 655.5 c 128,-1,18
 185 744 185 744 249.5 808.5 c 128,-1,19
 314 873 314 873 406 909.5 c 128,-1,20
 498 946 498 946 614 946 c 0,21,22
 731 946 731 946 820 907.5 c 128,-1,23
 909 869 909 869 968.5 800.5 c 128,-1,24
 1028 732 1028 732 1058.5 637.5 c 128,-1,25
 1089 543 1089 543 1089 432 c 0,26,27
 1089 398 1089 398 1074.5 384 c 128,-1,28
 1060 370 1060 370 1026 370 c 2,29,-1
 384 370 l 1,30,31
 404 289 404 289 460 247 c 128,-1,32
 516 205 516 205 604 205 c 0,33,34
 685 205 685 205 772.5 217.5 c 128,-1,35
 860 230 860 230 960 260 c 0,0,1
828 565 m 1,36,37
 811 637 811 637 756 678 c 128,-1,38
 701 719 701 719 614 719 c 0,39,40
 523 719 523 719 466.5 681 c 128,-1,41
 410 643 410 643 388 565 c 1,42,-1
 828 565 l 1,36,37
EndSplineSet
EndChar
StartChar: f
Encoding: 102 102 70
Width: 1228
Flags: W
LayerCount: 2
Back
Fore
SplineSet
413 205 m 1,0,-1
 413 649 l 1,1,-1
 230 649 l 2,2,3
 213 649 213 649 201 654 c 128,-1,4
 189 659 189 659 181.5 671 c 128,-1,5
 174 683 174 683 170.5 703.5 c 128,-1,6
 167 724 167 724 167 756 c 256,7,8
 167 788 167 788 170.5 809 c 128,-1,9
 174 830 174 830 181.5 842 c 128,-1,10
 189 854 189 854 201 859 c 128,-1,11
 213 864 213 864 230 864 c 2,12,-1
 413 864 l 1,13,-1
 413 937 l 2,14,15
 413 1125 413 1125 504 1221 c 128,-1,16
 595 1317 595 1317 770 1317 c 0,17,18
 841 1317 841 1317 916.5 1304 c 128,-1,19
 992 1291 992 1291 1074 1260 c 0,20,21
 1091 1254 1091 1254 1102.5 1244 c 128,-1,22
 1114 1234 1114 1234 1119.5 1218.5 c 128,-1,23
 1125 1203 1125 1203 1123.5 1181 c 128,-1,24
 1122 1159 1122 1159 1114 1128 c 0,25,26
 1106 1098 1106 1098 1095.5 1080 c 128,-1,27
 1085 1062 1085 1062 1072 1054 c 128,-1,28
 1059 1046 1059 1046 1044.5 1046 c 128,-1,29
 1030 1046 1030 1046 1014 1051 c 0,30,31
 950 1071 950 1071 896.5 1080.5 c 128,-1,32
 843 1090 843 1090 792 1090 c 0,33,34
 730 1090 730 1090 696.5 1050.5 c 128,-1,35
 663 1011 663 1011 663 924 c 2,36,-1
 663 864 l 1,37,-1
 974 864 l 2,38,39
 991 864 991 864 1003 859 c 128,-1,40
 1015 854 1015 854 1022.5 842 c 128,-1,41
 1030 830 1030 830 1033.5 809 c 128,-1,42
 1037 788 1037 788 1037 756 c 256,43,44
 1037 724 1037 724 1033.5 703.5 c 128,-1,45
 1030 683 1030 683 1022.5 671 c 128,-1,46
 1015 659 1015 659 1003 654 c 128,-1,47
 991 649 991 649 974 649 c 2,48,-1
 663 649 l 1,49,-1
 663 205 l 1,50,-1
 944 205 l 2,51,52
 961 205 961 205 973 201 c 128,-1,53
 985 197 985 197 992.5 185.5 c 128,-1,54
 1000 174 1000 174 1003.5 154 c 128,-1,55
 1007 134 1007 134 1007 102 c 256,56,57
 1007 70 1007 70 1003.5 50 c 128,-1,58
 1000 30 1000 30 992.5 19 c 128,-1,59
 985 8 985 8 973 4 c 128,-1,60
 961 0 961 0 944 0 c 2,61,-1
 230 0 l 2,62,63
 213 0 213 0 201 4 c 128,-1,64
 189 8 189 8 181.5 19 c 128,-1,65
 174 30 174 30 170.5 50 c 128,-1,66
 167 70 167 70 167 102 c 256,67,68
 167 134 167 134 170.5 154 c 128,-1,69
 174 174 174 174 181.5 185.5 c 128,-1,70
 189 197 189 197 201 201 c 128,-1,71
 213 205 213 205 230 205 c 2,72,-1
 413 205 l 1,0,-1
EndSplineSet
EndChar
StartChar: g
Encoding: 103 103 71
Width: 1228
Flags: W
LayerCount: 2
Back
Fore
SplineSet
1041 -4 m 2,0,1
 1041 -100 1041 -100 1012.5 -176 c 128,-1,2
 984 -252 984 -252 926.5 -305.5 c 128,-1,3
 869 -359 869 -359 782 -387 c 128,-1,4
 695 -415 695 -415 577 -415 c 0,5,6
 504 -415 504 -415 414 -400 c 128,-1,7
 324 -385 324 -385 224 -356 c 0,8,9
 189 -345 189 -345 180 -314 c 128,-1,10
 171 -283 171 -283 190 -221 c 0,11,12
 199 -191 199 -191 210 -173 c 128,-1,13
 221 -155 221 -155 233.5 -146.5 c 128,-1,14
 246 -138 246 -138 260 -137.5 c 128,-1,15
 274 -137 274 -137 290 -141 c 0,16,17
 360 -161 360 -161 433.5 -174.5 c 128,-1,18
 507 -188 507 -188 567 -188 c 0,19,20
 688 -188 688 -188 739.5 -136.5 c 128,-1,21
 791 -85 791 -85 791 16 c 2,22,-1
 791 123 l 1,23,24
 740 68 740 68 673.5 38 c 128,-1,25
 607 8 607 8 528 8 c 0,26,27
 429 8 429 8 349.5 43.5 c 128,-1,28
 270 79 270 79 213.5 141.5 c 128,-1,29
 157 204 157 204 127 290 c 128,-1,30
 97 376 97 376 97 477 c 256,31,32
 97 578 97 578 127 664 c 128,-1,33
 157 750 157 750 213.5 812.5 c 128,-1,34
 270 875 270 875 349.5 910.5 c 128,-1,35
 429 946 429 946 528 946 c 0,36,37
 625 946 625 946 702 906 c 128,-1,38
 779 866 779 866 831 791 c 1,39,-1
 831 861 l 2,40,41
 831 895 831 895 845.5 909.5 c 128,-1,42
 860 924 860 924 894 924 c 2,43,-1
 1128 924 l 2,44,45
 1145 924 1145 924 1157 920 c 128,-1,46
 1169 916 1169 916 1176.5 904.5 c 128,-1,47
 1184 893 1184 893 1187.5 873 c 128,-1,48
 1191 853 1191 853 1191 821 c 256,49,50
 1191 789 1191 789 1187.5 769 c 128,-1,51
 1184 749 1184 749 1176.5 738 c 128,-1,52
 1169 727 1169 727 1157 723 c 128,-1,53
 1145 719 1145 719 1128 719 c 2,54,-1
 1041 719 l 1,55,-1
 1041 -4 l 2,0,1
798 477 m 256,56,57
 798 538 798 538 779.5 583.5 c 128,-1,58
 761 629 761 629 729.5 659 c 128,-1,59
 698 689 698 689 656.5 704 c 128,-1,60
 615 719 615 719 568 719 c 0,61,62
 476 719 476 719 420.5 657 c 128,-1,63
 365 595 365 595 365 477 c 256,64,65
 365 359 365 359 420.5 297 c 128,-1,66
 476 235 476 235 568 235 c 0,67,68
 615 235 615 235 656.5 250 c 128,-1,69
 698 265 698 265 729.5 295 c 128,-1,70
 761 325 761 325 779.5 370.5 c 128,-1,71
 798 416 798 416 798 477 c 256,56,57
EndSplineSet
EndChar
StartChar: h
Encoding: 104 104 72
Width: 1228
Flags: W
LayerCount: 2
Back
Fore
SplineSet
207 1107 m 1,0,-1
 110 1107 l 2,1,2
 93 1107 93 1107 81 1111 c 128,-1,3
 69 1115 69 1115 61.5 1126 c 128,-1,4
 54 1137 54 1137 50.5 1157 c 128,-1,5
 47 1177 47 1177 47 1209 c 256,6,7
 47 1241 47 1241 50.5 1261 c 128,-1,8
 54 1281 54 1281 61.5 1292.5 c 128,-1,9
 69 1304 69 1304 81 1308 c 128,-1,10
 93 1312 93 1312 110 1312 c 2,11,-1
 394 1312 l 2,12,13
 428 1312 428 1312 442.5 1297.5 c 128,-1,14
 457 1283 457 1283 457 1249 c 2,15,-1
 457 763 l 1,16,17
 520 859 520 859 592 902.5 c 128,-1,18
 664 946 664 946 747 946 c 0,19,20
 816 946 816 946 872 923 c 128,-1,21
 928 900 928 900 967 858 c 128,-1,22
 1006 816 1006 816 1027.5 755.5 c 128,-1,23
 1049 695 1049 695 1049 620 c 2,24,-1
 1049 205 l 1,25,-1
 1126 205 l 2,26,27
 1143 205 1143 205 1155 201 c 128,-1,28
 1167 197 1167 197 1174.5 185.5 c 128,-1,29
 1182 174 1182 174 1185.5 154 c 128,-1,30
 1189 134 1189 134 1189 102 c 256,31,32
 1189 70 1189 70 1185.5 50 c 128,-1,33
 1182 30 1182 30 1174.5 19 c 128,-1,34
 1167 8 1167 8 1155 4 c 128,-1,35
 1143 0 1143 0 1126 0 c 2,36,-1
 752 0 l 2,37,38
 735 0 735 0 723 4 c 128,-1,39
 711 8 711 8 703.5 19 c 128,-1,40
 696 30 696 30 692.5 50 c 128,-1,41
 689 70 689 70 689 102 c 256,42,43
 689 134 689 134 692.5 154 c 128,-1,44
 696 174 696 174 703.5 185.5 c 128,-1,45
 711 197 711 197 723 201 c 128,-1,46
 735 205 735 205 752 205 c 2,47,-1
 799 205 l 1,48,-1
 799 561 l 2,49,50
 799 635 799 635 773.5 677 c 128,-1,51
 748 719 748 719 682 719 c 0,52,53
 637 719 637 719 596.5 690.5 c 128,-1,54
 556 662 556 662 525 614 c 128,-1,55
 494 566 494 566 475.5 502 c 128,-1,56
 457 438 457 438 457 368 c 2,57,-1
 457 205 l 1,58,-1
 504 205 l 2,59,60
 521 205 521 205 533 201 c 128,-1,61
 545 197 545 197 552.5 185.5 c 128,-1,62
 560 174 560 174 563.5 154 c 128,-1,63
 567 134 567 134 567 102 c 256,64,65
 567 70 567 70 563.5 50 c 128,-1,66
 560 30 560 30 552.5 19 c 128,-1,67
 545 8 545 8 533 4 c 128,-1,68
 521 0 521 0 504 0 c 2,69,-1
 130 0 l 2,70,71
 113 0 113 0 101 4 c 128,-1,72
 89 8 89 8 81.5 19 c 128,-1,73
 74 30 74 30 70.5 50 c 128,-1,74
 67 70 67 70 67 102 c 256,75,76
 67 134 67 134 70.5 154 c 128,-1,77
 74 174 74 174 81.5 185.5 c 128,-1,78
 89 197 89 197 101 201 c 128,-1,79
 113 205 113 205 130 205 c 2,80,-1
 207 205 l 1,81,-1
 207 1107 l 1,0,-1
EndSplineSet
EndChar
StartChar: j
Encoding: 106 106 74
Width: 1228
Flags: W
LayerCount: 2
Back
Fore
SplineSet
923 1156 m 2,0,1
 923 1122 923 1122 897 1107.5 c 128,-1,2
 871 1093 871 1093 800 1093 c 256,3,4
 729 1093 729 1093 701 1107.5 c 128,-1,5
 673 1122 673 1122 673 1156 c 2,6,-1
 673 1320 l 2,7,8
 673 1337 673 1337 678.5 1349 c 128,-1,9
 684 1361 684 1361 698 1368.5 c 128,-1,10
 712 1376 712 1376 735.5 1379.5 c 128,-1,11
 759 1383 759 1383 795 1383 c 0,12,13
 866 1383 866 1383 894.5 1368.5 c 128,-1,14
 923 1354 923 1354 923 1320 c 2,15,-1
 923 1156 l 2,0,1
290 719 m 2,16,17
 273 719 273 719 261 723 c 128,-1,18
 249 727 249 727 241.5 738 c 128,-1,19
 234 749 234 749 230.5 769 c 128,-1,20
 227 789 227 789 227 821 c 256,21,22
 227 853 227 853 230.5 873 c 128,-1,23
 234 893 234 893 241.5 904.5 c 128,-1,24
 249 916 249 916 261 920 c 128,-1,25
 273 924 273 924 290 924 c 2,26,-1
 860 924 l 2,27,28
 894 924 894 924 908.5 909.5 c 128,-1,29
 923 895 923 895 923 861 c 2,30,-1
 923 -35 l 2,31,32
 923 -223 923 -223 832 -319 c 128,-1,33
 741 -415 741 -415 566 -415 c 0,34,35
 479 -415 479 -415 389.5 -386 c 128,-1,36
 300 -357 300 -357 209 -311 c 0,37,38
 176 -295 176 -295 168.5 -265 c 128,-1,39
 161 -235 161 -235 185 -176 c 0,40,41
 197 -146 197 -146 209.5 -129.5 c 128,-1,42
 222 -113 222 -113 235.5 -106.5 c 128,-1,43
 249 -100 249 -100 263.5 -101.5 c 128,-1,44
 278 -103 278 -103 293 -110 c 0,45,46
 326 -125 326 -125 360 -139 c 128,-1,47
 394 -153 394 -153 426 -164 c 128,-1,48
 458 -175 458 -175 488 -181.5 c 128,-1,49
 518 -188 518 -188 544 -188 c 0,50,51
 606 -188 606 -188 639.5 -148.5 c 128,-1,52
 673 -109 673 -109 673 -22 c 2,53,-1
 673 719 l 1,54,-1
 290 719 l 2,16,17
EndSplineSet
EndChar
StartChar: k
Encoding: 107 107 175
Width: 1228
Flags: W
LayerCount: 2
Back
Fore
SplineSet
217 1107 m 1,0,-1
 120 1107 l 2,1,2
 103 1107 103 1107 91 1111 c 128,-1,3
 79 1115 79 1115 71.5 1126 c 128,-1,4
 64 1137 64 1137 60.5 1157 c 128,-1,5
 57 1177 57 1177 57 1209 c 256,6,7
 57 1241 57 1241 60.5 1261 c 128,-1,8
 64 1281 64 1281 71.5 1292.5 c 128,-1,9
 79 1304 79 1304 91 1308 c 128,-1,10
 103 1312 103 1312 120 1312 c 2,11,-1
 404 1312 l 2,12,13
 438 1312 438 1312 452.5 1297.5 c 128,-1,14
 467 1283 467 1283 467 1249 c 2,15,-1
 467 527 l 1,16,-1
 727 739 l 1,17,-1
 677 739 l 2,18,19
 660 739 660 739 648 743 c 128,-1,20
 636 747 636 747 628.5 757 c 128,-1,21
 621 767 621 767 617.5 785 c 128,-1,22
 614 803 614 803 614 831 c 0,23,24
 614 887 614 887 628.5 905.5 c 128,-1,25
 643 924 643 924 677 924 c 2,26,-1
 1091 924 l 2,27,28
 1125 924 1125 924 1139.5 905.5 c 128,-1,29
 1154 887 1154 887 1154 831 c 0,30,31
 1154 803 1154 803 1150.5 785 c 128,-1,32
 1147 767 1147 767 1139.5 757 c 128,-1,33
 1132 747 1132 747 1120 743 c 128,-1,34
 1108 739 1108 739 1091 739 c 2,35,-1
 1051 739 l 1,36,-1
 802 538 l 1,37,-1
 1045 205 l 1,38,-1
 1106 205 l 2,39,40
 1123 205 1123 205 1135 201 c 128,-1,41
 1147 197 1147 197 1154.5 185.5 c 128,-1,42
 1162 174 1162 174 1165.5 154 c 128,-1,43
 1169 134 1169 134 1169 102 c 256,44,45
 1169 70 1169 70 1165.5 50 c 128,-1,46
 1162 30 1162 30 1154.5 19 c 128,-1,47
 1147 8 1147 8 1135 4 c 128,-1,48
 1123 0 1123 0 1106 0 c 2,49,-1
 935 0 l 2,50,51
 912 0 912 0 892 9 c 128,-1,52
 872 18 872 18 857 40 c 2,53,-1
 605 390 l 1,54,-1
 467 285 l 1,55,-1
 467 205 l 1,56,-1
 554 205 l 2,57,58
 571 205 571 205 583 201 c 128,-1,59
 595 197 595 197 602.5 185.5 c 128,-1,60
 610 174 610 174 613.5 154 c 128,-1,61
 617 134 617 134 617 102 c 256,62,63
 617 70 617 70 613.5 50 c 128,-1,64
 610 30 610 30 602.5 19 c 128,-1,65
 595 8 595 8 583 4 c 128,-1,66
 571 0 571 0 554 0 c 2,67,-1
 140 0 l 2,68,69
 123 0 123 0 111 4 c 128,-1,70
 99 8 99 8 91.5 19 c 128,-1,71
 84 30 84 30 80.5 50 c 128,-1,72
 77 70 77 70 77 102 c 256,73,74
 77 134 77 134 80.5 154 c 128,-1,75
 84 174 84 174 91.5 185.5 c 128,-1,76
 99 197 99 197 111 201 c 128,-1,77
 123 205 123 205 140 205 c 2,78,-1
 217 205 l 1,79,-1
 217 1107 l 1,0,-1
EndSplineSet
EndChar
StartChar: l
Encoding: 108 108 75
Width: 1228
Flags: W
LayerCount: 2
Back
Fore
SplineSet
493 1107 m 1,0,-1
 260 1107 l 2,1,2
 243 1107 243 1107 231 1111 c 128,-1,3
 219 1115 219 1115 211.5 1126 c 128,-1,4
 204 1137 204 1137 200.5 1157 c 128,-1,5
 197 1177 197 1177 197 1209 c 256,6,7
 197 1241 197 1241 200.5 1261 c 128,-1,8
 204 1281 204 1281 211.5 1292.5 c 128,-1,9
 219 1304 219 1304 231 1308 c 128,-1,10
 243 1312 243 1312 260 1312 c 2,11,-1
 680 1312 l 2,12,13
 714 1312 714 1312 728.5 1297.5 c 128,-1,14
 743 1283 743 1283 743 1249 c 2,15,-1
 743 205 l 1,16,-1
 1024 205 l 2,17,18
 1041 205 1041 205 1053 201 c 128,-1,19
 1065 197 1065 197 1072.5 185.5 c 128,-1,20
 1080 174 1080 174 1083.5 154 c 128,-1,21
 1087 134 1087 134 1087 102 c 256,22,23
 1087 70 1087 70 1083.5 50 c 128,-1,24
 1080 30 1080 30 1072.5 19 c 128,-1,25
 1065 8 1065 8 1053 4 c 128,-1,26
 1041 0 1041 0 1024 0 c 2,27,-1
 220 0 l 2,28,29
 203 0 203 0 191 4 c 128,-1,30
 179 8 179 8 171.5 19 c 128,-1,31
 164 30 164 30 160.5 50 c 128,-1,32
 157 70 157 70 157 102 c 256,33,34
 157 134 157 134 160.5 154 c 128,-1,35
 164 174 164 174 171.5 185.5 c 128,-1,36
 179 197 179 197 191 201 c 128,-1,37
 203 205 203 205 220 205 c 2,38,-1
 493 205 l 1,39,-1
 493 1107 l 1,0,-1
EndSplineSet
EndChar
StartChar: m
Encoding: 109 109 76
Width: 1228
Flags: W
LayerCount: 2
Back
Fore
SplineSet
49 719 m 2,0,1
 32 719 32 719 20 723 c 128,-1,2
 8 727 8 727 0.5 738 c 128,-1,3
 -7 749 -7 749 -10.5 769 c 128,-1,4
 -14 789 -14 789 -14 821 c 256,5,6
 -14 853 -14 853 -10.5 873 c 128,-1,7
 -7 893 -7 893 0.5 904.5 c 128,-1,8
 8 916 8 916 20 920 c 128,-1,9
 32 924 32 924 49 924 c 2,10,-1
 223 924 l 2,11,12
 257 924 257 924 271.5 909.5 c 128,-1,13
 286 895 286 895 286 861 c 2,14,-1
 286 717 l 1,15,16
 334 832 334 832 397.5 889 c 128,-1,17
 461 946 461 946 536 946 c 0,18,19
 614 946 614 946 660.5 893 c 128,-1,20
 707 840 707 840 727 743 c 1,21,22
 774 845 774 845 834.5 895.5 c 128,-1,23
 895 946 895 946 966 946 c 0,24,25
 1010 946 1010 946 1046.5 928.5 c 128,-1,26
 1083 911 1083 911 1109 874 c 128,-1,27
 1135 837 1135 837 1149.5 779.5 c 128,-1,28
 1164 722 1164 722 1164 643 c 2,29,-1
 1164 63 l 2,30,31
 1164 29 1164 29 1149.5 14.5 c 128,-1,32
 1135 0 1135 0 1101 0 c 2,33,-1
 977 0 l 2,34,35
 943 0 943 0 928.5 14.5 c 128,-1,36
 914 29 914 29 914 63 c 2,37,-1
 914 586 l 2,38,39
 914 638 914 638 902 663.5 c 128,-1,40
 890 689 890 689 862 689 c 0,41,42
 816 689 816 689 788 618.5 c 128,-1,43
 760 548 760 548 760 403 c 2,44,-1
 760 63 l 2,45,46
 760 29 760 29 745.5 14.5 c 128,-1,47
 731 0 731 0 697 0 c 2,48,-1
 573 0 l 2,49,50
 539 0 539 0 524.5 14.5 c 128,-1,51
 510 29 510 29 510 63 c 2,52,-1
 510 586 l 2,53,54
 510 638 510 638 498 663.5 c 128,-1,55
 486 689 486 689 458 689 c 0,56,57
 412 689 412 689 384 618.5 c 128,-1,58
 356 548 356 548 356 403 c 2,59,-1
 356 63 l 2,60,61
 356 29 356 29 341.5 14.5 c 128,-1,62
 327 0 327 0 293 0 c 2,63,-1
 169 0 l 2,64,65
 135 0 135 0 120.5 14.5 c 128,-1,66
 106 29 106 29 106 63 c 2,67,-1
 106 719 l 1,68,-1
 49 719 l 2,0,1
EndSplineSet
EndChar
StartChar: n
Encoding: 110 110 77
Width: 1228
Flags: W
LayerCount: 2
Back
Fore
SplineSet
217 719 m 1,0,-1
 120 719 l 2,1,2
 103 719 103 719 91 723 c 128,-1,3
 79 727 79 727 71.5 738 c 128,-1,4
 64 749 64 749 60.5 769 c 128,-1,5
 57 789 57 789 57 821 c 256,6,7
 57 853 57 853 60.5 873 c 128,-1,8
 64 893 64 893 71.5 904.5 c 128,-1,9
 79 916 79 916 91 920 c 128,-1,10
 103 924 103 924 120 924 c 2,11,-1
 364 924 l 2,12,13
 398 924 398 924 412.5 909.5 c 128,-1,14
 427 895 427 895 427 861 c 2,15,-1
 427 716 l 1,16,17
 497 838 497 838 580 892 c 128,-1,18
 663 946 663 946 757 946 c 0,19,20
 826 946 826 946 882 923 c 128,-1,21
 938 900 938 900 977 858 c 128,-1,22
 1016 816 1016 816 1037.5 755.5 c 128,-1,23
 1059 695 1059 695 1059 620 c 2,24,-1
 1059 205 l 1,25,-1
 1136 205 l 2,26,27
 1153 205 1153 205 1165 201 c 128,-1,28
 1177 197 1177 197 1184.5 185.5 c 128,-1,29
 1192 174 1192 174 1195.5 154 c 128,-1,30
 1199 134 1199 134 1199 102 c 256,31,32
 1199 70 1199 70 1195.5 50 c 128,-1,33
 1192 30 1192 30 1184.5 19 c 128,-1,34
 1177 8 1177 8 1165 4 c 128,-1,35
 1153 0 1153 0 1136 0 c 2,36,-1
 762 0 l 2,37,38
 745 0 745 0 733 4 c 128,-1,39
 721 8 721 8 713.5 19 c 128,-1,40
 706 30 706 30 702.5 50 c 128,-1,41
 699 70 699 70 699 102 c 256,42,43
 699 134 699 134 702.5 154 c 128,-1,44
 706 174 706 174 713.5 185.5 c 128,-1,45
 721 197 721 197 733 201 c 128,-1,46
 745 205 745 205 762 205 c 2,47,-1
 809 205 l 1,48,-1
 809 561 l 2,49,50
 809 635 809 635 783.5 677 c 128,-1,51
 758 719 758 719 692 719 c 0,52,53
 647 719 647 719 606.5 690.5 c 128,-1,54
 566 662 566 662 535 614 c 128,-1,55
 504 566 504 566 485.5 502 c 128,-1,56
 467 438 467 438 467 368 c 2,57,-1
 467 205 l 1,58,-1
 514 205 l 2,59,60
 531 205 531 205 543 201 c 128,-1,61
 555 197 555 197 562.5 185.5 c 128,-1,62
 570 174 570 174 573.5 154 c 128,-1,63
 577 134 577 134 577 102 c 256,64,65
 577 70 577 70 573.5 50 c 128,-1,66
 570 30 570 30 562.5 19 c 128,-1,67
 555 8 555 8 543 4 c 128,-1,68
 531 0 531 0 514 0 c 2,69,-1
 140 0 l 2,70,71
 123 0 123 0 111 4 c 128,-1,72
 99 8 99 8 91.5 19 c 128,-1,73
 84 30 84 30 80.5 50 c 128,-1,74
 77 70 77 70 77 102 c 256,75,76
 77 134 77 134 80.5 154 c 128,-1,77
 84 174 84 174 91.5 185.5 c 128,-1,78
 99 197 99 197 111 201 c 128,-1,79
 123 205 123 205 140 205 c 2,80,-1
 217 205 l 1,81,-1
 217 719 l 1,0,-1
EndSplineSet
EndChar
StartChar: o
Encoding: 111 111 78
Width: 1228
Flags: W
LayerCount: 2
Back
Fore
SplineSet
614 -22 m 256,0,1
 498 -22 498 -22 404.5 14 c 128,-1,2
 311 50 311 50 245 114.5 c 128,-1,3
 179 179 179 179 143 268 c 128,-1,4
 107 357 107 357 107 462 c 256,5,6
 107 567 107 567 143 655.5 c 128,-1,7
 179 744 179 744 245 808.5 c 128,-1,8
 311 873 311 873 404.5 909.5 c 128,-1,9
 498 946 498 946 614 946 c 256,10,11
 730 946 730 946 823.5 909.5 c 128,-1,12
 917 873 917 873 983 808.5 c 128,-1,13
 1049 744 1049 744 1085 655.5 c 128,-1,14
 1121 567 1121 567 1121 462 c 256,15,16
 1121 357 1121 357 1085 268 c 128,-1,17
 1049 179 1049 179 983 114.5 c 128,-1,18
 917 50 917 50 823.5 14 c 128,-1,19
 730 -22 730 -22 614 -22 c 256,0,1
614 719 m 256,20,21
 560 719 560 719 515.5 701 c 128,-1,22
 471 683 471 683 440 649 c 128,-1,23
 409 615 409 615 392 567.5 c 128,-1,24
 375 520 375 520 375 462 c 0,25,26
 375 403 375 403 392 356 c 128,-1,27
 409 309 409 309 440 275 c 128,-1,28
 471 241 471 241 515.5 223 c 128,-1,29
 560 205 560 205 614 205 c 256,30,31
 668 205 668 205 712.5 223 c 128,-1,32
 757 241 757 241 788 275 c 128,-1,33
 819 309 819 309 836 356 c 128,-1,34
 853 403 853 403 853 462 c 0,35,36
 853 520 853 520 836 567.5 c 128,-1,37
 819 615 819 615 788 649 c 128,-1,38
 757 683 757 683 712.5 701 c 128,-1,39
 668 719 668 719 614 719 c 256,20,21
EndSplineSet
EndChar
StartChar: p
Encoding: 112 112 79
Width: 1228
Flags: W
LayerCount: 2
Back
Fore
SplineSet
187 719 m 1,0,-1
 100 719 l 2,1,2
 83 719 83 719 71 723 c 128,-1,3
 59 727 59 727 51.5 738 c 128,-1,4
 44 749 44 749 40.5 769 c 128,-1,5
 37 789 37 789 37 821 c 256,6,7
 37 853 37 853 40.5 873 c 128,-1,8
 44 893 44 893 51.5 904.5 c 128,-1,9
 59 916 59 916 71 920 c 128,-1,10
 83 924 83 924 100 924 c 2,11,-1
 334 924 l 2,12,13
 368 924 368 924 382.5 909.5 c 128,-1,14
 397 895 397 895 397 861 c 2,15,-1
 397 791 l 1,16,17
 448 866 448 866 525.5 906 c 128,-1,18
 603 946 603 946 700 946 c 0,19,20
 799 946 799 946 878.5 910.5 c 128,-1,21
 958 875 958 875 1014.5 812.5 c 128,-1,22
 1071 750 1071 750 1101 664 c 128,-1,23
 1131 578 1131 578 1131 477 c 256,24,25
 1131 376 1131 376 1101 290 c 128,-1,26
 1071 204 1071 204 1014.5 141.5 c 128,-1,27
 958 79 958 79 878.5 43.5 c 128,-1,28
 799 8 799 8 700 8 c 0,29,30
 620 8 620 8 554 38 c 128,-1,31
 488 68 488 68 437 123 c 1,32,-1
 437 -188 l 1,33,-1
 684 -188 l 2,34,35
 701 -188 701 -188 713 -192 c 128,-1,36
 725 -196 725 -196 732.5 -207.5 c 128,-1,37
 740 -219 740 -219 743.5 -239 c 128,-1,38
 747 -259 747 -259 747 -291 c 256,39,40
 747 -323 747 -323 743.5 -343 c 128,-1,41
 740 -363 740 -363 732.5 -374 c 128,-1,42
 725 -385 725 -385 713 -389 c 128,-1,43
 701 -393 701 -393 684 -393 c 2,44,-1
 100 -393 l 2,45,46
 83 -393 83 -393 71 -389 c 128,-1,47
 59 -385 59 -385 51.5 -374 c 128,-1,48
 44 -363 44 -363 40.5 -343 c 128,-1,49
 37 -323 37 -323 37 -291 c 256,50,51
 37 -259 37 -259 40.5 -239 c 128,-1,52
 44 -219 44 -219 51.5 -207.5 c 128,-1,53
 59 -196 59 -196 71 -192 c 128,-1,54
 83 -188 83 -188 100 -188 c 2,55,-1
 187 -188 l 1,56,-1
 187 719 l 1,0,-1
430 477 m 256,57,58
 430 416 430 416 448.5 370.5 c 128,-1,59
 467 325 467 325 498.5 295 c 128,-1,60
 530 265 530 265 571.5 250 c 128,-1,61
 613 235 613 235 660 235 c 0,62,63
 752 235 752 235 807.5 297 c 128,-1,64
 863 359 863 359 863 477 c 256,65,66
 863 595 863 595 807.5 657 c 128,-1,67
 752 719 752 719 660 719 c 0,68,69
 613 719 613 719 571.5 704 c 128,-1,70
 530 689 530 689 498.5 659 c 128,-1,71
 467 629 467 629 448.5 583.5 c 128,-1,72
 430 538 430 538 430 477 c 256,57,58
EndSplineSet
EndChar
StartChar: q
Encoding: 113 113 80
Width: 1228
Flags: W
LayerCount: 2
Back
Fore
SplineSet
791 123 m 1,0,1
 740 68 740 68 673.5 38 c 128,-1,2
 607 8 607 8 528 8 c 0,3,4
 429 8 429 8 349.5 43.5 c 128,-1,5
 270 79 270 79 213.5 141.5 c 128,-1,6
 157 204 157 204 127 290 c 128,-1,7
 97 376 97 376 97 477 c 256,8,9
 97 578 97 578 127 664 c 128,-1,10
 157 750 157 750 213.5 812.5 c 128,-1,11
 270 875 270 875 349.5 910.5 c 128,-1,12
 429 946 429 946 528 946 c 0,13,14
 625 946 625 946 702 906 c 128,-1,15
 779 866 779 866 831 791 c 1,16,-1
 831 861 l 2,17,18
 831 895 831 895 845.5 909.5 c 128,-1,19
 860 924 860 924 894 924 c 2,20,-1
 1128 924 l 2,21,22
 1145 924 1145 924 1157 920 c 128,-1,23
 1169 916 1169 916 1176.5 904.5 c 128,-1,24
 1184 893 1184 893 1187.5 873 c 128,-1,25
 1191 853 1191 853 1191 821 c 256,26,27
 1191 789 1191 789 1187.5 769 c 128,-1,28
 1184 749 1184 749 1176.5 738 c 128,-1,29
 1169 727 1169 727 1157 723 c 128,-1,30
 1145 719 1145 719 1128 719 c 2,31,-1
 1041 719 l 1,32,-1
 1041 -188 l 1,33,-1
 1148 -188 l 2,34,35
 1165 -188 1165 -188 1177 -192 c 128,-1,36
 1189 -196 1189 -196 1196.5 -207.5 c 128,-1,37
 1204 -219 1204 -219 1207.5 -239 c 128,-1,38
 1211 -259 1211 -259 1211 -291 c 256,39,40
 1211 -323 1211 -323 1207.5 -343 c 128,-1,41
 1204 -363 1204 -363 1196.5 -374 c 128,-1,42
 1189 -385 1189 -385 1177 -389 c 128,-1,43
 1165 -393 1165 -393 1148 -393 c 2,44,-1
 574 -393 l 2,45,46
 557 -393 557 -393 545 -389 c 128,-1,47
 533 -385 533 -385 525.5 -374 c 128,-1,48
 518 -363 518 -363 514.5 -343 c 128,-1,49
 511 -323 511 -323 511 -291 c 256,50,51
 511 -259 511 -259 514.5 -239 c 128,-1,52
 518 -219 518 -219 525.5 -207.5 c 128,-1,53
 533 -196 533 -196 545 -192 c 128,-1,54
 557 -188 557 -188 574 -188 c 2,55,-1
 791 -188 l 1,56,-1
 791 123 l 1,0,1
798 477 m 256,57,58
 798 538 798 538 779.5 583.5 c 128,-1,59
 761 629 761 629 729.5 659 c 128,-1,60
 698 689 698 689 656.5 704 c 128,-1,61
 615 719 615 719 568 719 c 0,62,63
 476 719 476 719 420.5 657 c 128,-1,64
 365 595 365 595 365 477 c 256,65,66
 365 359 365 359 420.5 297 c 128,-1,67
 476 235 476 235 568 235 c 0,68,69
 615 235 615 235 656.5 250 c 128,-1,70
 698 265 698 265 729.5 295 c 128,-1,71
 761 325 761 325 779.5 370.5 c 128,-1,72
 798 416 798 416 798 477 c 256,57,58
EndSplineSet
EndChar
StartChar: r
Encoding: 114 114 81
Width: 1228
Flags: W
LayerCount: 2
Back
Fore
SplineSet
337 719 m 1,0,-1
 220 719 l 2,1,2
 203 719 203 719 191 723 c 128,-1,3
 179 727 179 727 171.5 738 c 128,-1,4
 164 749 164 749 160.5 769 c 128,-1,5
 157 789 157 789 157 821 c 256,6,7
 157 853 157 853 160.5 873 c 128,-1,8
 164 893 164 893 171.5 904.5 c 128,-1,9
 179 916 179 916 191 920 c 128,-1,10
 203 924 203 924 220 924 c 2,11,-1
 494 924 l 2,12,13
 528 924 528 924 542.5 909.5 c 128,-1,14
 557 895 557 895 557 861 c 2,15,-1
 557 644 l 1,16,17
 633 790 633 790 730 868 c 128,-1,18
 827 946 827 946 927 946 c 0,19,20
 1012 946 1012 946 1087 890 c 0,21,22
 1124 862 1124 862 1130 823.5 c 128,-1,23
 1136 785 1136 785 1113 728 c 0,24,25
 1089 667 1089 667 1058 647.5 c 128,-1,26
 1027 628 1027 628 995 645 c 0,27,28
 966 661 966 661 937 668.5 c 128,-1,29
 908 676 908 676 879 676 c 0,30,31
 821 676 821 676 768.5 648 c 128,-1,32
 716 620 716 620 675.5 570 c 128,-1,33
 635 520 635 520 611 451 c 128,-1,34
 587 382 587 382 587 300 c 2,35,-1
 587 205 l 1,36,-1
 874 205 l 2,37,38
 891 205 891 205 903 201 c 128,-1,39
 915 197 915 197 922.5 185.5 c 128,-1,40
 930 174 930 174 933.5 154 c 128,-1,41
 937 134 937 134 937 102 c 256,42,43
 937 70 937 70 933.5 50 c 128,-1,44
 930 30 930 30 922.5 19 c 128,-1,45
 915 8 915 8 903 4 c 128,-1,46
 891 0 891 0 874 0 c 2,47,-1
 190 0 l 2,48,49
 173 0 173 0 161 4 c 128,-1,50
 149 8 149 8 141.5 19 c 128,-1,51
 134 30 134 30 130.5 50 c 128,-1,52
 127 70 127 70 127 102 c 256,53,54
 127 134 127 134 130.5 154 c 128,-1,55
 134 174 134 174 141.5 185.5 c 128,-1,56
 149 197 149 197 161 201 c 128,-1,57
 173 205 173 205 190 205 c 2,58,-1
 337 205 l 1,59,-1
 337 719 l 1,0,-1
EndSplineSet
EndChar
StartChar: s
Encoding: 115 115 82
Width: 1228
Flags: W
LayerCount: 2
Back
Fore
SplineSet
414 41 m 2,0,1
 414 7 414 7 385 -7.5 c 128,-1,2
 356 -22 356 -22 292 -22 c 256,3,4
 228 -22 228 -22 201 -7.5 c 128,-1,5
 174 7 174 7 174 41 c 2,6,-1
 174 264 l 2,7,8
 174 298 174 298 197.5 312.5 c 128,-1,9
 221 327 221 327 270 327 c 0,10,11
 303 327 303 327 322.5 320 c 128,-1,12
 342 313 342 313 353 299 c 0,13,14
 407 232 407 232 486 205 c 128,-1,15
 565 178 565 178 652 178 c 0,16,17
 736 178 736 178 774 199.5 c 128,-1,18
 812 221 812 221 812 261 c 0,19,20
 812 287 812 287 788 302 c 128,-1,21
 764 317 764 317 723 326 c 256,22,23
 682 335 682 335 629 341 c 128,-1,24
 576 347 576 347 519 356 c 128,-1,25
 462 365 462 365 406 379.5 c 128,-1,26
 350 394 350 394 302 420 c 0,27,28
 242 453 242 453 203 510 c 128,-1,29
 164 567 164 567 164 660 c 0,30,31
 164 727 164 727 191.5 780 c 128,-1,32
 219 833 219 833 267.5 870 c 128,-1,33
 316 907 316 907 382.5 926.5 c 128,-1,34
 449 946 449 946 526 946 c 0,35,36
 607 946 607 946 672.5 927 c 128,-1,37
 738 908 738 908 794 873 c 1,38,-1
 794 883 l 2,39,40
 794 917 794 917 818 931.5 c 128,-1,41
 842 946 842 946 906 946 c 256,42,43
 970 946 970 946 997 931.5 c 128,-1,44
 1024 917 1024 917 1024 883 c 2,45,-1
 1024 672 l 2,46,47
 1024 638 1024 638 1002.5 623.5 c 128,-1,48
 981 609 981 609 932 609 c 0,49,50
 879 609 879 609 859 630 c 0,51,52
 797 695 797 695 720 720.5 c 128,-1,53
 643 746 643 746 548 746 c 0,54,55
 487 746 487 746 454.5 724.5 c 128,-1,56
 422 703 422 703 422 669 c 0,57,58
 422 646 422 646 442 631.5 c 128,-1,59
 462 617 462 617 496 609 c 0,60,61
 533 600 533 600 582 595 c 128,-1,62
 631 590 631 590 685.5 583.5 c 128,-1,63
 740 577 740 577 795.5 566 c 128,-1,64
 851 555 851 555 900 535 c 0,65,66
 936 520 936 520 967.5 498.5 c 128,-1,67
 999 477 999 477 1021.5 447 c 128,-1,68
 1044 417 1044 417 1057 377.5 c 128,-1,69
 1070 338 1070 338 1070 287 c 0,70,71
 1070 216 1070 216 1044 159 c 128,-1,72
 1018 102 1018 102 967 61.5 c 128,-1,73
 916 21 916 21 842 -0.5 c 128,-1,74
 768 -22 768 -22 672 -22 c 0,75,76
 594 -22 594 -22 531 -2.5 c 128,-1,77
 468 17 468 17 414 49 c 1,78,-1
 414 41 l 2,0,1
EndSplineSet
EndChar
StartChar: t
Encoding: 116 116 174
Width: 1228
Flags: W
LayerCount: 2
Back
Fore
SplineSet
160 649 m 2,0,1
 143 649 143 649 131 654 c 128,-1,2
 119 659 119 659 111.5 671 c 128,-1,3
 104 683 104 683 100.5 703.5 c 128,-1,4
 97 724 97 724 97 756 c 256,5,6
 97 788 97 788 100.5 809 c 128,-1,7
 104 830 104 830 111.5 842 c 128,-1,8
 119 854 119 854 131 859 c 128,-1,9
 143 864 143 864 160 864 c 2,10,-1
 353 864 l 1,11,-1
 353 1146 l 2,12,13
 353 1180 353 1180 383 1194.5 c 128,-1,14
 413 1209 413 1209 485 1209 c 0,15,16
 521 1209 521 1209 543.5 1205.5 c 128,-1,17
 566 1202 566 1202 579.5 1194.5 c 128,-1,18
 593 1187 593 1187 598 1175 c 128,-1,19
 603 1163 603 1163 603 1146 c 2,20,-1
 603 864 l 1,21,-1
 974 864 l 2,22,23
 991 864 991 864 1003 859 c 128,-1,24
 1015 854 1015 854 1022.5 842 c 128,-1,25
 1030 830 1030 830 1033.5 809 c 128,-1,26
 1037 788 1037 788 1037 756 c 256,27,28
 1037 724 1037 724 1033.5 703.5 c 128,-1,29
 1030 683 1030 683 1022.5 671 c 128,-1,30
 1015 659 1015 659 1003 654 c 128,-1,31
 991 649 991 649 974 649 c 2,32,-1
 603 649 l 1,33,-1
 603 371 l 2,34,35
 603 284 603 284 636.5 244.5 c 128,-1,36
 670 205 670 205 732 205 c 0,37,38
 757 205 757 205 787.5 211.5 c 128,-1,39
 818 218 818 218 850 229 c 128,-1,40
 882 240 882 240 916 254 c 128,-1,41
 950 268 950 268 983 283 c 0,42,43
 998 290 998 290 1012.5 291.5 c 128,-1,44
 1027 293 1027 293 1040.5 286.5 c 128,-1,45
 1054 280 1054 280 1066.5 263.5 c 128,-1,46
 1079 247 1079 247 1091 217 c 0,47,48
 1115 158 1115 158 1107.5 128 c 128,-1,49
 1100 98 1100 98 1067 82 c 0,50,51
 976 36 976 36 886.5 7 c 128,-1,52
 797 -22 797 -22 710 -22 c 0,53,54
 535 -22 535 -22 444 74 c 128,-1,55
 353 170 353 170 353 358 c 2,56,-1
 353 649 l 1,57,-1
 160 649 l 2,0,1
EndSplineSet
EndChar
StartChar: u
Encoding: 117 117 83
Width: 1228
Flags: W
LayerCount: 2
Back
Fore
SplineSet
113 719 m 2,0,1
 96 719 96 719 84 723 c 128,-1,2
 72 727 72 727 64.5 738.5 c 128,-1,3
 57 750 57 750 53.5 770 c 128,-1,4
 50 790 50 790 50 822 c 256,5,6
 50 854 50 854 53.5 874 c 128,-1,7
 57 894 57 894 64.5 905 c 128,-1,8
 72 916 72 916 84 920 c 128,-1,9
 96 924 96 924 113 924 c 2,10,-1
 377 924 l 2,11,12
 411 924 411 924 425.5 909.5 c 128,-1,13
 440 895 440 895 440 861 c 2,14,-1
 440 363 l 2,15,16
 440 289 440 289 465.5 247 c 128,-1,17
 491 205 491 205 557 205 c 0,18,19
 602 205 602 205 642.5 233.5 c 128,-1,20
 683 262 683 262 714 310 c 128,-1,21
 745 358 745 358 763.5 421.5 c 128,-1,22
 782 485 782 485 782 556 c 2,23,-1
 782 719 l 1,24,-1
 675 719 l 2,25,26
 658 719 658 719 646 723 c 128,-1,27
 634 727 634 727 626.5 738.5 c 128,-1,28
 619 750 619 750 615.5 770 c 128,-1,29
 612 790 612 790 612 822 c 256,30,31
 612 854 612 854 615.5 874 c 128,-1,32
 619 894 619 894 626.5 905 c 128,-1,33
 634 916 634 916 646 920 c 128,-1,34
 658 924 658 924 675 924 c 2,35,-1
 969 924 l 2,36,37
 1003 924 1003 924 1017.5 909.5 c 128,-1,38
 1032 895 1032 895 1032 861 c 2,39,-1
 1032 205 l 1,40,-1
 1109 205 l 2,41,42
 1126 205 1126 205 1138 201 c 128,-1,43
 1150 197 1150 197 1157.5 186 c 128,-1,44
 1165 175 1165 175 1168.5 155 c 128,-1,45
 1172 135 1172 135 1172 103 c 256,46,47
 1172 71 1172 71 1168.5 51 c 128,-1,48
 1165 31 1165 31 1157.5 19.5 c 128,-1,49
 1150 8 1150 8 1138 4 c 128,-1,50
 1126 0 1126 0 1109 0 c 2,51,-1
 885 0 l 2,52,53
 851 0 851 0 836.5 14.5 c 128,-1,54
 822 29 822 29 822 63 c 2,55,-1
 822 208 l 1,56,57
 752 86 752 86 669 32 c 128,-1,58
 586 -22 586 -22 492 -22 c 0,59,60
 423 -22 423 -22 367 1 c 128,-1,61
 311 24 311 24 272 66 c 128,-1,62
 233 108 233 108 211.5 168.5 c 128,-1,63
 190 229 190 229 190 304 c 2,64,-1
 190 719 l 1,65,-1
 113 719 l 2,0,1
EndSplineSet
EndChar
StartChar: v
Encoding: 118 118 84
Width: 1228
Flags: W
LayerCount: 2
Back
Fore
SplineSet
103 719 m 2,0,1
 86 719 86 719 74 723 c 128,-1,2
 62 727 62 727 54.5 738 c 128,-1,3
 47 749 47 749 43.5 769 c 128,-1,4
 40 789 40 789 40 821 c 256,5,6
 40 853 40 853 43.5 873 c 128,-1,7
 47 893 47 893 54.5 904.5 c 128,-1,8
 62 916 62 916 74 920 c 128,-1,9
 86 924 86 924 103 924 c 2,10,-1
 507 924 l 2,11,12
 524 924 524 924 536 920 c 128,-1,13
 548 916 548 916 555.5 904.5 c 128,-1,14
 563 893 563 893 566.5 873 c 128,-1,15
 570 853 570 853 570 821 c 256,16,17
 570 789 570 789 566.5 769 c 128,-1,18
 563 749 563 749 555.5 738 c 128,-1,19
 548 727 548 727 536 723 c 128,-1,20
 524 719 524 719 507 719 c 2,21,-1
 440 719 l 1,22,-1
 617 278 l 1,23,-1
 796 719 l 1,24,-1
 741 719 l 2,25,26
 724 719 724 719 712 723 c 128,-1,27
 700 727 700 727 692.5 738 c 128,-1,28
 685 749 685 749 681.5 769 c 128,-1,29
 678 789 678 789 678 821 c 256,30,31
 678 853 678 853 681.5 873 c 128,-1,32
 685 893 685 893 692.5 904.5 c 128,-1,33
 700 916 700 916 712 920 c 128,-1,34
 724 924 724 924 741 924 c 2,35,-1
 1125 924 l 2,36,37
 1142 924 1142 924 1154 920 c 128,-1,38
 1166 916 1166 916 1173.5 904.5 c 128,-1,39
 1181 893 1181 893 1184.5 873 c 128,-1,40
 1188 853 1188 853 1188 821 c 256,41,42
 1188 789 1188 789 1184.5 769 c 128,-1,43
 1181 749 1181 749 1173.5 738 c 128,-1,44
 1166 727 1166 727 1154 723 c 128,-1,45
 1142 719 1142 719 1125 719 c 2,46,-1
 1057 719 l 1,47,-1
 764 43 l 2,48,49
 750 9 750 9 716.5 -6.5 c 128,-1,50
 683 -22 683 -22 611 -22 c 0,51,52
 575 -22 575 -22 549.5 -18 c 128,-1,53
 524 -14 524 -14 506.5 -6 c 128,-1,54
 489 2 489 2 478 14 c 128,-1,55
 467 26 467 26 460 43 c 2,56,-1
 169 719 l 1,57,-1
 103 719 l 2,0,1
EndSplineSet
EndChar
StartChar: w
Encoding: 119 119 85
Width: 1228
Flags: W
LayerCount: 2
Back
Fore
SplineSet
43 719 m 2,0,1
 26 719 26 719 14 723 c 128,-1,2
 2 727 2 727 -5.5 738 c 128,-1,3
 -13 749 -13 749 -16.5 769 c 128,-1,4
 -20 789 -20 789 -20 821 c 256,5,6
 -20 853 -20 853 -16.5 873 c 128,-1,7
 -13 893 -13 893 -5.5 904.5 c 128,-1,8
 2 916 2 916 14 920 c 128,-1,9
 26 924 26 924 43 924 c 2,10,-1
 387 924 l 2,11,12
 404 924 404 924 416 920 c 128,-1,13
 428 916 428 916 435.5 904.5 c 128,-1,14
 443 893 443 893 446.5 873 c 128,-1,15
 450 853 450 853 450 821 c 256,16,17
 450 789 450 789 446.5 769 c 128,-1,18
 443 749 443 749 435.5 738 c 128,-1,19
 428 727 428 727 416 723 c 128,-1,20
 404 719 404 719 387 719 c 2,21,-1
 302 719 l 1,22,-1
 377 331 l 1,23,-1
 515 670 l 2,24,25
 526 696 526 696 546.5 711.5 c 128,-1,26
 567 727 567 727 611 727 c 0,27,28
 656 727 656 727 676.5 715 c 128,-1,29
 697 703 697 703 708 677 c 2,30,-1
 845 331 l 1,31,-1
 923 719 l 1,32,-1
 851 719 l 2,33,34
 834 719 834 719 822 723 c 128,-1,35
 810 727 810 727 802.5 738 c 128,-1,36
 795 749 795 749 791.5 769 c 128,-1,37
 788 789 788 789 788 821 c 256,38,39
 788 853 788 853 791.5 873 c 128,-1,40
 795 893 795 893 802.5 904.5 c 128,-1,41
 810 916 810 916 822 920 c 128,-1,42
 834 924 834 924 851 924 c 2,43,-1
 1185 924 l 2,44,45
 1202 924 1202 924 1214 920 c 128,-1,46
 1226 916 1226 916 1233.5 904.5 c 128,-1,47
 1241 893 1241 893 1244.5 873 c 128,-1,48
 1248 853 1248 853 1248 821 c 256,49,50
 1248 789 1248 789 1244.5 769 c 128,-1,51
 1241 749 1241 749 1233.5 738 c 128,-1,52
 1226 727 1226 727 1214 723 c 128,-1,53
 1202 719 1202 719 1185 719 c 2,54,-1
 1144 719 l 1,55,-1
 998 43 l 2,56,57
 990 7 990 7 964 -7.5 c 128,-1,58
 938 -22 938 -22 877 -22 c 256,59,60
 816 -22 816 -22 789.5 -6 c 128,-1,61
 763 10 763 10 750 43 c 2,62,-1
 610 398 l 1,63,-1
 468 43 l 2,64,65
 461 26 461 26 451.5 14 c 128,-1,66
 442 2 442 2 427 -6 c 128,-1,67
 412 -14 412 -14 390.5 -18 c 128,-1,68
 369 -22 369 -22 339 -22 c 256,69,70
 309 -22 309 -22 288 -18.5 c 128,-1,71
 267 -15 267 -15 253 -7 c 128,-1,72
 239 1 239 1 231.5 13 c 128,-1,73
 224 25 224 25 220 43 c 2,74,-1
 77 719 l 1,75,-1
 43 719 l 2,0,1
EndSplineSet
EndChar
StartChar: x
Encoding: 120 120 86
Width: 1228
Flags: W
LayerCount: 2
Back
Fore
SplineSet
441 469 m 1,0,-1
 195 719 l 1,1,-1
 143 719 l 2,2,3
 126 719 126 719 114 723 c 128,-1,4
 102 727 102 727 94.5 738 c 128,-1,5
 87 749 87 749 83.5 769 c 128,-1,6
 80 789 80 789 80 821 c 256,7,8
 80 853 80 853 83.5 873 c 128,-1,9
 87 893 87 893 94.5 904.5 c 128,-1,10
 102 916 102 916 114 920 c 128,-1,11
 126 924 126 924 143 924 c 2,12,-1
 517 924 l 2,13,14
 534 924 534 924 546 920 c 128,-1,15
 558 916 558 916 565.5 904.5 c 128,-1,16
 573 893 573 893 576.5 873 c 128,-1,17
 580 853 580 853 580 821 c 256,18,19
 580 789 580 789 576.5 769 c 128,-1,20
 573 749 573 749 565.5 738 c 128,-1,21
 558 727 558 727 546 723 c 128,-1,22
 534 719 534 719 517 719 c 2,23,-1
 504 719 l 1,24,-1
 632 588 l 1,25,-1
 753 719 l 1,26,-1
 731 719 l 2,27,28
 714 719 714 719 702 723 c 128,-1,29
 690 727 690 727 682.5 738 c 128,-1,30
 675 749 675 749 671.5 769 c 128,-1,31
 668 789 668 789 668 821 c 256,32,33
 668 853 668 853 671.5 873 c 128,-1,34
 675 893 675 893 682.5 904.5 c 128,-1,35
 690 916 690 916 702 920 c 128,-1,36
 714 924 714 924 731 924 c 2,37,-1
 1085 924 l 2,38,39
 1102 924 1102 924 1114 920 c 128,-1,40
 1126 916 1126 916 1133.5 904.5 c 128,-1,41
 1141 893 1141 893 1144.5 873 c 128,-1,42
 1148 853 1148 853 1148 821 c 256,43,44
 1148 789 1148 789 1144.5 769 c 128,-1,45
 1141 749 1141 749 1133.5 738 c 128,-1,46
 1126 727 1126 727 1114 723 c 128,-1,47
 1102 719 1102 719 1085 719 c 2,48,-1
 1026 719 l 1,49,-1
 785 468 l 1,50,-1
 1044 205 l 1,51,-1
 1095 205 l 2,52,53
 1112 205 1112 205 1124 201 c 128,-1,54
 1136 197 1136 197 1143.5 185.5 c 128,-1,55
 1151 174 1151 174 1154.5 154 c 128,-1,56
 1158 134 1158 134 1158 102 c 256,57,58
 1158 70 1158 70 1154.5 50 c 128,-1,59
 1151 30 1151 30 1143.5 19 c 128,-1,60
 1136 8 1136 8 1124 4 c 128,-1,61
 1112 0 1112 0 1095 0 c 2,62,-1
 711 0 l 2,63,64
 694 0 694 0 682 4 c 128,-1,65
 670 8 670 8 662.5 19 c 128,-1,66
 655 30 655 30 651.5 50 c 128,-1,67
 648 70 648 70 648 102 c 256,68,69
 648 134 648 134 651.5 154 c 128,-1,70
 655 174 655 174 662.5 185.5 c 128,-1,71
 670 197 670 197 682 201 c 128,-1,72
 694 205 694 205 711 205 c 2,73,-1
 725 205 l 1,74,-1
 594 339 l 1,75,-1
 470 205 l 1,76,-1
 487 205 l 2,77,78
 504 205 504 205 516 201 c 128,-1,79
 528 197 528 197 535.5 185.5 c 128,-1,80
 543 174 543 174 546.5 154 c 128,-1,81
 550 134 550 134 550 102 c 256,82,83
 550 70 550 70 546.5 50 c 128,-1,84
 543 30 543 30 535.5 19 c 128,-1,85
 528 8 528 8 516 4 c 128,-1,86
 504 0 504 0 487 0 c 2,87,-1
 133 0 l 2,88,89
 116 0 116 0 104 4 c 128,-1,90
 92 8 92 8 84.5 19 c 128,-1,91
 77 30 77 30 73.5 50 c 128,-1,92
 70 70 70 70 70 102 c 256,93,94
 70 134 70 134 73.5 154 c 128,-1,95
 77 174 77 174 84.5 185.5 c 128,-1,96
 92 197 92 197 104 201 c 128,-1,97
 116 205 116 205 133 205 c 2,98,-1
 187 205 l 1,99,-1
 441 469 l 1,0,-1
EndSplineSet
EndChar
StartChar: y
Encoding: 121 121 172
Width: 1228
Flags: W
LayerCount: 2
Back
Fore
SplineSet
103 719 m 2,0,1
 86 719 86 719 74 723 c 128,-1,2
 62 727 62 727 54.5 738 c 128,-1,3
 47 749 47 749 43.5 769 c 128,-1,4
 40 789 40 789 40 821 c 256,5,6
 40 853 40 853 43.5 873 c 128,-1,7
 47 893 47 893 54.5 904.5 c 128,-1,8
 62 916 62 916 74 920 c 128,-1,9
 86 924 86 924 103 924 c 2,10,-1
 507 924 l 2,11,12
 524 924 524 924 536 920 c 128,-1,13
 548 916 548 916 555.5 904.5 c 128,-1,14
 563 893 563 893 566.5 873 c 128,-1,15
 570 853 570 853 570 821 c 256,16,17
 570 789 570 789 566.5 769 c 128,-1,18
 563 749 563 749 555.5 738 c 128,-1,19
 548 727 548 727 536 723 c 128,-1,20
 524 719 524 719 507 719 c 2,21,-1
 447 719 l 1,22,-1
 621 339 l 1,23,-1
 795 719 l 1,24,-1
 741 719 l 2,25,26
 724 719 724 719 712 723 c 128,-1,27
 700 727 700 727 692.5 738 c 128,-1,28
 685 749 685 749 681.5 769 c 128,-1,29
 678 789 678 789 678 821 c 256,30,31
 678 853 678 853 681.5 873 c 128,-1,32
 685 893 685 893 692.5 904.5 c 128,-1,33
 700 916 700 916 712 920 c 128,-1,34
 724 924 724 924 741 924 c 2,35,-1
 1125 924 l 2,36,37
 1142 924 1142 924 1154 920 c 128,-1,38
 1166 916 1166 916 1173.5 904.5 c 128,-1,39
 1181 893 1181 893 1184.5 873 c 128,-1,40
 1188 853 1188 853 1188 821 c 256,41,42
 1188 789 1188 789 1184.5 769 c 128,-1,43
 1181 749 1181 749 1173.5 738 c 128,-1,44
 1166 727 1166 727 1154 723 c 128,-1,45
 1142 719 1142 719 1125 719 c 2,46,-1
 1061 719 l 1,47,-1
 678 -57 l 2,48,49
 626 -162 626 -162 578.5 -229.5 c 128,-1,50
 531 -297 531 -297 475.5 -337 c 128,-1,51
 420 -377 420 -377 351.5 -394 c 128,-1,52
 283 -411 283 -411 189 -414 c 0,53,54
 160 -415 160 -415 140.5 -394 c 128,-1,55
 121 -373 121 -373 117 -311 c 0,56,57
 115 -277 115 -277 117.5 -253.5 c 128,-1,58
 120 -230 120 -230 127 -216 c 128,-1,59
 134 -202 134 -202 144 -195.5 c 128,-1,60
 154 -189 154 -189 168 -188 c 0,61,62
 227 -185 227 -185 268.5 -170.5 c 128,-1,63
 310 -156 310 -156 344.5 -124 c 128,-1,64
 379 -92 379 -92 411 -40 c 128,-1,65
 443 12 443 12 484 90 c 1,66,-1
 178 719 l 1,67,-1
 103 719 l 2,0,1
EndSplineSet
EndChar
StartChar: z
Encoding: 122 122 87
Width: 1228
Flags: W
LayerCount: 2
Back
Fore
SplineSet
1017 924 m 2,0,1
 1034 924 1034 924 1046 920 c 128,-1,2
 1058 916 1058 916 1065.5 905 c 128,-1,3
 1073 894 1073 894 1076.5 874 c 128,-1,4
 1080 854 1080 854 1080 822 c 0,5,6
 1080 795 1080 795 1073 777 c 128,-1,7
 1066 759 1066 759 1048 740 c 2,8,-1
 525 205 l 1,9,-1
 850 205 l 1,10,-1
 850 329 l 2,11,12
 850 346 850 346 855.5 358 c 128,-1,13
 861 370 861 370 875 377.5 c 128,-1,14
 889 385 889 385 912.5 388.5 c 128,-1,15
 936 392 936 392 972 392 c 256,16,17
 1008 392 1008 392 1029 388.5 c 128,-1,18
 1050 385 1050 385 1061.5 377.5 c 128,-1,19
 1073 370 1073 370 1076.5 358 c 128,-1,20
 1080 346 1080 346 1080 329 c 2,21,-1
 1080 65 l 2,22,23
 1080 30 1080 30 1065 15 c 128,-1,24
 1050 0 1050 0 1015 0 c 2,25,-1
 201 0 l 2,26,27
 184 0 184 0 172 4 c 128,-1,28
 160 8 160 8 152.5 19 c 128,-1,29
 145 30 145 30 141.5 50 c 128,-1,30
 138 70 138 70 138 102 c 0,31,32
 138 129 138 129 145 147 c 128,-1,33
 152 165 152 165 170 184 c 2,34,-1
 693 719 l 1,35,-1
 388 719 l 1,36,-1
 388 605 l 2,37,38
 388 588 388 588 382.5 576 c 128,-1,39
 377 564 377 564 363 556.5 c 128,-1,40
 349 549 349 549 325.5 545.5 c 128,-1,41
 302 542 302 542 266 542 c 256,42,43
 230 542 230 542 209 545.5 c 128,-1,44
 188 549 188 549 176.5 556.5 c 128,-1,45
 165 564 165 564 161.5 576 c 128,-1,46
 158 588 158 588 158 605 c 2,47,-1
 158 859 l 2,48,49
 158 894 158 894 173 909 c 128,-1,50
 188 924 188 924 223 924 c 2,51,-1
 1017 924 l 2,0,1
EndSplineSet
EndChar
StartChar: braceleft
Encoding: 123 123 88
Width: 1228
Flags: W
LayerCount: 2
Back
Fore
SplineSet
540 482 m 1,0,1
 575 461 575 461 604 434 c 128,-1,2
 633 407 633 407 654 372.5 c 128,-1,3
 675 338 675 338 686.5 296 c 128,-1,4
 698 254 698 254 698 203 c 2,5,-1
 698 2 l 2,6,7
 698 -98 698 -98 737.5 -143 c 128,-1,8
 777 -188 777 -188 855 -188 c 0,9,10
 872 -188 872 -188 884 -192 c 128,-1,11
 896 -196 896 -196 903.5 -207 c 128,-1,12
 911 -218 911 -218 914.5 -238 c 128,-1,13
 918 -258 918 -258 918 -290 c 256,14,15
 918 -322 918 -322 914.5 -342 c 128,-1,16
 911 -362 911 -362 903.5 -373.5 c 128,-1,17
 896 -385 896 -385 884 -389 c 128,-1,18
 872 -393 872 -393 855 -393 c 0,19,20
 655 -393 655 -393 551.5 -298.5 c 128,-1,21
 448 -204 448 -204 448 -10 c 2,22,-1
 448 193 l 2,23,24
 448 284 448 284 406 331.5 c 128,-1,25
 364 379 364 379 268 379 c 0,26,27
 251 379 251 379 239 383 c 128,-1,28
 227 387 227 387 219.5 398.5 c 128,-1,29
 212 410 212 410 208.5 430 c 128,-1,30
 205 450 205 450 205 482 c 256,31,32
 205 514 205 514 208.5 534 c 128,-1,33
 212 554 212 554 219.5 565 c 128,-1,34
 227 576 227 576 239 580 c 128,-1,35
 251 584 251 584 268 584 c 0,36,37
 364 584 364 584 406 631.5 c 128,-1,38
 448 679 448 679 448 770 c 2,39,-1
 448 929 l 2,40,41
 448 1122 448 1122 551.5 1217 c 128,-1,42
 655 1312 655 1312 855 1312 c 0,43,44
 872 1312 872 1312 884 1308 c 128,-1,45
 896 1304 896 1304 903.5 1292.5 c 128,-1,46
 911 1281 911 1281 914.5 1261 c 128,-1,47
 918 1241 918 1241 918 1209 c 256,48,49
 918 1177 918 1177 914.5 1157 c 128,-1,50
 911 1137 911 1137 903.5 1126 c 128,-1,51
 896 1115 896 1115 884 1111 c 128,-1,52
 872 1107 872 1107 855 1107 c 0,53,54
 777 1107 777 1107 737.5 1062 c 128,-1,55
 698 1017 698 1017 698 917 c 2,56,-1
 698 760 l 2,57,58
 698 709 698 709 686.5 667 c 128,-1,59
 675 625 675 625 654 591 c 128,-1,60
 633 557 633 557 604 530 c 128,-1,61
 575 503 575 503 540 482 c 1,0,1
EndSplineSet
EndChar
StartChar: bar
Encoding: 124 124 89
Width: 1228
Flags: W
LayerCount: 2
Back
Fore
SplineSet
489 1271 m 2,0,1
 489 1305 489 1305 523 1319.5 c 128,-1,2
 557 1334 557 1334 621 1334 c 256,3,4
 685 1334 685 1334 712 1319.5 c 128,-1,5
 739 1305 739 1305 739 1271 c 2,6,-1
 739 -352 l 2,7,8
 739 -386 739 -386 705 -400.5 c 128,-1,9
 671 -415 671 -415 607 -415 c 256,10,11
 543 -415 543 -415 516 -400.5 c 128,-1,12
 489 -386 489 -386 489 -352 c 2,13,-1
 489 1271 l 2,0,1
EndSplineSet
EndChar
StartChar: braceright
Encoding: 125 125 90
Width: 1228
Flags: W
LayerCount: 2
Back
Fore
SplineSet
688 482 m 1,0,1
 653 503 653 503 624 530 c 128,-1,2
 595 557 595 557 574 591 c 128,-1,3
 553 625 553 625 541.5 667 c 128,-1,4
 530 709 530 709 530 760 c 2,5,-1
 530 917 l 2,6,7
 530 1017 530 1017 490.5 1062 c 128,-1,8
 451 1107 451 1107 373 1107 c 0,9,10
 356 1107 356 1107 344 1111 c 128,-1,11
 332 1115 332 1115 324.5 1126 c 128,-1,12
 317 1137 317 1137 313.5 1157 c 128,-1,13
 310 1177 310 1177 310 1209 c 256,14,15
 310 1241 310 1241 313.5 1261 c 128,-1,16
 317 1281 317 1281 324.5 1292.5 c 128,-1,17
 332 1304 332 1304 344 1308 c 128,-1,18
 356 1312 356 1312 373 1312 c 0,19,20
 573 1312 573 1312 676.5 1217 c 128,-1,21
 780 1122 780 1122 780 929 c 2,22,-1
 780 770 l 2,23,24
 780 679 780 679 822 631.5 c 128,-1,25
 864 584 864 584 960 584 c 0,26,27
 977 584 977 584 989 580 c 128,-1,28
 1001 576 1001 576 1008.5 565 c 128,-1,29
 1016 554 1016 554 1019.5 534 c 128,-1,30
 1023 514 1023 514 1023 482 c 256,31,32
 1023 450 1023 450 1019.5 430 c 128,-1,33
 1016 410 1016 410 1008.5 398.5 c 128,-1,34
 1001 387 1001 387 989 383 c 128,-1,35
 977 379 977 379 960 379 c 0,36,37
 864 379 864 379 822 331.5 c 128,-1,38
 780 284 780 284 780 193 c 2,39,-1
 780 -10 l 2,40,41
 780 -204 780 -204 676.5 -298.5 c 128,-1,42
 573 -393 573 -393 373 -393 c 0,43,44
 356 -393 356 -393 344 -389 c 128,-1,45
 332 -385 332 -385 324.5 -373.5 c 128,-1,46
 317 -362 317 -362 313.5 -342 c 128,-1,47
 310 -322 310 -322 310 -290 c 256,48,49
 310 -258 310 -258 313.5 -238 c 128,-1,50
 317 -218 317 -218 324.5 -207 c 128,-1,51
 332 -196 332 -196 344 -192 c 128,-1,52
 356 -188 356 -188 373 -188 c 0,53,54
 451 -188 451 -188 490.5 -143 c 128,-1,55
 530 -98 530 -98 530 2 c 2,56,-1
 530 203 l 2,57,58
 530 254 530 254 541.5 296 c 128,-1,59
 553 338 553 338 574 372.5 c 128,-1,60
 595 407 595 407 624 434 c 128,-1,61
 653 461 653 461 688 482 c 1,0,1
EndSplineSet
EndChar
StartChar: asciitilde
Encoding: 126 126 91
Width: 1228
Flags: W
LayerCount: 2
Back
Fore
SplineSet
239 460 m 0,0,1
 225 452 225 452 212 453.5 c 128,-1,2
 199 455 199 455 188 463.5 c 128,-1,3
 177 472 177 472 168.5 485.5 c 128,-1,4
 160 499 160 499 154 516 c 0,5,6
 148 532 148 532 145.5 549 c 128,-1,7
 143 566 143 566 143.5 582 c 128,-1,8
 144 598 144 598 148.5 610.5 c 128,-1,9
 153 623 153 623 161 631 c 0,10,11
 229 693 229 693 292 716.5 c 128,-1,12
 355 740 355 740 415 740 c 0,13,14
 468 740 468 740 519.5 727 c 128,-1,15
 571 714 571 714 621.5 699 c 128,-1,16
 672 684 672 684 722.5 671 c 128,-1,17
 773 658 773 658 826 658 c 0,18,19
 866 658 866 658 906.5 667.5 c 128,-1,20
 947 677 947 677 990 702 c 0,21,22
 1004 710 1004 710 1017 708.5 c 128,-1,23
 1030 707 1030 707 1041 698.5 c 128,-1,24
 1052 690 1052 690 1060.5 676 c 128,-1,25
 1069 662 1069 662 1075 646 c 256,26,27
 1081 630 1081 630 1083.5 613 c 128,-1,28
 1086 596 1086 596 1085.5 580 c 128,-1,29
 1085 564 1085 564 1080.5 551 c 128,-1,30
 1076 538 1076 538 1068 531 c 0,31,32
 999 469 999 469 936 445.5 c 128,-1,33
 873 422 873 422 813 422 c 0,34,35
 760 422 760 422 708.5 435 c 128,-1,36
 657 448 657 448 606.5 463 c 128,-1,37
 556 478 556 478 505 491 c 128,-1,38
 454 504 454 504 402 504 c 0,39,40
 362 504 362 504 322 494 c 128,-1,41
 282 484 282 484 239 460 c 0,0,1
EndSplineSet
EndChar
StartChar: exclamdown
Encoding: 161 161 119
Width: 1228
Flags: W
LayerCount: 2
Back
Fore
SplineSet
489 -22 m 2,0,1
 442 -22 442 -22 448 28 c 2,2,-1
 521 605 l 2,3,4
 526 643 526 643 550.5 663 c 128,-1,5
 575 683 575 683 614 683 c 256,6,7
 653 683 653 683 677.5 663 c 128,-1,8
 702 643 702 643 707 605 c 2,9,-1
 780 28 l 2,10,11
 786 -22 786 -22 739 -22 c 2,12,-1
 489 -22 l 2,0,1
803 1020 m 256,13,14
 803 981 803 981 788 946 c 128,-1,15
 773 911 773 911 747.5 885.5 c 128,-1,16
 722 860 722 860 687.5 845 c 128,-1,17
 653 830 653 830 614 830 c 256,18,19
 575 830 575 830 540.5 845 c 128,-1,20
 506 860 506 860 480.5 885.5 c 128,-1,21
 455 911 455 911 440 946 c 128,-1,22
 425 981 425 981 425 1020 c 256,23,24
 425 1059 425 1059 440 1093.5 c 128,-1,25
 455 1128 455 1128 480.5 1153.5 c 128,-1,26
 506 1179 506 1179 540.5 1194 c 128,-1,27
 575 1209 575 1209 614 1209 c 256,28,29
 653 1209 653 1209 687.5 1194 c 128,-1,30
 722 1179 722 1179 747.5 1153.5 c 128,-1,31
 773 1128 773 1128 788 1093.5 c 128,-1,32
 803 1059 803 1059 803 1020 c 256,13,14
EndSplineSet
EndChar
StartChar: cent
Encoding: 162 162 96
Width: 1228
Flags: W
LayerCount: 2
Back
Fore
SplineSet
948 439 m 0,0,1
 977 456 977 456 1006 442.5 c 128,-1,2
 1035 429 1035 429 1060 370 c 256,3,4
 1085 311 1085 311 1075.5 278 c 128,-1,5
 1066 245 1066 245 1035 228 c 0,6,7
 961 187 961 187 879.5 159 c 128,-1,8
 798 131 798 131 711 122 c 1,9,-1
 711 -62 l 2,10,11
 711 -96 711 -96 692.5 -110.5 c 128,-1,12
 674 -125 674 -125 618 -125 c 256,13,14
 562 -125 562 -125 543.5 -110.5 c 128,-1,15
 525 -96 525 -96 525 -62 c 2,16,-1
 525 127 l 1,17,18
 433 143 433 143 359 184.5 c 128,-1,19
 285 226 285 226 233.5 288 c 128,-1,20
 182 350 182 350 154.5 430 c 128,-1,21
 127 510 127 510 127 602 c 0,22,23
 127 698 127 698 157 780 c 128,-1,24
 187 862 187 862 240 924 c 128,-1,25
 293 986 293 986 366 1026.5 c 128,-1,26
 439 1067 439 1067 525 1080 c 1,27,-1
 525 1249 l 2,28,29
 525 1283 525 1283 543.5 1297.5 c 128,-1,30
 562 1312 562 1312 618 1312 c 256,31,32
 674 1312 674 1312 692.5 1297.5 c 128,-1,33
 711 1283 711 1283 711 1249 c 2,34,-1
 711 1070 l 1,35,36
 790 1043 790 1043 833 969 c 1,37,-1
 833 1023 l 2,38,39
 833 1057 833 1057 862 1071.5 c 128,-1,40
 891 1086 891 1086 955 1086 c 0,41,42
 987 1086 987 1086 1008 1082.5 c 128,-1,43
 1029 1079 1029 1079 1041 1071.5 c 128,-1,44
 1053 1064 1053 1064 1058 1052 c 128,-1,45
 1063 1040 1063 1040 1063 1023 c 2,46,-1
 1063 702 l 2,47,48
 1063 668 1063 668 1033 653.5 c 128,-1,49
 1003 639 1003 639 931 639 c 0,50,51
 895 639 895 639 872.5 642.5 c 128,-1,52
 850 646 850 646 836.5 653.5 c 128,-1,53
 823 661 823 661 818 673 c 128,-1,54
 813 685 813 685 813 702 c 0,55,56
 813 749 813 749 787.5 788.5 c 128,-1,57
 762 828 762 828 711 846 c 1,58,-1
 711 351 l 1,59,60
 772 361 772 361 831.5 383.5 c 128,-1,61
 891 406 891 406 948 439 c 0,0,1
395 602 m 256,62,63
 395 517 395 517 429.5 457 c 128,-1,64
 464 397 464 397 525 368 c 1,65,-1
 525 836 l 1,66,67
 464 807 464 807 429.5 747 c 128,-1,68
 395 687 395 687 395 602 c 256,62,63
EndSplineSet
EndChar
StartChar: sterling
Encoding: 163 163 97
Width: 1228
Flags: W
LayerCount: 2
Back
Fore
SplineSet
1040 56 m 0,0,1
 977 9 977 9 923 -7.5 c 128,-1,2
 869 -24 869 -24 818 -24 c 0,3,4
 782 -24 782 -24 746.5 -18 c 128,-1,5
 711 -12 711 -12 674.5 -5.5 c 128,-1,6
 638 1 638 1 598.5 7 c 128,-1,7
 559 13 559 13 515 13 c 0,8,9
 467 13 467 13 410 3 c 128,-1,10
 353 -7 353 -7 287 -34 c 0,11,12
 266 -43 266 -43 241 -21.5 c 128,-1,13
 216 0 216 0 199 34 c 0,14,15
 190 51 190 51 184.5 69.5 c 128,-1,16
 179 88 179 88 178.5 105.5 c 128,-1,17
 178 123 178 123 182.5 137.5 c 128,-1,18
 187 152 187 152 199 161 c 0,19,20
 240 193 240 193 272 223 c 128,-1,21
 304 253 304 253 326 284 c 128,-1,22
 348 315 348 315 360.5 349.5 c 128,-1,23
 373 384 373 384 375 425 c 1,24,-1
 213 425 l 2,25,26
 196 425 196 425 184 429 c 128,-1,27
 172 433 172 433 164.5 445 c 128,-1,28
 157 457 157 457 153.5 479 c 128,-1,29
 150 501 150 501 150 537 c 256,30,31
 150 573 150 573 153.5 595 c 128,-1,32
 157 617 157 617 164.5 629 c 128,-1,33
 172 641 172 641 184 645.5 c 128,-1,34
 196 650 196 650 213 650 c 2,35,-1
 308 650 l 1,36,37
 295 674 295 674 283 699 c 128,-1,38
 271 724 271 724 261.5 750.5 c 128,-1,39
 252 777 252 777 246.5 806 c 128,-1,40
 241 835 241 835 241 867 c 0,41,42
 241 940 241 940 266 1002.5 c 128,-1,43
 291 1065 291 1065 339.5 1111 c 128,-1,44
 388 1157 388 1157 458.5 1183 c 128,-1,45
 529 1209 529 1209 620 1209 c 0,46,47
 782 1209 782 1209 955 1120 c 0,48,49
 977 1109 977 1109 989 1094 c 128,-1,50
 1001 1079 1001 1079 1001 1057 c 2,51,-1
 1001 850 l 2,52,53
 1001 816 1001 816 972 801.5 c 128,-1,54
 943 787 943 787 879 787 c 0,55,56
 847 787 847 787 826 790.5 c 128,-1,57
 805 794 805 794 793 801.5 c 128,-1,58
 781 809 781 809 776 821 c 128,-1,59
 771 833 771 833 771 850 c 2,60,-1
 771 961 l 1,61,62
 740 976 740 976 706 984 c 128,-1,63
 672 992 672 992 628 992 c 0,64,65
 565 992 565 992 530 955.5 c 128,-1,66
 495 919 495 919 495 858 c 0,67,68
 495 828 495 828 502.5 801 c 128,-1,69
 510 774 510 774 522 749.5 c 128,-1,70
 534 725 534 725 548.5 700.5 c 128,-1,71
 563 676 563 676 577 650 c 1,72,-1
 865 650 l 2,73,74
 882 650 882 650 894 645.5 c 128,-1,75
 906 641 906 641 913.5 629 c 128,-1,76
 921 617 921 617 924.5 595 c 128,-1,77
 928 573 928 573 928 537 c 256,78,79
 928 501 928 501 924.5 479 c 128,-1,80
 921 457 921 457 913.5 445 c 128,-1,81
 906 433 906 433 894 429 c 128,-1,82
 882 425 882 425 865 425 c 2,83,-1
 624 425 l 1,84,85
 616 364 616 364 586.5 311 c 128,-1,86
 557 258 557 258 509 207 c 1,87,88
 551 223 551 223 585.5 229 c 128,-1,89
 620 235 620 235 650 235 c 0,90,91
 674 235 674 235 695 232.5 c 128,-1,92
 716 230 716 230 736 226.5 c 128,-1,93
 756 223 756 223 776.5 220.5 c 128,-1,94
 797 218 797 218 818 218 c 0,95,96
 847 218 847 218 879 224.5 c 128,-1,97
 911 231 911 231 951 251 c 0,98,99
 963 257 963 257 975.5 254 c 128,-1,100
 988 251 988 251 1000 241 c 128,-1,101
 1012 231 1012 231 1023 216.5 c 128,-1,102
 1034 202 1034 202 1042 184 c 256,103,104
 1050 166 1050 166 1055 147 c 128,-1,105
 1060 128 1060 128 1060.5 110.5 c 128,-1,106
 1061 93 1061 93 1056.5 78.5 c 128,-1,107
 1052 64 1052 64 1040 56 c 0,0,1
EndSplineSet
EndChar
StartChar: yen
Encoding: 165 165 113
Width: 1228
Flags: W
LayerCount: 2
Back
Fore
SplineSet
489 327 m 1,0,-1
 203 327 l 2,1,2
 186 327 186 327 174 331 c 128,-1,3
 162 335 162 335 154.5 345 c 128,-1,4
 147 355 147 355 143.5 373 c 128,-1,5
 140 391 140 391 140 419 c 0,6,7
 140 475 140 475 154.5 493.5 c 128,-1,8
 169 512 169 512 203 512 c 2,9,-1
 455 512 l 1,10,-1
 362 655 l 1,11,-1
 183 655 l 2,12,13
 166 655 166 655 154 659 c 128,-1,14
 142 663 142 663 134.5 673 c 128,-1,15
 127 683 127 683 123.5 701 c 128,-1,16
 120 719 120 719 120 747 c 0,17,18
 120 803 120 803 134.5 821.5 c 128,-1,19
 149 840 149 840 183 840 c 2,20,-1
 241 840 l 1,21,-1
 149 982 l 1,22,-1
 103 982 l 2,23,24
 86 982 86 982 74 986 c 128,-1,25
 62 990 62 990 54.5 1001 c 128,-1,26
 47 1012 47 1012 43.5 1032 c 128,-1,27
 40 1052 40 1052 40 1084 c 256,28,29
 40 1116 40 1116 43.5 1136 c 128,-1,30
 47 1156 47 1156 54.5 1167.5 c 128,-1,31
 62 1179 62 1179 74 1183 c 128,-1,32
 86 1187 86 1187 103 1187 c 2,33,-1
 497 1187 l 2,34,35
 514 1187 514 1187 526 1183 c 128,-1,36
 538 1179 538 1179 545.5 1167.5 c 128,-1,37
 553 1156 553 1156 556.5 1136 c 128,-1,38
 560 1116 560 1116 560 1084 c 256,39,40
 560 1052 560 1052 556.5 1032 c 128,-1,41
 553 1012 553 1012 545.5 1001 c 128,-1,42
 538 990 538 990 526 986 c 128,-1,43
 514 982 514 982 497 982 c 2,44,-1
 430 982 l 1,45,-1
 616 690 l 1,46,-1
 804 982 l 1,47,-1
 751 982 l 2,48,49
 734 982 734 982 722 986 c 128,-1,50
 710 990 710 990 702.5 1001 c 128,-1,51
 695 1012 695 1012 691.5 1032 c 128,-1,52
 688 1052 688 1052 688 1084 c 256,53,54
 688 1116 688 1116 691.5 1136 c 128,-1,55
 695 1156 695 1156 702.5 1167.5 c 128,-1,56
 710 1179 710 1179 722 1183 c 128,-1,57
 734 1187 734 1187 751 1187 c 2,58,-1
 1125 1187 l 2,59,60
 1142 1187 1142 1187 1154 1183 c 128,-1,61
 1166 1179 1166 1179 1173.5 1167.5 c 128,-1,62
 1181 1156 1181 1156 1184.5 1136 c 128,-1,63
 1188 1116 1188 1116 1188 1084 c 256,64,65
 1188 1052 1188 1052 1184.5 1032 c 128,-1,66
 1181 1012 1181 1012 1173.5 1001 c 128,-1,67
 1166 990 1166 990 1154 986 c 128,-1,68
 1142 982 1142 982 1125 982 c 2,69,-1
 1081 982 l 1,70,-1
 988 840 l 1,71,-1
 1045 840 l 2,72,73
 1079 840 1079 840 1093.5 821.5 c 128,-1,74
 1108 803 1108 803 1108 747 c 0,75,76
 1108 719 1108 719 1104.5 701 c 128,-1,77
 1101 683 1101 683 1093.5 673 c 128,-1,78
 1086 663 1086 663 1074 659 c 128,-1,79
 1062 655 1062 655 1045 655 c 2,80,-1
 867 655 l 1,81,-1
 773 512 l 1,82,-1
 1025 512 l 2,83,84
 1059 512 1059 512 1073.5 493.5 c 128,-1,85
 1088 475 1088 475 1088 419 c 0,86,87
 1088 391 1088 391 1084.5 373 c 128,-1,88
 1081 355 1081 355 1073.5 345 c 128,-1,89
 1066 335 1066 335 1054 331 c 128,-1,90
 1042 327 1042 327 1025 327 c 2,91,-1
 739 327 l 1,92,-1
 739 205 l 1,93,-1
 935 205 l 2,94,95
 952 205 952 205 964 201 c 128,-1,96
 976 197 976 197 983.5 185.5 c 128,-1,97
 991 174 991 174 994.5 154 c 128,-1,98
 998 134 998 134 998 102 c 256,99,100
 998 70 998 70 994.5 50 c 128,-1,101
 991 30 991 30 983.5 19 c 128,-1,102
 976 8 976 8 964 4 c 128,-1,103
 952 0 952 0 935 0 c 2,104,-1
 293 0 l 2,105,106
 276 0 276 0 264 4 c 128,-1,107
 252 8 252 8 244.5 19 c 128,-1,108
 237 30 237 30 233.5 50 c 128,-1,109
 230 70 230 70 230 102 c 256,110,111
 230 134 230 134 233.5 154 c 128,-1,112
 237 174 237 174 244.5 185.5 c 128,-1,113
 252 197 252 197 264 201 c 128,-1,114
 276 205 276 205 293 205 c 2,115,-1
 489 205 l 1,116,-1
 489 327 l 1,0,-1
EndSplineSet
EndChar
StartChar: brokenbar
Encoding: 166 166 155
Width: 1228
Flags: W
LayerCount: 2
Back
Fore
SplineSet
489 271 m 2,0,1
 489 305 489 305 523 319.5 c 128,-1,2
 557 334 557 334 621 334 c 256,3,4
 685 334 685 334 712 319.5 c 128,-1,5
 739 305 739 305 739 271 c 2,6,-1
 739 -352 l 2,7,8
 739 -386 739 -386 705 -400.5 c 128,-1,9
 671 -415 671 -415 607 -415 c 256,10,11
 543 -415 543 -415 516 -400.5 c 128,-1,12
 489 -386 489 -386 489 -352 c 2,13,-1
 489 271 l 2,0,1
489 1271 m 2,14,15
 489 1305 489 1305 523 1319.5 c 128,-1,16
 557 1334 557 1334 621 1334 c 256,17,18
 685 1334 685 1334 712 1319.5 c 128,-1,19
 739 1305 739 1305 739 1271 c 2,20,-1
 739 648 l 2,21,22
 739 614 739 614 705 599.5 c 128,-1,23
 671 585 671 585 607 585 c 256,24,25
 543 585 543 585 516 599.5 c 128,-1,26
 489 614 489 614 489 648 c 2,27,-1
 489 1271 l 2,14,15
EndSplineSet
EndChar
StartChar: section
Encoding: 167 167 98
Width: 1228
Flags: W
LayerCount: 2
Back
Fore
SplineSet
633 -35 m 2,0,1
 676 -35 676 -35 699 -16.5 c 128,-1,2
 722 2 722 2 722 37 c 0,3,4
 722 71 722 71 701.5 98.5 c 128,-1,5
 681 126 681 126 636 148 c 2,6,-1
 345 293 l 2,7,8
 255 338 255 338 207 411 c 128,-1,9
 159 484 159 484 159 583 c 0,10,11
 159 655 159 655 188 713 c 128,-1,12
 217 771 217 771 272 816 c 1,13,14
 258 864 258 864 258 916 c 0,15,16
 258 976 258 976 277.5 1026 c 128,-1,17
 297 1076 297 1076 335.5 1112 c 128,-1,18
 374 1148 374 1148 430 1167.5 c 128,-1,19
 486 1187 486 1187 559 1187 c 2,20,-1
 953 1187 l 2,21,22
 988 1187 988 1187 1003 1172 c 128,-1,23
 1018 1157 1018 1157 1018 1122 c 2,24,-1
 1018 860 l 2,25,26
 1018 826 1018 826 989 811.5 c 128,-1,27
 960 797 960 797 896 797 c 0,28,29
 864 797 864 797 843 800.5 c 128,-1,30
 822 804 822 804 810 811.5 c 128,-1,31
 798 819 798 819 793 831 c 128,-1,32
 788 843 788 843 788 860 c 2,33,-1
 788 992 l 1,34,-1
 595 992 l 2,35,36
 552 992 552 992 529 973.5 c 128,-1,37
 506 955 506 955 506 920 c 0,38,39
 506 886 506 886 526.5 858.5 c 128,-1,40
 547 831 547 831 592 809 c 2,41,-1
 883 664 l 2,42,43
 973 619 973 619 1021 546 c 128,-1,44
 1069 473 1069 473 1069 374 c 0,45,46
 1069 302 1069 302 1039.5 244 c 128,-1,47
 1010 186 1010 186 955 140 c 1,48,49
 970 95 970 95 970 41 c 0,50,51
 970 -19 970 -19 950.5 -69 c 128,-1,52
 931 -119 931 -119 892.5 -155 c 128,-1,53
 854 -191 854 -191 798 -210.5 c 128,-1,54
 742 -230 742 -230 669 -230 c 2,55,-1
 275 -230 l 2,56,57
 240 -230 240 -230 225 -215 c 128,-1,58
 210 -200 210 -200 210 -165 c 2,59,-1
 210 97 l 2,60,61
 210 131 210 131 239 145.5 c 128,-1,62
 268 160 268 160 332 160 c 0,63,64
 364 160 364 160 385 156.5 c 128,-1,65
 406 153 406 153 418 145.5 c 128,-1,66
 430 138 430 138 435 126 c 128,-1,67
 440 114 440 114 440 97 c 2,68,-1
 440 -35 l 1,69,-1
 633 -35 l 2,0,1
772 335 m 2,70,71
 793 324 793 324 808 315 c 1,72,73
 821 337 821 337 821 365 c 0,74,75
 821 405 821 405 796.5 434.5 c 128,-1,76
 772 464 772 464 721 490 c 2,77,-1
 456 622 l 2,78,79
 446 627 446 627 437 632 c 128,-1,80
 428 637 428 637 419 642 c 1,81,82
 407 619 407 619 407 592 c 0,83,84
 407 552 407 552 431.5 522.5 c 128,-1,85
 456 493 456 493 507 467 c 2,86,-1
 772 335 l 2,70,71
EndSplineSet
EndChar
StartChar: dieresis
Encoding: 168 168 106
Width: 1228
Flags: W
LayerCount: 2
Back
Fore
SplineSet
234 1195 m 256,0,1
 234 1226 234 1226 246 1253.5 c 128,-1,2
 258 1281 258 1281 278 1301 c 128,-1,3
 298 1321 298 1321 325.5 1333 c 128,-1,4
 353 1345 353 1345 384 1345 c 256,5,6
 415 1345 415 1345 442.5 1333 c 128,-1,7
 470 1321 470 1321 490 1301 c 128,-1,8
 510 1281 510 1281 522 1253.5 c 128,-1,9
 534 1226 534 1226 534 1195 c 256,10,11
 534 1164 534 1164 522 1136.5 c 128,-1,12
 510 1109 510 1109 490 1089 c 128,-1,13
 470 1069 470 1069 442.5 1057 c 128,-1,14
 415 1045 415 1045 384 1045 c 256,15,16
 353 1045 353 1045 325.5 1057 c 128,-1,17
 298 1069 298 1069 278 1089 c 128,-1,18
 258 1109 258 1109 246 1136.5 c 128,-1,19
 234 1164 234 1164 234 1195 c 256,0,1
694 1195 m 256,20,21
 694 1226 694 1226 706 1253.5 c 128,-1,22
 718 1281 718 1281 738 1301 c 128,-1,23
 758 1321 758 1321 785.5 1333 c 128,-1,24
 813 1345 813 1345 844 1345 c 256,25,26
 875 1345 875 1345 902.5 1333 c 128,-1,27
 930 1321 930 1321 950 1301 c 128,-1,28
 970 1281 970 1281 982 1253.5 c 128,-1,29
 994 1226 994 1226 994 1195 c 256,30,31
 994 1164 994 1164 982 1136.5 c 128,-1,32
 970 1109 970 1109 950 1089 c 128,-1,33
 930 1069 930 1069 902.5 1057 c 128,-1,34
 875 1045 875 1045 844 1045 c 256,35,36
 813 1045 813 1045 785.5 1057 c 128,-1,37
 758 1069 758 1069 738 1089 c 128,-1,38
 718 1109 718 1109 706 1136.5 c 128,-1,39
 694 1164 694 1164 694 1195 c 256,20,21
EndSplineSet
EndChar
StartChar: copyright
Encoding: 169 169 103
Width: 1228
Flags: W
LayerCount: 2
Back
Fore
SplineSet
485 593 m 256,0,1
 485 510 485 510 526.5 466 c 128,-1,2
 568 422 568 422 639 422 c 0,3,4
 674 422 674 422 708 430 c 128,-1,5
 742 438 742 438 777 450 c 0,6,7
 803 459 803 459 818.5 446 c 128,-1,8
 834 433 834 433 848 395 c 0,9,10
 863 353 863 353 858.5 329.5 c 128,-1,11
 854 306 854 306 825 292 c 0,12,13
 782 271 782 271 734 260 c 128,-1,14
 686 249 686 249 639 249 c 0,15,16
 567 249 567 249 506 272.5 c 128,-1,17
 445 296 445 296 401 340 c 128,-1,18
 357 384 357 384 332 448 c 128,-1,19
 307 512 307 512 307 593 c 256,20,21
 307 674 307 674 332 738 c 128,-1,22
 357 802 357 802 401 846 c 128,-1,23
 445 890 445 890 506 913.5 c 128,-1,24
 567 937 567 937 639 937 c 0,25,26
 686 937 686 937 734 926 c 128,-1,27
 782 915 782 915 825 894 c 0,28,29
 854 880 854 880 858.5 856.5 c 128,-1,30
 863 833 863 833 848 791 c 0,31,32
 834 753 834 753 818.5 740 c 128,-1,33
 803 727 803 727 777 736 c 0,34,35
 742 748 742 748 708 756 c 128,-1,36
 674 764 674 764 639 764 c 0,37,38
 568 764 568 764 526.5 720 c 128,-1,39
 485 676 485 676 485 593 c 256,0,1
181 594 m 256,40,41
 181 495 181 495 211.5 410.5 c 128,-1,42
 242 326 242 326 298.5 264 c 128,-1,43
 355 202 355 202 434.5 166.5 c 128,-1,44
 514 131 514 131 613 131 c 256,45,46
 712 131 712 131 791.5 166.5 c 128,-1,47
 871 202 871 202 927.5 264 c 128,-1,48
 984 326 984 326 1014.5 410.5 c 128,-1,49
 1045 495 1045 495 1045 594 c 256,50,51
 1045 693 1045 693 1014.5 777.5 c 128,-1,52
 984 862 984 862 927.5 924 c 128,-1,53
 871 986 871 986 791.5 1021 c 128,-1,54
 712 1056 712 1056 613 1056 c 256,55,56
 514 1056 514 1056 434.5 1021 c 128,-1,57
 355 986 355 986 298.5 924 c 128,-1,58
 242 862 242 862 211.5 777.5 c 128,-1,59
 181 693 181 693 181 594 c 256,40,41
28 594 m 256,60,61
 28 725 28 725 71.5 837.5 c 128,-1,62
 115 950 115 950 193 1032.5 c 128,-1,63
 271 1115 271 1115 378 1162 c 128,-1,64
 485 1209 485 1209 613 1209 c 0,65,66
 740 1209 740 1209 847.5 1162 c 128,-1,67
 955 1115 955 1115 1033 1032.5 c 128,-1,68
 1111 950 1111 950 1154.5 837.5 c 128,-1,69
 1198 725 1198 725 1198 594 c 256,70,71
 1198 463 1198 463 1154.5 350 c 128,-1,72
 1111 237 1111 237 1033 154.5 c 128,-1,73
 955 72 955 72 847.5 25 c 128,-1,74
 740 -22 740 -22 613 -22 c 0,75,76
 485 -22 485 -22 378 25 c 128,-1,77
 271 72 271 72 193 154.5 c 128,-1,78
 115 237 115 237 71.5 350 c 128,-1,79
 28 463 28 463 28 594 c 256,60,61
EndSplineSet
EndChar
StartChar: ordfeminine
Encoding: 170 170 227
Width: 1228
Flags: W
LayerCount: 2
Back
Fore
SplineSet
776 563 m 1,0,1
 717 518 717 518 649.5 491.5 c 128,-1,2
 582 465 582 465 508 465 c 0,3,4
 442 465 442 465 390 482 c 128,-1,5
 338 499 338 499 302.5 530.5 c 128,-1,6
 267 562 267 562 248 607.5 c 128,-1,7
 229 653 229 653 229 709 c 0,8,9
 229 817 229 817 305 876 c 128,-1,10
 381 935 381 935 518 935 c 0,11,12
 569 935 569 935 623 929 c 128,-1,13
 677 923 677 923 735 912 c 1,14,-1
 735 934 l 2,15,16
 735 982 735 982 702.5 1008.5 c 128,-1,17
 670 1035 670 1035 586 1035 c 0,18,19
 540 1035 540 1035 485.5 1023 c 128,-1,20
 431 1011 431 1011 378 994 c 0,21,22
 347 984 347 984 327.5 999.5 c 128,-1,23
 308 1015 308 1015 293 1060 c 0,24,25
 282 1093 282 1093 284.5 1119 c 128,-1,26
 287 1145 287 1145 318 1156 c 0,27,28
 390 1182 390 1182 467.5 1195.5 c 128,-1,29
 545 1209 545 1209 608 1209 c 0,30,31
 696 1209 696 1209 757 1189.5 c 128,-1,32
 818 1170 818 1170 856 1133 c 128,-1,33
 894 1096 894 1096 911 1044 c 128,-1,34
 928 992 928 992 928 927 c 2,35,-1
 928 705 l 2,36,37
 928 674 928 674 940.5 657 c 128,-1,38
 953 640 953 640 978 640 c 2,39,-1
 1002 640 l 2,40,41
 1028 640 1028 640 1039.5 624.5 c 128,-1,42
 1051 609 1051 609 1051 560 c 0,43,44
 1051 536 1051 536 1048.5 520.5 c 128,-1,45
 1046 505 1046 505 1040 496.5 c 128,-1,46
 1034 488 1034 488 1024.5 485 c 128,-1,47
 1015 482 1015 482 1002 482 c 2,48,-1
 916 482 l 2,49,50
 870 482 870 482 833 500.5 c 128,-1,51
 796 519 796 519 776 563 c 1,0,1
735 756 m 1,52,53
 681 767 681 767 632.5 771.5 c 128,-1,54
 584 776 584 776 537 776 c 0,55,56
 483 776 483 776 455 756.5 c 128,-1,57
 427 737 427 737 427 701 c 256,58,59
 427 665 427 665 454.5 646 c 128,-1,60
 482 627 482 627 533 627 c 0,61,62
 588 627 588 627 640 649 c 128,-1,63
 692 671 692 671 735 706 c 1,64,-1
 735 756 l 1,52,53
EndSplineSet
EndChar
StartChar: guillemotleft
Encoding: 171 171 123
Width: 1228
Flags: W
LayerCount: 2
Back
Fore
SplineSet
382 920 m 2,0,1
 390 933 390 933 404.5 939 c 128,-1,2
 419 945 419 945 437 945.5 c 128,-1,3
 455 946 455 946 475.5 941.5 c 128,-1,4
 496 937 496 937 515 928 c 0,5,6
 535 919 535 919 552.5 906.5 c 128,-1,7
 570 894 570 894 581.5 879.5 c 128,-1,8
 593 865 593 865 596 850 c 128,-1,9
 599 835 599 835 590 820 c 2,10,-1
 426 551 l 1,11,-1
 590 281 l 2,12,13
 599 266 599 266 596 251 c 128,-1,14
 593 236 593 236 581.5 221.5 c 128,-1,15
 570 207 570 207 552.5 194.5 c 128,-1,16
 535 182 535 182 515 173 c 0,17,18
 496 164 496 164 475.5 159.5 c 128,-1,19
 455 155 455 155 437 155.5 c 128,-1,20
 419 156 419 156 404.5 162 c 128,-1,21
 390 168 390 168 382 181 c 2,22,-1
 173 525 l 2,23,24
 157 550 157 550 173 576 c 2,25,-1
 382 920 l 2,0,1
822 920 m 2,26,27
 830 933 830 933 844.5 939 c 128,-1,28
 859 945 859 945 877 945.5 c 128,-1,29
 895 946 895 946 915.5 941.5 c 128,-1,30
 936 937 936 937 955 928 c 0,31,32
 975 919 975 919 992.5 906.5 c 128,-1,33
 1010 894 1010 894 1021.5 879.5 c 128,-1,34
 1033 865 1033 865 1036 850 c 128,-1,35
 1039 835 1039 835 1030 820 c 2,36,-1
 866 551 l 1,37,-1
 1030 281 l 2,38,39
 1039 266 1039 266 1036 251 c 128,-1,40
 1033 236 1033 236 1021.5 221.5 c 128,-1,41
 1010 207 1010 207 992.5 194.5 c 128,-1,42
 975 182 975 182 955 173 c 0,43,44
 936 164 936 164 915.5 159.5 c 128,-1,45
 895 155 895 155 877 155.5 c 128,-1,46
 859 156 859 156 844.5 162 c 128,-1,47
 830 168 830 168 822 181 c 2,48,-1
 613 525 l 2,49,50
 597 550 597 550 613 576 c 2,51,-1
 822 920 l 2,26,27
EndSplineSet
EndChar
StartChar: logicalnot
Encoding: 172 172 120
Width: 1228
Flags: W
LayerCount: 2
Back
Fore
SplineSet
183 630 m 2,0,1
 166 630 166 630 154 634 c 128,-1,2
 142 638 142 638 134.5 650 c 128,-1,3
 127 662 127 662 123.5 683 c 128,-1,4
 120 704 120 704 120 738 c 256,5,6
 120 772 120 772 123.5 793 c 128,-1,7
 127 814 127 814 134.5 825.5 c 128,-1,8
 142 837 142 837 154 841 c 128,-1,9
 166 845 166 845 183 845 c 2,10,-1
 1033 845 l 2,11,12
 1068 845 1068 845 1083 830 c 128,-1,13
 1098 815 1098 815 1098 780 c 2,14,-1
 1098 348 l 2,15,16
 1098 314 1098 314 1068 299.5 c 128,-1,17
 1038 285 1038 285 966 285 c 0,18,19
 930 285 930 285 907.5 288.5 c 128,-1,20
 885 292 885 292 871.5 299.5 c 128,-1,21
 858 307 858 307 853 319 c 128,-1,22
 848 331 848 331 848 348 c 2,23,-1
 848 630 l 1,24,-1
 183 630 l 2,0,1
EndSplineSet
EndChar
StartChar: registered
Encoding: 174 174 102
Width: 1228
Flags: W
LayerCount: 2
Back
Fore
SplineSet
28 594 m 256,0,1
 28 725 28 725 71.5 837.5 c 128,-1,2
 115 950 115 950 193 1032.5 c 128,-1,3
 271 1115 271 1115 378 1162 c 128,-1,4
 485 1209 485 1209 613 1209 c 0,5,6
 740 1209 740 1209 847.5 1162 c 128,-1,7
 955 1115 955 1115 1033 1032.5 c 128,-1,8
 1111 950 1111 950 1154.5 837.5 c 128,-1,9
 1198 725 1198 725 1198 594 c 256,10,11
 1198 463 1198 463 1154.5 350 c 128,-1,12
 1111 237 1111 237 1033 154.5 c 128,-1,13
 955 72 955 72 847.5 25 c 128,-1,14
 740 -22 740 -22 613 -22 c 0,15,16
 485 -22 485 -22 378 25 c 128,-1,17
 271 72 271 72 193 154.5 c 128,-1,18
 115 237 115 237 71.5 350 c 128,-1,19
 28 463 28 463 28 594 c 256,0,1
181 594 m 256,20,21
 181 495 181 495 211.5 410.5 c 128,-1,22
 242 326 242 326 298.5 264 c 128,-1,23
 355 202 355 202 434.5 166.5 c 128,-1,24
 514 131 514 131 613 131 c 256,25,26
 712 131 712 131 791.5 166.5 c 128,-1,27
 871 202 871 202 927.5 264 c 128,-1,28
 984 326 984 326 1014.5 410.5 c 128,-1,29
 1045 495 1045 495 1045 594 c 256,30,31
 1045 693 1045 693 1014.5 777.5 c 128,-1,32
 984 862 984 862 927.5 924 c 128,-1,33
 871 986 871 986 791.5 1021 c 128,-1,34
 712 1056 712 1056 613 1056 c 256,35,36
 514 1056 514 1056 434.5 1021 c 128,-1,37
 355 986 355 986 298.5 924 c 128,-1,38
 242 862 242 862 211.5 777.5 c 128,-1,39
 181 693 181 693 181 594 c 256,20,21
366 854 m 2,40,41
 366 888 366 888 380.5 902.5 c 128,-1,42
 395 917 395 917 429 917 c 2,43,-1
 665 917 l 2,44,45
 720 917 720 917 765 897.5 c 128,-1,46
 810 878 810 878 841.5 845 c 128,-1,47
 873 812 873 812 890 768 c 128,-1,48
 907 724 907 724 907 675 c 0,49,50
 907 607 907 607 876 556.5 c 128,-1,51
 845 506 845 506 786 478 c 1,52,-1
 863 390 l 2,53,54
 886 364 886 364 882.5 341 c 128,-1,55
 879 318 879 318 838 290 c 256,56,57
 797 262 797 262 773.5 262.5 c 128,-1,58
 750 263 750 263 729 290 c 2,59,-1
 610 443 l 1,60,-1
 536 443 l 1,61,-1
 536 335 l 2,62,63
 536 318 536 318 532.5 305.5 c 128,-1,64
 529 293 529 293 520 285 c 128,-1,65
 511 277 511 277 494.5 273.5 c 128,-1,66
 478 270 478 270 451 270 c 256,67,68
 424 270 424 270 407.5 273.5 c 128,-1,69
 391 277 391 277 382 285 c 128,-1,70
 373 293 373 293 369.5 305.5 c 128,-1,71
 366 318 366 318 366 335 c 2,72,-1
 366 854 l 2,40,41
536 752 m 1,73,-1
 536 598 l 1,74,-1
 635 598 l 2,75,76
 680 598 680 598 704.5 618.5 c 128,-1,77
 729 639 729 639 729 675 c 0,78,79
 729 709 729 709 706.5 730.5 c 128,-1,80
 684 752 684 752 644 752 c 2,81,-1
 536 752 l 1,73,-1
EndSplineSet
EndChar
StartChar: macron
Encoding: 175 175 141
Width: 1228
Flags: W
LayerCount: 2
Back
Fore
SplineSet
895 1275 m 2,0,1
 912 1275 912 1275 924 1271 c 128,-1,2
 936 1267 936 1267 943.5 1255.5 c 128,-1,3
 951 1244 951 1244 954.5 1224 c 128,-1,4
 958 1204 958 1204 958 1172 c 256,5,6
 958 1140 958 1140 954.5 1120 c 128,-1,7
 951 1100 951 1100 943.5 1089 c 128,-1,8
 936 1078 936 1078 924 1074 c 128,-1,9
 912 1070 912 1070 895 1070 c 2,10,-1
 333 1070 l 2,11,12
 316 1070 316 1070 304 1074 c 128,-1,13
 292 1078 292 1078 284.5 1089 c 128,-1,14
 277 1100 277 1100 273.5 1120 c 128,-1,15
 270 1140 270 1140 270 1172 c 256,16,17
 270 1204 270 1204 273.5 1224 c 128,-1,18
 277 1244 277 1244 284.5 1255.5 c 128,-1,19
 292 1267 292 1267 304 1271 c 128,-1,20
 316 1275 316 1275 333 1275 c 2,21,-1
 895 1275 l 2,0,1
EndSplineSet
EndChar
StartChar: degree
Encoding: 176 176 95
Width: 1228
Flags: W
LayerCount: 2
Back
Fore
SplineSet
220 887 m 256,0,1
 220 953 220 953 245.5 1012 c 128,-1,2
 271 1071 271 1071 314.5 1114.5 c 128,-1,3
 358 1158 358 1158 417 1183.5 c 128,-1,4
 476 1209 476 1209 542 1209 c 256,5,6
 608 1209 608 1209 667 1183.5 c 128,-1,7
 726 1158 726 1158 769.5 1114.5 c 128,-1,8
 813 1071 813 1071 838.5 1012 c 128,-1,9
 864 953 864 953 864 887 c 256,10,11
 864 821 864 821 838.5 762 c 128,-1,12
 813 703 813 703 769.5 659.5 c 128,-1,13
 726 616 726 616 667 590.5 c 128,-1,14
 608 565 608 565 542 565 c 256,15,16
 476 565 476 565 417 590.5 c 128,-1,17
 358 616 358 616 314.5 659.5 c 128,-1,18
 271 703 271 703 245.5 762 c 128,-1,19
 220 821 220 821 220 887 c 256,0,1
431 887 m 256,20,21
 431 864 431 864 440 844 c 128,-1,22
 449 824 449 824 464 809 c 128,-1,23
 479 794 479 794 499 785 c 128,-1,24
 519 776 519 776 542 776 c 256,25,26
 565 776 565 776 585 785 c 128,-1,27
 605 794 605 794 620 809 c 128,-1,28
 635 824 635 824 644 844 c 128,-1,29
 653 864 653 864 653 887 c 256,30,31
 653 910 653 910 644 930 c 128,-1,32
 635 950 635 950 620 965 c 128,-1,33
 605 980 605 980 585 989 c 128,-1,34
 565 998 565 998 542 998 c 256,35,36
 519 998 519 998 499 989 c 128,-1,37
 479 980 479 980 464 965 c 128,-1,38
 449 950 449 950 440 930 c 128,-1,39
 431 910 431 910 431 887 c 256,20,21
EndSplineSet
EndChar
StartChar: plusminus
Encoding: 177 177 110
Width: 1228
Flags: W
LayerCount: 2
Back
Fore
SplineSet
233 620 m 2,0,1
 216 620 216 620 204 624 c 128,-1,2
 192 628 192 628 184.5 640 c 128,-1,3
 177 652 177 652 173.5 674 c 128,-1,4
 170 696 170 696 170 732 c 256,5,6
 170 768 170 768 173.5 790 c 128,-1,7
 177 812 177 812 184.5 824 c 128,-1,8
 192 836 192 836 204 840.5 c 128,-1,9
 216 845 216 845 233 845 c 2,10,-1
 501 845 l 1,11,-1
 501 1063 l 2,12,13
 501 1080 501 1080 505.5 1092 c 128,-1,14
 510 1104 510 1104 522 1111.5 c 128,-1,15
 534 1119 534 1119 556 1122.5 c 128,-1,16
 578 1126 578 1126 614 1126 c 256,17,18
 650 1126 650 1126 672 1122.5 c 128,-1,19
 694 1119 694 1119 706 1111.5 c 128,-1,20
 718 1104 718 1104 722 1092 c 128,-1,21
 726 1080 726 1080 726 1063 c 2,22,-1
 726 845 l 1,23,-1
 995 845 l 2,24,25
 1012 845 1012 845 1024 840.5 c 128,-1,26
 1036 836 1036 836 1043.5 824 c 128,-1,27
 1051 812 1051 812 1054.5 790 c 128,-1,28
 1058 768 1058 768 1058 732 c 256,29,30
 1058 696 1058 696 1054.5 674 c 128,-1,31
 1051 652 1051 652 1043.5 640 c 128,-1,32
 1036 628 1036 628 1024 624 c 128,-1,33
 1012 620 1012 620 995 620 c 2,34,-1
 726 620 l 1,35,-1
 726 401 l 2,36,37
 726 384 726 384 722 372 c 128,-1,38
 718 360 718 360 706 352.5 c 128,-1,39
 694 345 694 345 672 341.5 c 128,-1,40
 650 338 650 338 614 338 c 256,41,42
 578 338 578 338 556 341.5 c 128,-1,43
 534 345 534 345 522 352.5 c 128,-1,44
 510 360 510 360 505.5 372 c 128,-1,45
 501 384 501 384 501 401 c 2,46,-1
 501 620 l 1,47,-1
 233 620 l 2,0,1
995 225 m 2,48,49
 1012 225 1012 225 1024 220.5 c 128,-1,50
 1036 216 1036 216 1043.5 204 c 128,-1,51
 1051 192 1051 192 1054.5 170 c 128,-1,52
 1058 148 1058 148 1058 112 c 256,53,54
 1058 76 1058 76 1054.5 54 c 128,-1,55
 1051 32 1051 32 1043.5 20 c 128,-1,56
 1036 8 1036 8 1024 4 c 128,-1,57
 1012 0 1012 0 995 0 c 2,58,-1
 233 0 l 2,59,60
 216 0 216 0 204 4 c 128,-1,61
 192 8 192 8 184.5 20 c 128,-1,62
 177 32 177 32 173.5 54 c 128,-1,63
 170 76 170 76 170 112 c 256,64,65
 170 148 170 148 173.5 170 c 128,-1,66
 177 192 177 192 184.5 204 c 128,-1,67
 192 216 192 216 204 220.5 c 128,-1,68
 216 225 216 225 233 225 c 2,69,-1
 995 225 l 2,48,49
EndSplineSet
EndChar
StartChar: twosuperior
Encoding: 178 178 162
Width: 1228
Flags: W
LayerCount: 2
Back
Fore
SplineSet
493 1047 m 2,0,1
 493 1023 493 1023 476 1011 c 128,-1,2
 459 999 459 999 407 999 c 0,3,4
 354 999 354 999 331 1011 c 128,-1,5
 308 1023 308 1023 308 1047 c 2,6,-1
 308 1220 l 2,7,8
 308 1248 308 1248 339 1265 c 0,9,10
 405 1300 405 1300 485.5 1317 c 128,-1,11
 566 1334 566 1334 641 1334 c 0,12,13
 715 1334 715 1334 771.5 1314.5 c 128,-1,14
 828 1295 828 1295 866.5 1259.5 c 128,-1,15
 905 1224 905 1224 924.5 1175 c 128,-1,16
 944 1126 944 1126 944 1067 c 0,17,18
 944 1026 944 1026 930.5 990 c 128,-1,19
 917 954 917 954 893 921 c 128,-1,20
 869 888 869 888 834.5 857 c 128,-1,21
 800 826 800 826 758 796 c 2,22,-1
 560 653 l 1,23,-1
 798 653 l 1,24,-1
 798 699 l 2,25,26
 798 711 798 711 801.5 720 c 128,-1,27
 805 729 805 729 814.5 735 c 128,-1,28
 824 741 824 741 841 744 c 128,-1,29
 858 747 858 747 884 747 c 0,30,31
 937 747 937 747 960 735 c 128,-1,32
 983 723 983 723 983 699 c 2,33,-1
 983 529 l 2,34,35
 983 504 983 504 972.5 493.5 c 128,-1,36
 962 483 962 483 937 483 c 2,37,-1
 332 483 l 2,38,39
 308 483 308 483 293.5 506.5 c 128,-1,40
 279 530 279 530 279 583 c 0,41,42
 279 613 279 613 286.5 631 c 128,-1,43
 294 649 294 649 307 659 c 2,44,-1
 634 912 l 2,45,46
 688 952 688 952 715 985.5 c 128,-1,47
 742 1019 742 1019 742 1058 c 0,48,49
 742 1106 742 1106 711.5 1133.5 c 128,-1,50
 681 1161 681 1161 625 1161 c 0,51,52
 592 1161 592 1161 557 1154.5 c 128,-1,53
 522 1148 522 1148 493 1135 c 1,54,-1
 493 1047 l 2,0,1
EndSplineSet
EndChar
StartChar: threesuperior
Encoding: 179 179 163
Width: 1228
Flags: W
LayerCount: 2
Back
Fore
SplineSet
471 1077 m 2,0,1
 471 1053 471 1053 454 1041 c 128,-1,2
 437 1029 437 1029 385 1029 c 0,3,4
 332 1029 332 1029 309 1041 c 128,-1,5
 286 1053 286 1053 286 1077 c 2,6,-1
 286 1230 l 2,7,8
 286 1262 286 1262 317 1275 c 0,9,10
 381 1303 381 1303 460.5 1318.5 c 128,-1,11
 540 1334 540 1334 622 1334 c 0,12,13
 778 1334 778 1334 860 1268 c 128,-1,14
 942 1202 942 1202 942 1084 c 0,15,16
 942 1019 942 1019 909.5 976.5 c 128,-1,17
 877 934 877 934 820 907 c 1,18,19
 883 884 883 884 918.5 836 c 128,-1,20
 954 788 954 788 954 718 c 0,21,22
 954 591 954 591 861 528 c 128,-1,23
 768 465 768 465 603 465 c 0,24,25
 566 465 566 465 526.5 469 c 128,-1,26
 487 473 487 473 449.5 480 c 128,-1,27
 412 487 412 487 377 497 c 128,-1,28
 342 507 342 507 314 519 c 0,29,30
 288 530 288 530 281.5 555.5 c 128,-1,31
 275 581 275 581 290 623 c 0,32,33
 305 664 305 664 324 681 c 128,-1,34
 343 698 343 698 362 690 c 0,35,36
 413 669 413 669 475 653.5 c 128,-1,37
 537 638 537 638 594 638 c 0,38,39
 674 638 674 638 708 661 c 128,-1,40
 742 684 742 684 742 724 c 0,41,42
 742 811 742 811 635 811 c 2,43,-1
 542 811 l 2,44,45
 519 811 519 811 506.5 830 c 128,-1,46
 494 849 494 849 494 897 c 256,47,48
 494 945 494 945 506.5 964 c 128,-1,49
 519 983 519 983 542 983 c 2,50,-1
 616 983 l 2,51,52
 740 983 740 983 740 1074 c 0,53,54
 740 1115 740 1115 706.5 1138 c 128,-1,55
 673 1161 673 1161 607 1161 c 0,56,57
 575 1161 575 1161 540.5 1154.5 c 128,-1,58
 506 1148 506 1148 471 1135 c 1,59,-1
 471 1077 l 2,0,1
EndSplineSet
EndChar
StartChar: acute
Encoding: 180 180 105
Width: 1228
Flags: W
LayerCount: 2
Back
Fore
SplineSet
824 1392 m 2,0,1
 852 1408 852 1408 883 1388.5 c 128,-1,2
 914 1369 914 1369 944 1301 c 0,3,4
 974 1232 974 1232 970.5 1198.5 c 128,-1,5
 967 1165 967 1165 941 1158 c 2,6,-1
 461 1033 l 2,7,8
 437 1026 437 1026 419 1037.5 c 128,-1,9
 401 1049 401 1049 393 1072 c 0,10,11
 385 1094 385 1094 390.5 1113.5 c 128,-1,12
 396 1133 396 1133 416 1145 c 2,13,-1
 824 1392 l 2,0,1
EndSplineSet
EndChar
StartChar: paragraph
Encoding: 182 182 100
Width: 1228
Flags: W
LayerCount: 2
Back
Fore
SplineSet
639 982 m 1,0,-1
 639 -352 l 2,1,2
 639 -386 639 -386 611.5 -400.5 c 128,-1,3
 584 -415 584 -415 527 -415 c 0,4,5
 471 -415 471 -415 450 -400.5 c 128,-1,6
 429 -386 429 -386 429 -352 c 2,7,-1
 429 440 l 1,8,9
 355 451 355 451 294.5 481 c 128,-1,10
 234 511 234 511 191 558.5 c 128,-1,11
 148 606 148 606 124.5 669 c 128,-1,12
 101 732 101 732 101 809 c 0,13,14
 101 898 101 898 131.5 968.5 c 128,-1,15
 162 1039 162 1039 217.5 1087.5 c 128,-1,16
 273 1136 273 1136 350 1161.5 c 128,-1,17
 427 1187 427 1187 519 1187 c 2,18,-1
 1075 1187 l 2,19,20
 1092 1187 1092 1187 1104 1183 c 128,-1,21
 1116 1179 1116 1179 1123.5 1167.5 c 128,-1,22
 1131 1156 1131 1156 1134.5 1136 c 128,-1,23
 1138 1116 1138 1116 1138 1084 c 256,24,25
 1138 1052 1138 1052 1134.5 1032 c 128,-1,26
 1131 1012 1131 1012 1123.5 1001 c 128,-1,27
 1116 990 1116 990 1104 986 c 128,-1,28
 1092 982 1092 982 1075 982 c 2,29,-1
 1009 982 l 1,30,-1
 1009 -352 l 2,31,32
 1009 -386 1009 -386 981.5 -400.5 c 128,-1,33
 954 -415 954 -415 897 -415 c 0,34,35
 841 -415 841 -415 820 -400.5 c 128,-1,36
 799 -386 799 -386 799 -352 c 2,37,-1
 799 982 l 1,38,-1
 639 982 l 1,0,-1
EndSplineSet
EndChar
StartChar: periodcentered
Encoding: 183 183 231
Width: 1228
Flags: W
LayerCount: 2
Back
Fore
SplineSet
406 586 m 256,0,1
 406 629 406 629 422.5 667 c 128,-1,2
 439 705 439 705 467 733 c 128,-1,3
 495 761 495 761 533 777.5 c 128,-1,4
 571 794 571 794 614 794 c 256,5,6
 657 794 657 794 695 777.5 c 128,-1,7
 733 761 733 761 761 733 c 128,-1,8
 789 705 789 705 805.5 667 c 128,-1,9
 822 629 822 629 822 586 c 256,10,11
 822 543 822 543 805.5 505 c 128,-1,12
 789 467 789 467 761 439 c 128,-1,13
 733 411 733 411 695 394.5 c 128,-1,14
 657 378 657 378 614 378 c 256,15,16
 571 378 571 378 533 394.5 c 128,-1,17
 495 411 495 411 467 439 c 128,-1,18
 439 467 439 467 422.5 505 c 128,-1,19
 406 543 406 543 406 586 c 256,0,1
EndSplineSet
EndChar
StartChar: cedilla
Encoding: 184 184 145
Width: 1228
Flags: W
LayerCount: 2
Back
Fore
SplineSet
684 28 m 1,0,-1
 684 -93 l 1,1,2
 742 -91 742 -91 785 -104 c 128,-1,3
 828 -117 828 -117 855.5 -142 c 128,-1,4
 883 -167 883 -167 896.5 -202.5 c 128,-1,5
 910 -238 910 -238 910 -281 c 0,6,7
 910 -372 910 -372 839.5 -422 c 128,-1,8
 769 -472 769 -472 631 -472 c 0,9,10
 556 -472 556 -472 490.5 -461 c 128,-1,11
 425 -450 425 -450 372 -430 c 0,12,13
 353 -422 353 -422 351.5 -401 c 128,-1,14
 350 -380 350 -380 361 -348 c 0,15,16
 374 -313 374 -313 389.5 -297.5 c 128,-1,17
 405 -282 405 -282 425 -288 c 0,18,19
 464 -303 464 -303 501 -312.5 c 128,-1,20
 538 -322 538 -322 588 -322 c 0,21,22
 674 -322 674 -322 674 -269 c 0,23,24
 674 -248 674 -248 663 -236.5 c 128,-1,25
 652 -225 652 -225 635 -219.5 c 128,-1,26
 618 -214 618 -214 595.5 -215 c 128,-1,27
 573 -216 573 -216 551 -221 c 0,28,29
 534 -225 534 -225 521.5 -215.5 c 128,-1,30
 509 -206 509 -206 509 -180 c 2,31,-1
 509 28 l 1,32,-1
 684 28 l 1,0,-1
EndSplineSet
EndChar
StartChar: onesuperior
Encoding: 185 185 161
Width: 1228
Flags: W
LayerCount: 2
Back
Fore
SplineSet
542 1108 m 1,0,-1
 385 1056 l 2,1,2
 358 1047 358 1047 336.5 1058 c 128,-1,3
 315 1069 315 1069 299 1117 c 0,4,5
 285 1159 285 1159 291.5 1184 c 128,-1,6
 298 1209 298 1209 330 1220 c 2,7,-1
 653 1329 l 2,8,9
 669 1335 669 1335 684 1335 c 128,-1,10
 699 1335 699 1335 711 1328.5 c 128,-1,11
 723 1322 723 1322 730 1309 c 128,-1,12
 737 1296 737 1296 737 1275 c 2,13,-1
 737 653 l 1,14,-1
 918 653 l 2,15,16
 946 653 946 653 958 633 c 128,-1,17
 970 613 970 613 970 568 c 256,18,19
 970 523 970 523 958 503 c 128,-1,20
 946 483 946 483 918 483 c 2,21,-1
 354 483 l 2,22,23
 325 483 325 483 314 503 c 128,-1,24
 303 523 303 523 303 568 c 256,25,26
 303 613 303 613 314.5 633 c 128,-1,27
 326 653 326 653 354 653 c 2,28,-1
 542 653 l 1,29,-1
 542 1108 l 1,0,-1
EndSplineSet
EndChar
StartChar: ordmasculine
Encoding: 186 186 228
Width: 1228
Flags: W
LayerCount: 2
Back
Fore
SplineSet
614 465 m 256,0,1
 525 465 525 465 453 493 c 128,-1,2
 381 521 381 521 330 570.5 c 128,-1,3
 279 620 279 620 251.5 688 c 128,-1,4
 224 756 224 756 224 837 c 256,5,6
 224 918 224 918 251.5 986 c 128,-1,7
 279 1054 279 1054 330 1103.5 c 128,-1,8
 381 1153 381 1153 453 1181 c 128,-1,9
 525 1209 525 1209 614 1209 c 256,10,11
 703 1209 703 1209 775 1181 c 128,-1,12
 847 1153 847 1153 898 1103.5 c 128,-1,13
 949 1054 949 1054 976.5 986 c 128,-1,14
 1004 918 1004 918 1004 837 c 256,15,16
 1004 756 1004 756 976.5 688 c 128,-1,17
 949 620 949 620 898 570.5 c 128,-1,18
 847 521 847 521 775 493 c 128,-1,19
 703 465 703 465 614 465 c 256,0,1
614 1035 m 0,20,21
 572 1035 572 1035 538 1021 c 128,-1,22
 504 1007 504 1007 480 981 c 128,-1,23
 456 955 456 955 443 918.5 c 128,-1,24
 430 882 430 882 430 837 c 256,25,26
 430 792 430 792 443 755.5 c 128,-1,27
 456 719 456 719 480 693.5 c 128,-1,28
 504 668 504 668 538 654 c 128,-1,29
 572 640 572 640 614 640 c 0,30,31
 699 640 699 640 748.5 693 c 128,-1,32
 798 746 798 746 798 837 c 256,33,34
 798 928 798 928 748.5 981.5 c 128,-1,35
 699 1035 699 1035 614 1035 c 0,20,21
EndSplineSet
EndChar
StartChar: guillemotright
Encoding: 187 187 124
Width: 1228
Flags: W
LayerCount: 2
Back
Fore
SplineSet
615 576 m 2,0,1
 631 550 631 550 615 525 c 2,2,-1
 406 181 l 2,3,4
 398 168 398 168 383.5 162 c 128,-1,5
 369 156 369 156 351 155.5 c 128,-1,6
 333 155 333 155 312.5 159.5 c 128,-1,7
 292 164 292 164 273 173 c 0,8,9
 253 182 253 182 235 194.5 c 128,-1,10
 217 207 217 207 206 221.5 c 128,-1,11
 195 236 195 236 192 251 c 128,-1,12
 189 266 189 266 198 281 c 2,13,-1
 362 551 l 1,14,-1
 198 820 l 2,15,16
 189 835 189 835 192 850 c 128,-1,17
 195 865 195 865 206 879.5 c 128,-1,18
 217 894 217 894 235 906.5 c 128,-1,19
 253 919 253 919 273 928 c 0,20,21
 292 937 292 937 312.5 941.5 c 128,-1,22
 333 946 333 946 351 945.5 c 128,-1,23
 369 945 369 945 383.5 939 c 128,-1,24
 398 933 398 933 406 920 c 2,25,-1
 615 576 l 2,0,1
1055 576 m 2,26,27
 1071 550 1071 550 1055 525 c 2,28,-1
 846 181 l 2,29,30
 838 168 838 168 823.5 162 c 128,-1,31
 809 156 809 156 791 155.5 c 128,-1,32
 773 155 773 155 752.5 159.5 c 128,-1,33
 732 164 732 164 713 173 c 0,34,35
 693 182 693 182 675 194.5 c 128,-1,36
 657 207 657 207 646 221.5 c 128,-1,37
 635 236 635 236 632 251 c 128,-1,38
 629 266 629 266 638 281 c 2,39,-1
 802 551 l 1,40,-1
 638 820 l 2,41,42
 629 835 629 835 632 850 c 128,-1,43
 635 865 635 865 646 879.5 c 128,-1,44
 657 894 657 894 675 906.5 c 128,-1,45
 693 919 693 919 713 928 c 0,46,47
 732 937 732 937 752.5 941.5 c 128,-1,48
 773 946 773 946 791 945.5 c 128,-1,49
 809 945 809 945 823.5 939 c 128,-1,50
 838 933 838 933 846 920 c 2,51,-1
 1055 576 l 2,26,27
EndSplineSet
EndChar
StartChar: questiondown
Encoding: 191 191 118
Width: 1228
Flags: W
LayerCount: 2
Back
Fore
SplineSet
543 720 m 2,0,1
 544 732 544 732 549 741 c 128,-1,2
 554 750 554 750 565.5 756 c 128,-1,3
 577 762 577 762 596 765 c 128,-1,4
 615 768 615 768 644 768 c 256,5,6
 673 768 673 768 692 765 c 128,-1,7
 711 762 711 762 722.5 756 c 128,-1,8
 734 750 734 750 739 741 c 128,-1,9
 744 732 744 732 745 720 c 2,10,-1
 763 512 l 2,11,12
 765 492 765 492 758.5 478 c 128,-1,13
 752 464 752 464 733 461 c 2,14,-1
 623 443 l 2,15,16
 549 431 549 431 515 401.5 c 128,-1,17
 481 372 481 372 481 318 c 0,18,19
 481 258 481 258 520 226.5 c 128,-1,20
 559 195 559 195 637 195 c 0,21,22
 678 195 678 195 716.5 203 c 128,-1,23
 755 211 755 211 790 225 c 1,24,-1
 790 327 l 2,25,26
 790 344 790 344 795 356 c 128,-1,27
 800 368 800 368 812 375.5 c 128,-1,28
 824 383 824 383 845 386.5 c 128,-1,29
 866 390 866 390 898 390 c 0,30,31
 962 390 962 390 991 375.5 c 128,-1,32
 1020 361 1020 361 1020 327 c 2,33,-1
 1020 127 l 2,34,35
 1020 86 1020 86 979 66 c 0,36,37
 896 27 896 27 809.5 2.5 c 128,-1,38
 723 -22 723 -22 638 -22 c 0,39,40
 537 -22 537 -22 460.5 1 c 128,-1,41
 384 24 384 24 332 67.5 c 128,-1,42
 280 111 280 111 253.5 173 c 128,-1,43
 227 235 227 235 227 313 c 0,44,45
 227 382 227 382 246.5 433 c 128,-1,46
 266 484 266 484 304 522 c 128,-1,47
 342 560 342 560 399.5 587 c 128,-1,48
 457 614 457 614 534 634 c 1,49,-1
 543 720 l 2,0,1
815 1038 m 0,50,51
 815 1002 815 1002 801.5 971 c 128,-1,52
 788 940 788 940 764.5 916.5 c 128,-1,53
 741 893 741 893 710 879.5 c 128,-1,54
 679 866 679 866 644 866 c 0,55,56
 608 866 608 866 577 879.5 c 128,-1,57
 546 893 546 893 523 916.5 c 128,-1,58
 500 940 500 940 486.5 971 c 128,-1,59
 473 1002 473 1002 473 1038 c 0,60,61
 473 1073 473 1073 486.5 1104 c 128,-1,62
 500 1135 500 1135 523 1158.5 c 128,-1,63
 546 1182 546 1182 577 1195.5 c 128,-1,64
 608 1209 608 1209 644 1209 c 256,65,66
 680 1209 680 1209 711 1195.5 c 128,-1,67
 742 1182 742 1182 765 1158.5 c 128,-1,68
 788 1135 788 1135 801.5 1104 c 128,-1,69
 815 1073 815 1073 815 1038 c 0,50,51
EndSplineSet
EndChar
